<?xml version="1.0" standalone="no"?>
<!DOCTYPE svg PUBLIC "-//W3C//DTD SVG 20010904//EN"
 "http://www.w3.org/TR/2001/REC-SVG-20010904/DTD/svg10.dtd">
<svg version="1.0" xmlns="http://www.w3.org/2000/svg"
 width="554.000000pt" height="414.000000pt" viewBox="0 0 554.000000 414.000000"
 preserveAspectRatio="xMidYMid meet">
<metadata>
Created by potrace 1.16, written by Peter Selinger 2001-2019
</metadata>
<g transform="translate(0.000000,414.000000) scale(0.100000,-0.100000)"
fill="#000000" stroke="none">
<path d="M1830 2960 c-36 -10 -78 -23 -95 -30 -69 -29 -121 -55 -133 -67 -7
-7 -19 -13 -25 -13 -24 0 -78 -63 -112 -130 -31 -61 -35 -81 -45 -196 -5 -70
-10 -150 -10 -178 l1 -51 82 -38 c88 -40 131 -46 177 -22 36 19 44 34 60 107
20 99 90 143 194 124 37 -7 86 -55 86 -84 0 -8 9 -35 21 -59 23 -47 50 -56 92
-29 21 14 26 12 81 -38 l60 -53 -23 -24 c-13 -13 -36 -44 -53 -67 -33 -48 -29
-62 20 -77 20 -6 34 4 93 64 38 38 69 74 69 79 0 13 -57 71 -64 65 -3 -3 -23
9 -43 28 -21 19 -49 41 -62 49 -21 14 -22 19 -12 55 6 22 11 55 11 73 0 17 3
32 6 32 3 0 29 -12 58 -26 39 -19 58 -36 70 -61 l17 -35 22 21 c12 12 40 36
61 55 54 46 53 82 -7 177 -93 150 -210 278 -287 316 -115 57 -188 64 -310 33z"/>
<path d="M1310 2142 c-23 -2 -45 -14 -64 -33 -17 -17 -42 -37 -58 -45 -15 -8
-28 -19 -28 -24 0 -14 -75 -59 -124 -76 -170 -57 -313 -107 -321 -114 -5 -4
-28 -13 -50 -20 -118 -38 -312 -256 -344 -388 -5 -20 -16 -64 -25 -97 -9 -33
-19 -78 -22 -100 -3 -22 -9 -62 -14 -88 -6 -26 -10 -68 -10 -92 0 -24 -4 -66
-9 -92 -6 -26 -19 -111 -31 -188 -12 -77 -28 -175 -36 -218 -8 -42 -14 -86
-14 -97 0 -20 10 -20 944 -20 746 0 945 3 949 13 4 9 7 9 18 0 10 -10 108 -13
421 -13 l408 0 0 24 c0 14 9 41 21 60 28 48 22 79 -16 86 -16 4 -70 26 -120
50 -88 43 -145 56 -145 34 0 -6 -9 -19 -21 -30 -17 -16 -22 -16 -29 -4 -6 8
-10 19 -10 23 0 4 -9 27 -19 51 -11 23 -29 65 -40 92 -30 76 -111 247 -125
264 -6 8 -18 32 -25 53 -14 41 -61 116 -98 157 -13 14 -23 30 -23 36 0 6 -7
18 -16 25 -9 8 -27 30 -40 49 -23 33 -65 91 -99 135 -8 11 -25 36 -38 55 -26
39 -103 102 -162 130 -22 11 -47 25 -56 32 -17 14 -61 96 -74 138 -11 35 -69
105 -109 129 -39 25 -192 76 -256 86 -25 4 -47 10 -50 14 -3 3 -21 5 -40 3z"/>
<path d="M2740 1005 c-41 -24 -85 -44 -97 -45 -24 0 -53 -24 -53 -44 0 -7 11
-25 24 -39 14 -15 27 -39 29 -54 3 -20 4 -17 6 14 1 42 1 42 76 78 57 27 75
41 75 56 0 11 5 29 11 40 21 39 3 38 -71 -6z"/>
<path d="M4383 643 l-63 -4 0 -95 0 -95 153 3 152 3 3 89 c2 65 -1 92 -10 98
-13 7 -107 8 -235 1z"/>
<path d="M3346 633 c-16 -4 -18 -12 -12 -56 3 -29 6 -69 6 -90 l0 -38 158 3
157 3 1 75 c1 115 7 110 -154 109 -75 -1 -145 -3 -156 -6z"/>
</g>
</svg>
