<?xml version="1.0" standalone="no"?>
<!DOCTYPE svg PUBLIC "-//W3C//DTD SVG 20010904//EN"
 "http://www.w3.org/TR/2001/REC-SVG-20010904/DTD/svg10.dtd">
<svg version="1.0" xmlns="http://www.w3.org/2000/svg"
 width="554.000000pt" height="414.000000pt" viewBox="0 0 554.000000 414.000000"
 preserveAspectRatio="xMidYMid meet">
<metadata>
Created by potrace 1.16, written by Peter Selinger 2001-2019
</metadata>
<g transform="translate(0.000000,414.000000) scale(0.100000,-0.100000)"
fill="#000000" stroke="none">
<path d="M1690 3598 c-24 -11 -23 -12 20 -18 83 -11 140 -61 225 -194 20 -33
64 -86 96 -118 57 -56 139 -108 139 -88 0 5 -6 10 -12 10 -7 0 -24 15 -38 32
-14 18 -37 44 -51 58 -15 14 -50 66 -77 115 -28 50 -61 104 -74 122 -55 75
-158 112 -228 81z"/>
<path d="M1368 3313 c-14 -32 -31 -97 -37 -145 -6 -48 -20 -106 -31 -130 -20
-44 -18 -61 4 -52 17 6 60 69 70 102 4 12 13 22 20 22 24 0 38 -75 46 -240 5
-91 12 -181 18 -200 16 -62 65 -153 125 -233 32 -42 65 -94 74 -115 22 -52 12
-146 -27 -257 -82 -232 -90 -260 -90 -311 0 -88 30 -151 110 -229 39 -37 69
-70 66 -72 -9 -10 -85 49 -150 116 -37 39 -75 71 -82 71 -22 0 -36 -50 -29
-100 6 -44 35 -136 81 -257 35 -89 33 -158 -6 -205 -16 -20 -49 -47 -73 -61
-45 -26 -97 -44 -97 -33 0 4 14 32 31 64 28 51 30 63 25 116 -7 68 -28 115
-103 235 -29 47 -53 90 -53 96 0 6 -14 27 -31 48 -24 29 -38 37 -63 37 -69 0
-87 -60 -56 -187 26 -104 27 -136 6 -169 -17 -24 -94 -70 -103 -60 -3 3 4 22
16 42 39 66 31 111 -50 278 -36 73 -36 91 -1 147 57 90 59 105 36 260 -8 56 5
83 75 159 37 40 52 66 56 95 6 38 -10 173 -21 185 -3 3 -3 -15 1 -40 l7 -45
-150 -48 c-82 -26 -157 -55 -165 -65 -14 -15 -28 -77 -42 -186 -6 -39 -16 -70
-26 -77 -5 -3 -20 -109 -33 -236 -13 -127 -28 -238 -33 -247 -5 -8 -5 -46 -2
-83 6 -61 4 -206 -6 -491 -1 -51 1 -94 5 -97 16 -10 20 -75 7 -136 -9 -44 -10
-75 -3 -101 7 -27 5 -57 -7 -113 -10 -45 -17 -120 -17 -185 0 -95 2 -111 18
-119 17 -9 18 -5 18 37 -1 66 49 186 95 232 20 19 54 49 75 65 21 17 64 64 97
105 71 90 82 100 119 100 l29 0 -53 70 c-29 39 -95 120 -146 180 -51 60 -92
115 -91 122 4 36 -2 48 -26 48 -28 0 -35 27 -10 36 22 9 87 -63 308 -336 100
-123 93 -119 179 -104 62 10 221 -40 244 -77 14 -23 5 -69 -22 -114 -26 -45
-27 -64 -4 -50 7 4 18 23 26 41 8 18 26 41 42 51 15 9 36 25 48 35 22 19 230
88 268 88 48 1 50 7 42 182 -8 194 -29 431 -52 583 -25 171 -102 546 -130 637
l-26 81 28 71 c18 44 30 96 32 138 4 58 0 74 -24 122 -15 31 -62 94 -105 140
-42 47 -88 109 -102 138 -34 70 -72 209 -92 333 -9 55 -23 142 -31 194 -9 51
-14 108 -11 127 9 51 -7 41 -35 -23z"/>
<path d="M2263 3107 c19 -28 22 -47 26 -144 4 -128 -12 -214 -61 -339 -50
-130 -59 -173 -65 -316 -8 -182 -7 -184 113 -418 9 -19 20 -42 24 -50 4 -8 23
-44 42 -80 26 -49 40 -96 58 -190 26 -144 57 -278 99 -435 33 -119 66 -294 57
-302 -3 -3 -22 -9 -43 -14 -60 -13 -242 -65 -310 -90 -67 -23 -84 -49 -33 -49
24 0 35 -8 53 -38 33 -53 55 -112 63 -171 5 -41 10 -51 23 -47 9 3 102 23 206
46 105 22 208 45 230 50 156 35 383 81 450 90 44 6 94 15 110 20 17 4 64 16
105 25 94 22 143 46 158 80 28 61 3 294 -46 435 -27 78 -88 193 -124 233 -9
11 -22 32 -28 48 -7 16 -16 29 -20 29 -4 0 -19 24 -34 53 -14 28 -44 77 -65
107 -22 30 -37 58 -35 62 3 5 1 8 -4 8 -22 0 -152 233 -152 272 0 17 -20 68
-30 78 -12 11 -53 118 -61 159 -14 68 -49 121 -114 173 -70 56 -84 81 -66 110
15 24 7 35 -14 18 -34 -28 -18 -60 74 -149 67 -65 91 -96 100 -126 22 -80 13
-109 -45 -155 -58 -44 -85 -98 -92 -176 -14 -179 142 -329 266 -254 35 22 40
14 17 -29 -13 -26 -50 -50 -102 -65 -49 -15 -30 -86 24 -86 26 0 92 39 138 81
16 16 34 29 39 29 5 0 6 -22 4 -48 -7 -67 -39 -106 -122 -147 -113 -57 -219
-45 -367 41 -69 40 -99 52 -99 39 0 -2 19 -44 42 -92 39 -81 42 -94 42 -173 1
-79 -1 -88 -29 -127 -28 -40 -52 -59 -62 -49 -3 2 5 34 18 70 16 49 20 80 16
119 -10 102 -127 423 -227 625 -47 96 -72 190 -77 292 -4 78 -1 101 14 130 43
83 132 31 213 -124 25 -47 51 -86 58 -86 16 0 15 14 -7 102 -20 79 -31 105
-119 288 -49 103 -55 123 -59 195 -5 88 12 160 37 160 11 0 16 -15 18 -63 2
-44 7 -62 15 -59 20 6 46 89 46 150 1 108 -37 154 -201 245 -104 58 -107 59
-85 29z"/>
</g>
</svg>
