<?xml version="1.0" standalone="no"?>
<!DOCTYPE svg PUBLIC "-//W3C//DTD SVG 20010904//EN"
 "http://www.w3.org/TR/2001/REC-SVG-20010904/DTD/svg10.dtd">
<svg version="1.0" xmlns="http://www.w3.org/2000/svg"
 width="554.000000pt" height="414.000000pt" viewBox="0 0 554.000000 414.000000"
 preserveAspectRatio="xMidYMid meet">
<metadata>
Created by potrace 1.16, written by Peter Selinger 2001-2019
</metadata>
<g transform="translate(0.000000,414.000000) scale(0.100000,-0.100000)"
fill="#000000" stroke="none">
<path d="M3910 3895 c-7 -17 -19 -26 -47 -30 -69 -11 -80 -20 -87 -68 -4 -25
-13 -48 -21 -51 -23 -8 -48 -67 -54 -126 -5 -47 -9 -55 -31 -61 -14 -4 -20 -7
-14 -8 7 -1 31 -34 55 -73 24 -40 75 -125 114 -188 39 -63 76 -128 83 -143 7
-15 26 -36 44 -45 106 -56 127 -161 47 -238 -27 -26 -37 -29 -97 -29 -37 0
-73 -4 -79 -8 -18 -12 -159 -189 -166 -209 -8 -23 -36 -23 -44 -2 -7 19 9 49
26 49 12 0 171 183 171 197 0 4 -10 23 -21 43 -26 44 -22 99 11 145 l22 30
-64 110 c-81 142 -154 275 -176 322 -20 45 -40 43 -88 -8 -23 -23 -33 -46 -38
-81 -12 -89 -17 -100 -42 -112 -15 -7 -27 -22 -31 -41 -3 -17 -10 -33 -14 -36
-15 -9 -9 -165 10 -263 14 -72 24 -98 40 -111 21 -15 22 -23 19 -106 l-3 -89
33 -10 c25 -7 32 -14 32 -35 0 -14 8 -30 20 -38 11 -7 20 -19 20 -27 0 -9 11
-21 25 -27 38 -17 26 -40 -30 -58 -68 -21 -109 -45 -127 -72 -10 -16 -18 -68
-23 -168 -10 -178 -10 -164 4 -281 9 -71 9 -103 1 -125 -7 -18 -9 -54 -5 -96
7 -67 39 -141 144 -333 l33 -59 -27 -22 c-34 -27 -67 -34 -159 -34 -40 0 -76
-4 -82 -10 -15 -15 -117 -15 -144 1 -14 8 -43 28 -65 45 -57 43 -167 77 -230
69 -28 -3 -70 -8 -95 -11 -77 -9 -92 -20 -134 -95 l-38 -71 -92 7 c-186 14
-211 16 -228 21 -9 3 -28 -2 -42 -11 -24 -16 -28 -15 -82 9 -66 30 -70 31 -91
10 -11 -10 -25 -13 -45 -9 -65 15 -143 -56 -142 -128 1 -29 9 -45 37 -72 l36
-35 -194 0 -195 0 0 130 0 130 -115 0 -115 0 0 65 0 65 43 0 44 0 6 733 c3
402 4 733 3 735 -2 1 -66 3 -142 5 l-139 2 -3 -737 -2 -738 45 0 45 0 0 -66 0
-65 -112 3 -113 3 -3 -127 -3 -127 -34 -7 c-20 -3 -35 -12 -35 -20 0 -8 5 -14
10 -14 6 0 10 -5 10 -11 0 -12 29 -49 113 -142 l52 -57 235 0 c129 0 252 -3
273 -6 l37 -7 0 -211 1 -211 84 -42 c46 -24 88 -43 93 -43 5 0 11 110 15 251
3 138 7 253 10 255 2 2 262 5 578 6 l574 3 51 27 c52 28 64 45 64 102 0 21
-12 41 -44 72 -43 43 -44 44 -112 44 l-69 0 33 17 c28 14 33 21 30 44 l-4 28
35 -28 c20 -16 54 -34 76 -41 22 -7 49 -17 60 -22 11 -5 70 -10 130 -11 119
-4 135 -8 135 -37 0 -28 -85 -102 -141 -123 -28 -11 -53 -25 -56 -33 -3 -8
-11 -14 -18 -14 -7 0 -25 -15 -40 -33 -15 -17 -42 -41 -60 -52 -17 -11 -43
-27 -56 -36 -17 -12 -56 -19 -129 -23 -58 -3 -141 -13 -185 -21 -44 -9 -116
-20 -160 -26 -158 -21 -351 -72 -382 -102 -37 -34 -73 -116 -73 -166 0 -168
18 -193 160 -227 127 -30 401 -64 525 -64 107 0 415 34 500 55 33 9 71 18 83
21 221 48 490 170 727 329 39 26 77 53 85 60 8 8 27 24 41 37 14 13 51 43 83
68 32 24 95 85 140 135 45 49 93 102 106 116 14 14 36 40 50 58 14 19 34 45
46 60 11 14 33 49 49 76 15 28 34 54 42 58 7 4 13 13 13 20 0 7 12 29 26 50
78 115 224 472 224 550 0 25 -3 27 -42 27 -29 0 -69 -13 -123 -39 -76 -37 -81
-38 -106 -24 -20 12 -29 29 -39 72 -6 31 -20 75 -30 97 -10 23 -21 57 -25 75
-8 41 -77 193 -123 274 -25 43 -74 107 -97 126 -53 44 -79 75 -143 171 -91
136 -97 148 -76 148 14 0 16 7 10 48 -19 123 -19 117 8 143 14 13 26 32 26 41
0 9 5 20 10 23 6 4 20 25 32 48 18 34 23 67 29 172 9 155 10 161 36 203 35 56
48 135 34 195 -31 130 -67 193 -129 226 -12 6 -22 18 -22 25 0 29 -42 66 -81
72 -28 5 -47 16 -64 37 -22 28 -29 31 -90 34 -61 2 -66 1 -75 -22z m-57 -1421
l29 -42 -19 -28 c-24 -37 -38 -61 -63 -106 -11 -20 -41 -66 -67 -103 -99 -137
-163 -245 -163 -276 0 -6 -4 -7 -10 -4 -15 10 -12 52 5 59 20 7 19 53 -2 65
-20 11 -17 18 53 148 41 76 46 82 68 73 16 -6 32 -4 49 5 14 7 28 11 30 9 2
-3 10 3 17 11 11 13 10 22 -3 50 -14 29 -14 35 -3 35 16 0 25 19 18 38 -2 7
-20 23 -38 36 l-34 23 38 26 c20 14 44 25 52 24 8 -1 27 -21 43 -43z"/>
</g>
</svg>
