<?xml version="1.0" standalone="no"?>
<!DOCTYPE svg PUBLIC "-//W3C//DTD SVG 20010904//EN"
 "http://www.w3.org/TR/2001/REC-SVG-20010904/DTD/svg10.dtd">
<svg version="1.0" xmlns="http://www.w3.org/2000/svg"
 width="554.000000pt" height="415.000000pt" viewBox="0 0 554.000000 415.000000"
 preserveAspectRatio="xMidYMid meet">
<metadata>
Created by potrace 1.16, written by Peter Selinger 2001-2019
</metadata>
<g transform="translate(0.000000,415.000000) scale(0.100000,-0.100000)"
fill="#000000" stroke="none">
<path d="M1855 3934 c-134 -32 -281 -132 -344 -234 -17 -28 -29 -50 -27 -50 3
0 -4 -30 -14 -67 -10 -38 -24 -97 -30 -133 -7 -36 -15 -69 -20 -75 -11 -14
-10 -254 1 -261 21 -13 7 -53 -31 -88 -22 -20 -38 -36 -36 -36 3 0 -6 -25 -20
-55 -13 -31 -24 -65 -24 -76 0 -12 -14 -28 -35 -40 -19 -12 -35 -26 -35 -32 0
-6 -3 -7 -7 -4 -3 4 -11 0 -17 -8 -6 -9 -22 -17 -36 -20 -14 -3 -26 -9 -28
-15 -2 -5 -9 -10 -16 -10 -7 0 -22 -8 -34 -17 -53 -46 -63 -53 -69 -53 -3 0
-13 -7 -22 -15 -34 -32 -89 -75 -95 -75 -3 0 -14 -8 -24 -17 -10 -10 -38 -34
-62 -53 -23 -19 -61 -52 -84 -72 -23 -21 -48 -40 -56 -43 -9 -3 -33 -28 -54
-55 -21 -28 -47 -55 -58 -61 -10 -5 -16 -14 -13 -18 2 -5 -7 -21 -20 -35 -14
-15 -25 -32 -25 -38 0 -6 -9 -25 -19 -42 -47 -75 -113 -313 -135 -481 -6 -49
-71 -429 -86 -505 -6 -30 -13 -64 -14 -75 -2 -11 -6 -44 -10 -73 -5 -28 -11
-50 -14 -48 -4 2 -7 -8 -8 -22 -1 -38 -32 -177 -55 -244 -25 -75 -24 -81 11
-101 29 -18 29 -18 36 8 7 30 -1 30 176 5 256 -36 295 -42 308 -50 20 -12 25
-316 8 -448 l-14 -102 823 0 823 0 0 34 c0 25 10 46 36 78 51 60 95 170 109
273 3 17 14 71 24 120 23 103 47 293 56 440 4 69 13 120 30 165 13 36 29 93
36 127 l12 62 24 -19 c70 -55 104 -92 95 -103 -5 -7 -22 -46 -37 -87 -76 -211
-96 -302 -76 -361 13 -39 79 -98 86 -77 9 28 68 279 90 387 13 62 26 116 29
118 2 3 48 -15 101 -39 84 -37 110 -55 191 -132 52 -49 103 -104 115 -122 l21
-34 -39 -88 -38 -87 -3 -237 -3 -236 68 -45 c38 -24 109 -65 159 -90 l90 -47
333 0 332 0 73 34 c72 33 119 71 172 142 16 21 38 48 49 60 11 12 32 46 46 76
131 268 114 243 184 277 l63 31 36 -24 c86 -58 240 -41 554 61 l172 57 0 125
c0 76 -8 174 -19 246 -11 66 -22 142 -25 168 -5 51 -31 213 -72 464 -14 84
-23 157 -20 162 4 5 2 12 -4 16 -5 3 -10 44 -10 91 0 76 -3 88 -27 122 -16 21
-52 60 -82 87 -30 28 -75 69 -100 93 -56 53 -129 102 -150 102 -9 -1 -27 -7
-41 -15 -14 -8 -37 -14 -52 -15 -35 0 -204 -150 -257 -228 -51 -75 -111 -128
-176 -158 -39 -17 -62 -36 -85 -69 -17 -25 -35 -43 -40 -40 -4 3 -14 29 -21
57 -14 61 -31 77 -77 78 -76 0 -133 47 -179 145 -25 54 -28 73 -31 186 -3 83
2 165 12 238 9 61 14 117 10 123 -11 17 -180 -10 -489 -78 -105 -23 -243 -124
-372 -273 -37 -42 -70 -77 -75 -79 -4 -2 -8 17 -8 41 0 26 -13 81 -31 129 -17
46 -36 98 -42 116 -12 32 -12 32 -62 25 -82 -13 -220 -6 -256 12 -31 17 -96
79 -122 118 -16 24 -37 15 -37 -16 0 -12 -9 -47 -20 -77 -13 -34 -19 -75 -18
-107 2 -37 -2 -58 -13 -69 -22 -22 -157 -43 -275 -44 l-101 0 -12 -152 c-7
-84 -15 -171 -19 -193 l-7 -39 -34 52 c-43 67 -69 85 -185 126 -53 19 -101 38
-108 42 -141 80 -320 318 -407 541 l-21 53 31 15 c16 9 35 27 41 40 12 27 28
33 28 12 0 -24 47 -59 87 -64 33 -4 54 3 146 51 58 31 119 56 134 56 43 0 109
-38 136 -78 28 -41 48 -89 72 -174 14 -49 21 -59 43 -64 15 -3 43 -10 62 -15
19 -5 37 -9 40 -9 3 0 5 78 5 172 0 184 7 223 51 288 33 49 64 65 187 93 58
14 123 35 142 47 36 22 115 113 115 131 0 5 6 9 13 9 22 0 47 67 47 127 0 46
-7 68 -40 127 -50 92 -141 204 -190 237 -41 28 -149 69 -245 92 -154 39 -322
47 -430 21z m998 -2065 c20 -5 37 -12 37 -14 0 -4 -45 -74 -58 -90 -4 -5 -9
-14 -11 -20 -3 -15 -112 -216 -128 -240 -13 -18 -14 -12 -8 50 3 39 6 118 7
176 2 105 8 130 38 142 24 9 82 8 123 -4z"/>
<path d="M4427 3506 c-32 -13 -78 -40 -103 -59 -52 -41 -144 -125 -144 -133 0
-17 -101 -128 -127 -139 -27 -11 -33 -20 -33 -44 0 -23 13 -41 63 -86 34 -32
80 -65 102 -75 22 -9 72 -38 111 -63 181 -117 391 -210 513 -227 93 -13 149 0
186 42 30 34 30 34 68 20 34 -14 43 -13 93 4 61 20 68 27 101 88 71 130 114
227 119 268 6 46 5 50 -41 105 -87 106 -165 171 -260 217 -49 25 -108 48 -130
52 -22 3 -46 11 -53 17 -7 5 -15 8 -18 5 -3 -3 -37 1 -77 9 -40 8 -126 16
-192 19 -109 3 -125 1 -178 -20z"/>
</g>
</svg>
