<?xml version="1.0" standalone="no"?>
<!DOCTYPE svg PUBLIC "-//W3C//DTD SVG 20010904//EN"
 "http://www.w3.org/TR/2001/REC-SVG-20010904/DTD/svg10.dtd">
<svg version="1.0" xmlns="http://www.w3.org/2000/svg"
 width="554.000000pt" height="415.000000pt" viewBox="0 0 554.000000 415.000000"
 preserveAspectRatio="xMidYMid meet">
<metadata>
Created by potrace 1.16, written by Peter Selinger 2001-2019
</metadata>
<g transform="translate(0.000000,415.000000) scale(0.100000,-0.100000)"
fill="#000000" stroke="none">
<path d="M2568 4059 c-30 -22 -71 -27 -91 -11 -17 15 -37 8 -37 -11 0 -7 -14
-20 -31 -30 -17 -9 -33 -26 -36 -37 -3 -13 -14 -20 -29 -20 -19 0 -24 -5 -24
-24 0 -14 -5 -28 -11 -31 -33 -21 -31 -95 3 -95 13 0 17 -4 11 -12 -15 -25
-11 -39 13 -49 38 -14 41 -12 58 31 15 37 19 40 55 40 22 0 46 3 55 6 11 4 23
-11 45 -53 18 -36 41 -64 59 -75 25 -13 32 -25 38 -65 11 -74 20 -92 43 -86
14 4 21 14 21 30 0 50 16 63 76 63 l55 0 19 -42 c11 -24 20 -57 20 -74 0 -26
10 -40 56 -78 83 -68 110 -60 140 42 9 31 20 67 24 78 5 12 6 31 3 42 -2 11 1
31 8 43 19 35 20 56 4 63 -9 3 -15 19 -15 40 0 19 -6 41 -14 49 -8 8 -18 31
-21 51 -5 24 -23 53 -53 84 -24 26 -52 58 -60 71 -14 21 -21 23 -63 18 -44 -5
-48 -4 -53 19 -7 27 -27 31 -47 8 -11 -14 -13 -14 -22 1 -6 11 -20 16 -40 14
-18 -1 -45 3 -60 9 -36 15 -70 12 -99 -9z"/>
<path d="M3202 3442 c-1 -14 -7 -31 -12 -36 -18 -18 -11 -25 28 -31 76 -13
168 -38 202 -55 44 -23 152 -106 163 -127 61 -107 87 -912 32 -973 -10 -11
-21 -18 -25 -15 -4 2 -14 -13 -22 -34 l-15 -38 33 -27 c42 -33 74 -94 74 -139
0 -19 -11 -72 -25 -118 -29 -95 -60 -236 -70 -323 l-8 -59 34 7 c19 4 41 8 49
10 66 13 133 75 104 94 -14 9 -46 140 -38 154 4 7 2 8 -5 4 -9 -6 -11 23 -10
118 0 69 4 126 9 126 4 0 6 11 5 25 -2 14 0 25 4 25 5 0 6 12 3 26 -3 15 -1
24 4 21 5 -3 9 9 9 26 1 18 4 50 8 72 5 22 8 47 8 55 1 8 6 31 12 50 11 37 17
73 21 130 6 74 19 139 27 134 5 -3 6 2 3 10 -4 9 -1 16 6 16 9 0 9 4 2 13 -7
8 -7 18 -2 27 5 8 6 18 4 22 -3 5 0 34 7 66 6 31 11 78 10 105 -1 26 3 47 7
47 5 0 8 12 6 28 -14 106 -15 141 -6 175 6 20 7 37 4 37 -8 0 -34 93 -36 127
0 11 -4 20 -7 18 -9 -6 -41 54 -34 65 4 6 3 9 -2 8 -4 -2 -34 16 -65 40 -31
23 -64 42 -73 42 -9 0 -32 7 -52 15 -19 8 -47 17 -62 20 -72 15 -127 22 -134
18 -4 -3 -13 0 -20 5 -7 6 -40 10 -75 11 -34 0 -66 2 -70 5 -4 2 -9 -7 -10
-22z"/>
<path d="M2788 1772 c11 -7 9 -23 -6 -83 -15 -58 -18 -92 -13 -156 l6 -82 -35
-4 c-19 -2 60 -4 176 -5 l212 -2 6 43 c12 90 10 219 -5 228 -38 25 -173 58
-259 64 -58 4 -90 3 -82 -3z"/>
<path d="M2310 621 c-30 -10 -83 -22 -118 -25 -35 -4 -73 -12 -85 -18 -12 -6
-64 -57 -116 -114 -72 -79 -114 -115 -175 -152 -92 -54 -104 -78 -59 -110 104
-73 307 -53 407 42 36 33 115 72 166 81 19 3 56 21 81 40 70 50 71 88 9 228
-24 53 -30 55 -110 28z"/>
<path d="M3111 573 c-15 -75 -13 -304 2 -372 10 -41 22 -61 47 -83 32 -26 40
-28 125 -28 73 0 96 4 125 21 53 31 58 42 49 101 -8 49 -14 65 -60 163 -23 49
-39 131 -39 196 0 46 -11 62 -25 38 -8 -12 -164 -2 -179 12 -21 20 -34 6 -45
-48z"/>
</g>
</svg>
