<?xml version="1.0" standalone="no"?>
<!DOCTYPE svg PUBLIC "-//W3C//DTD SVG 20010904//EN"
 "http://www.w3.org/TR/2001/REC-SVG-20010904/DTD/svg10.dtd">
<svg version="1.0" xmlns="http://www.w3.org/2000/svg"
 width="554.000000pt" height="415.000000pt" viewBox="0 0 554.000000 415.000000"
 preserveAspectRatio="xMidYMid meet">
<metadata>
Created by potrace 1.16, written by Peter Selinger 2001-2019
</metadata>
<g transform="translate(0.000000,415.000000) scale(0.100000,-0.100000)"
fill="#000000" stroke="none">
<path d="M100 2678 l0 -1462 35 -32 c30 -27 34 -36 29 -63 -4 -16 -3 -38 0
-47 6 -15 8 -15 26 1 11 10 20 14 20 9 0 -24 59 -45 111 -40 49 5 53 4 83 -29
18 -19 51 -41 74 -49 39 -14 43 -14 49 1 6 14 7 14 19 -2 15 -20 32 -13 44 19
7 16 9 17 9 4 1 -16 10 -17 89 -12 48 3 89 8 92 10 12 13 -22 40 -60 50 -25 6
-50 20 -58 32 -8 12 -21 22 -28 22 -8 0 -14 9 -14 20 0 23 -48 70 -72 70 -10
0 -18 5 -18 10 0 13 27 13 35 0 3 -5 16 -9 28 -8 12 0 48 -2 80 -7 42 -5 57
-4 57 5 0 8 11 11 32 8 32 -5 58 9 58 31 0 7 8 7 25 -1 19 -8 28 -8 40 2 10 8
15 9 15 1 0 -6 9 -11 20 -11 11 0 20 7 20 15 0 8 -7 15 -16 15 -9 0 -14 5 -12
11 2 6 7 10 11 10 4 -1 14 -1 22 -1 9 0 15 -9 15 -25 0 -50 57 -18 62 35 l3
34 15 -30 c8 -16 15 -31 17 -33 1 -2 22 -6 45 -8 24 -3 45 -9 46 -14 2 -5 12
-9 23 -9 32 0 22 -15 -27 -41 -54 -28 -57 -30 -155 -91 -42 -27 -80 -48 -85
-48 -6 0 -31 -14 -57 -30 -26 -17 -54 -30 -63 -30 -8 0 -17 -7 -20 -15 -4 -8
-10 -15 -15 -15 -5 0 -28 -12 -52 -27 -23 -15 -67 -40 -97 -56 -30 -16 -74
-43 -97 -58 -23 -16 -44 -29 -47 -29 -3 0 -16 -11 -30 -25 -14 -14 -35 -25
-48 -25 -13 -1 -59 -23 -103 -50 -44 -27 -101 -61 -128 -75 l-47 -25 0 -285 0
-285 1560 0 c1294 0 1559 2 1554 13 -9 23 16 111 38 134 24 25 40 28 69 13 17
-10 18 -13 4 -34 -9 -13 -19 -43 -23 -67 -7 -38 -11 -45 -37 -50 -17 -4 180
-7 438 -8 l467 -1 0 26 c0 15 -29 114 -65 221 -36 107 -65 201 -65 209 0 8 -9
22 -20 31 -13 12 -20 30 -20 55 0 21 -12 71 -26 111 -14 39 -36 104 -49 142
-28 84 -43 128 -61 175 -8 19 -18 58 -24 85 -6 28 -14 59 -19 70 -14 29 -51
147 -51 159 0 17 99 64 148 72 28 4 63 21 95 45 28 22 58 39 65 39 7 0 31 18
53 40 40 40 62 49 74 30 3 -5 16 -15 28 -22 21 -11 21 -10 7 8 -8 10 -21 23
-27 27 -7 4 -13 14 -13 22 0 8 -8 18 -17 24 -16 8 -16 12 2 51 16 35 17 48 7
88 -32 136 -35 163 -17 203 17 37 17 39 -6 95 -15 36 -44 79 -76 112 -29 30
-53 61 -53 71 0 9 -6 25 -13 36 -7 11 -21 41 -31 67 -17 45 -21 49 -71 63 -51
15 -76 34 -99 74 -6 11 -28 49 -48 84 -39 67 -45 87 -28 87 17 0 29 69 20 128
-17 122 -94 266 -190 358 -23 21 -59 64 -80 95 -21 31 -49 63 -62 71 -13 8
-38 44 -56 78 -36 71 -55 89 -93 90 -32 0 -89 27 -96 46 -7 18 -95 19 -126 2
-29 -16 -46 -18 -53 -7 -3 5 -7 62 -8 127 -4 164 -45 277 -139 374 -67 70
-116 94 -166 80 -20 -6 -56 -13 -81 -17 -61 -10 -92 -27 -124 -69 -51 -68 -69
-157 -70 -346 -1 -156 22 -310 47 -310 20 0 -9 -23 -58 -45 -52 -24 -65 -39
-65 -74 0 -9 -18 -37 -40 -61 -23 -26 -40 -54 -40 -68 0 -13 -9 -35 -20 -49
-11 -14 -20 -31 -20 -38 0 -16 -37 -29 -120 -44 -76 -14 -101 -37 -120 -110
-7 -25 -19 -62 -28 -81 -10 -20 -18 -70 -20 -120 -4 -89 -5 -84 48 -147 14
-17 49 -16 83 1 30 16 34 10 12 -20 -32 -42 -12 -112 41 -142 13 -7 10 -17
-22 -73 -42 -72 -44 -76 -107 -142 -59 -62 -83 -109 -91 -177 -5 -47 -11 -60
-43 -88 l-38 -33 22 -38 c12 -21 25 -65 29 -99 6 -60 6 -62 -20 -72 -14 -5
-26 -14 -26 -20 0 -6 -10 -14 -22 -19 -45 -17 -134 -61 -174 -85 l-40 -25 4
29 c5 36 -20 50 -47 26 -13 -12 -20 -13 -29 -4 -7 7 -12 17 -12 23 0 7 -16 20
-35 31 -19 10 -35 22 -35 26 0 5 -7 8 -15 8 -24 0 -129 45 -155 66 -42 34
-154 148 -180 182 -14 19 -29 39 -35 45 -43 51 -144 225 -145 251 0 5 -6 17
-14 25 -22 26 -56 137 -66 215 -4 39 -11 161 -15 271 -4 110 -9 214 -11 230
-15 108 -24 236 -24 336 0 79 -5 131 -15 160 -20 56 -42 164 -52 259 -8 72 -6
323 2 385 19 133 19 145 -1 145 -15 0 -19 -8 -21 -38 -1 -20 -7 -99 -12 -175
-13 -185 2 -391 36 -517 22 -81 26 -119 28 -255 1 -88 8 -189 15 -225 7 -36
12 -112 12 -170 -1 -158 16 -354 39 -454 19 -85 54 -191 69 -211 4 -5 11 -21
15 -35 4 -14 25 -51 46 -83 22 -32 39 -61 39 -64 0 -20 98 -142 174 -216 102
-99 142 -126 236 -156 92 -30 154 -95 98 -103 -16 -2 -28 5 -40 24 -20 31 -39
35 -58 13 -21 -25 -48 -18 -52 12 -4 38 -26 40 -39 3 -14 -40 -44 -37 -44 4 0
37 -22 45 -34 13 -13 -34 -22 -38 -66 -26 -50 14 -109 62 -140 113 -13 23 -42
59 -65 80 -22 22 -40 44 -40 50 0 5 -11 21 -24 35 -62 66 -146 306 -160 461
-3 36 -15 100 -25 143 -12 52 -15 77 -7 77 6 0 5 4 -3 9 -7 5 -13 25 -13 45 0
20 -5 36 -10 36 -6 0 -6 5 1 14 7 8 8 17 3 20 -5 3 -12 63 -15 133 -3 70 -13
161 -22 202 -10 51 -12 78 -5 85 13 13 13 41 -1 85 -21 65 -28 81 -39 81 -16
0 -11 -66 7 -99 15 -25 16 -32 5 -43 -8 -7 -12 -8 -10 -3 3 11 -13 69 -43 153
-10 30 -19 64 -19 76 0 12 -4 26 -9 31 -4 6 -17 53 -27 105 -16 81 -19 138
-18 390 0 162 4 314 8 338 l8 42 -196 0 -196 0 0 -1462z m2622 1159 c66 -32
80 -44 103 -85 14 -26 30 -65 35 -87 33 -150 32 -139 10 -194 -40 -104 -92
-145 -150 -121 -36 15 -77 61 -86 96 -3 13 -10 24 -14 24 -18 0 -39 33 -54 85
-9 30 -19 60 -22 68 -5 15 35 37 68 37 17 0 19 3 10 12 -9 9 -20 9 -48 -1 -30
-11 -38 -11 -45 0 -15 24 3 102 33 144 27 37 66 68 78 62 3 -1 40 -19 82 -40z
m165 -424 c0 -27 12 -83 27 -126 14 -42 26 -89 26 -104 0 -34 -59 -223 -69
-223 -14 0 -118 154 -160 237 -46 93 -47 95 -26 87 13 -5 14 -2 5 21 -5 14
-10 28 -10 30 0 1 16 -1 36 -5 21 -5 47 -4 61 1 29 11 79 64 96 102 6 15 12
27 13 27 0 0 1 -21 1 -47z m520 -167 c23 -15 48 -41 55 -57 7 -16 21 -32 30
-35 10 -3 18 -10 18 -16 0 -5 29 -42 64 -82 102 -114 161 -225 177 -335 9 -62
-1 -97 -31 -106 -39 -12 -150 6 -171 28 -10 12 -15 23 -10 26 13 9 -6 172 -27
234 -11 29 -31 73 -45 97 -58 99 -58 99 -47 120 6 11 17 20 25 20 8 0 15 5 15
10 0 18 -29 10 -40 -11 -7 -11 -18 -28 -26 -37 -46 -53 -74 -91 -74 -98 0 -11
-31 -44 -42 -44 -5 0 -6 17 -3 38 6 36 6 37 -11 15 -32 -45 -46 -18 -20 40 27
62 58 159 52 164 -3 3 -12 0 -21 -7 -21 -18 -25 -10 -18 32 5 35 7 37 45 36
21 0 42 2 45 6 4 3 9 3 12 -1 3 -5 25 -21 48 -37z m-987 -41 c0 -8 9 -19 20
-25 27 -14 25 -38 -2 -42 -21 -3 -23 -9 -26 -78 -2 -41 -7 -88 -11 -105 -7
-27 -11 -30 -42 -28 -58 5 -63 4 -92 -3 -27 -6 -28 -5 -21 22 4 16 20 41 35
57 16 15 26 34 23 42 -8 19 54 96 73 93 9 -2 18 4 20 12 4 13 3 13 -6 0 -9
-12 -11 -9 -11 16 0 29 15 54 32 54 4 0 8 -7 8 -15z m323 -101 c8 -16 37 -57
63 -91 84 -107 86 -109 80 -91 -3 10 6 41 19 70 14 29 28 68 31 86 8 40 18 41
34 2 13 -32 37 -56 46 -47 4 3 -4 20 -16 36 -29 42 -38 96 -15 104 34 14 53
-8 123 -133 13 -25 33 -54 43 -65 9 -11 20 -32 24 -46 5 -20 11 -25 26 -22 42
11 55 -108 23 -212 l-18 -60 -7 65 c-7 72 -13 92 -41 133 -11 15 -15 27 -9 27
5 0 13 -9 16 -20 3 -11 11 -20 16 -20 16 0 1 39 -36 95 -18 28 -40 68 -49 90
-22 53 -58 105 -73 105 -6 0 -9 -8 -6 -20 3 -11 10 -20 15 -20 11 0 63 -109
55 -116 -3 -3 -15 11 -27 30 -12 20 -26 36 -31 36 -6 0 1 -19 16 -42 40 -67
87 -169 81 -175 -3 -4 -32 -2 -63 4 -48 9 -54 8 -38 -3 10 -8 29 -14 41 -14
13 0 35 -5 51 -12 25 -10 26 -12 8 -16 -11 -2 -28 -10 -38 -17 -17 -12 -16
-14 12 -20 33 -7 52 -25 27 -25 -22 0 -20 -17 2 -24 9 -3 -4 -4 -30 -3 -25 1
-44 0 -42 -2 8 -8 78 -31 99 -32 11 -1 4 -5 -15 -9 -26 -5 -31 -8 -17 -13 55
-22 53 -20 30 -24 -28 -5 -30 -23 -4 -30 10 -3 21 -16 24 -29 4 -21 0 -24 -27
-25 l-31 -1 30 -13 c17 -8 24 -14 18 -15 -27 -1 -11 -18 22 -24 19 -4 35 -12
35 -17 0 -6 7 -17 15 -25 26 -27 17 -31 -42 -22 -113 19 -410 -7 -488 -42 -11
-5 -37 -11 -57 -15 -21 -3 -38 -9 -38 -13 0 -7 -111 -35 -116 -29 -2 1 10 27
26 57 16 30 34 67 40 81 7 16 24 30 43 37 l32 10 -32 1 c-40 1 -42 11 -5 33
23 15 24 18 7 18 -17 1 -16 4 10 25 l30 25 -32 0 c-43 0 -42 16 2 34 19 8 35
16 35 18 0 2 -18 2 -40 0 -37 -4 -40 -2 -37 19 3 14 13 26 26 29 27 6 29 22 5
30 -12 5 -14 9 -6 14 22 14 13 28 -14 22 -25 -7 -26 -6 -19 34 4 23 22 75 41
116 23 50 38 100 45 156 5 46 15 93 21 105 l11 21 22 -22 c13 -13 30 -36 38
-52z m-113 29 c-2 -86 -23 -173 -61 -246 -41 -79 -41 -82 -35 -156 3 -42 8
-91 12 -110 5 -24 3 -32 -5 -27 -8 5 -11 -11 -11 -53 0 -41 -5 -64 -16 -75
-23 -24 -24 -20 -9 32 19 61 19 116 0 132 -13 11 -15 8 -15 -21 0 -48 -11
-109 -20 -109 -4 0 -13 18 -20 39 -16 50 -6 159 20 218 11 24 31 92 45 151 14
59 33 130 41 157 15 46 44 85 65 85 5 0 9 -8 9 -17z m-236 -242 c21 -18 10
-34 -19 -27 -13 3 -27 1 -31 -5 -3 -6 -21 -17 -40 -25 -18 -7 -41 -28 -51 -45
-19 -33 -16 -32 -124 -13 -23 3 -39 2 -43 -5 -4 -6 0 -11 10 -11 14 0 15 -9 9
-72 -3 -40 -7 -97 -8 -126 -2 -47 -5 -54 -35 -72 -18 -11 -37 -20 -42 -20 -5
0 -21 23 -36 51 -28 57 -28 69 1 184 40 157 56 180 133 196 61 12 257 5 276
-10z m1249 -319 c20 -17 23 -62 5 -63 -7 0 4 -7 26 -16 37 -15 38 -17 33 -55
-3 -22 -7 -41 -9 -43 -1 -2 -36 4 -77 13 -59 14 -75 22 -82 40 -7 19 -5 22 16
22 14 0 25 5 25 10 0 6 -19 10 -42 11 -33 0 -38 2 -23 9 11 5 34 9 50 10 22 2
24 4 10 7 -32 8 -38 19 -31 56 7 35 7 35 44 25 20 -5 45 -17 55 -26z m147
-257 c0 -22 -5 -56 -10 -75 -6 -19 -11 -61 -12 -93 -2 -44 -5 -56 -16 -52 -7
3 -19 5 -26 5 -7 0 -19 11 -26 25 -7 14 -20 25 -27 25 -8 0 -12 4 -8 9 3 6 2
34 -3 64 -5 29 -7 70 -4 90 3 30 8 36 31 39 22 3 27 10 35 46 l9 43 28 -43
c20 -29 29 -56 29 -83z m113 14 c52 -13 58 -20 88 -106 l19 -55 -25 16 c-34
22 -32 9 4 -29 l30 -30 -45 -47 c-25 -27 -47 -48 -48 -48 -2 0 -15 24 -29 53
-25 53 -52 85 -63 74 -9 -8 31 -127 71 -212 18 -38 36 -81 40 -95 4 -14 18
-47 32 -73 34 -67 45 -100 33 -92 -6 4 -10 -14 -10 -47 0 -107 -23 -129 -76
-72 -19 19 -34 40 -34 46 0 6 -11 25 -24 42 -13 17 -27 46 -31 65 -4 18 -16
53 -27 78 -20 45 -20 45 0 91 11 26 23 67 26 92 10 73 -25 98 -39 27 -12 -57
-16 -67 -31 -67 -8 0 -17 13 -21 30 -3 17 -10 33 -14 36 -5 3 -9 16 -9 29 0
22 3 24 32 18 43 -9 60 15 46 65 -6 22 -8 68 -4 112 9 90 9 105 1 150 l-6 35
33 -37 c24 -27 47 -41 81 -49z m-815 -16 c17 -17 15 -23 -10 -23 -36 0 -14
-10 53 -25 37 -7 52 -14 36 -14 -31 -1 -28 -21 4 -21 10 0 19 -7 19 -15 0 -11
-8 -13 -32 -9 l-33 5 23 -19 c25 -23 29 -34 8 -26 -40 16 -145 -86 -166 -161
-20 -70 -7 -176 34 -281 45 -119 61 -208 46 -262 -11 -41 -11 -42 -35 -26 -32
21 -49 49 -71 117 -13 41 -22 56 -32 52 -7 -3 -18 -5 -23 -5 -5 0 -9 -31 -9
-68 0 -38 -5 -94 -11 -125 -12 -57 0 -117 22 -117 5 0 9 -3 9 -7 0 -15 -135 1
-144 16 -8 13 -10 286 -3 307 5 15 0 28 -19 49 -20 22 -24 34 -20 64 3 20 8
77 11 126 9 126 19 158 72 218 50 56 86 81 172 123 42 19 51 28 40 35 -12 8
-12 10 1 19 11 7 7 10 -18 10 -19 0 -46 8 -60 19 -15 10 -37 22 -50 26 -19 5
-21 9 -11 21 15 18 177 16 197 -3z m-450 -39 c12 -8 22 -21 22 -29 0 -8 10
-30 21 -50 18 -29 20 -45 15 -90 -3 -30 -9 -80 -12 -110 -4 -30 -10 -55 -15
-55 -12 0 -11 -26 1 -48 26 -45 38 -104 29 -137 -13 -46 -60 -98 -82 -89 -9 3
-17 9 -17 13 0 3 -11 19 -24 36 -32 39 -48 25 -72 -61 -12 -47 -20 -61 -26
-50 -10 18 7 96 34 149 23 47 18 72 -7 34 -18 -28 -27 -60 -47 -180 -10 -60
-3 -217 13 -287 4 -16 -16 -18 -66 -5 l-30 8 34 -33 c18 -18 48 -36 67 -42 39
-10 42 -18 14 -43 -19 -17 -23 -17 -90 -1 -84 21 -144 46 -184 79 -26 21 -28
27 -19 53 9 26 14 29 44 26 19 -2 39 -8 44 -13 7 -7 4 -8 -7 -4 -11 5 -18 2
-18 -5 0 -8 8 -10 23 -6 12 3 35 -1 51 -9 34 -18 36 -18 36 -5 0 6 -7 10 -15
10 -8 0 -15 4 -15 9 0 6 -12 16 -27 23 -25 12 -28 19 -26 61 1 27 6 53 11 60
5 7 10 44 11 83 1 38 6 86 11 104 13 45 13 80 0 80 -5 0 -10 -11 -10 -24 0
-14 -4 -28 -10 -31 -6 -4 -10 9 -10 32 0 53 10 83 27 83 10 0 12 -7 8 -22 -5
-18 -4 -20 4 -8 6 8 11 25 11 38 0 36 -39 29 -53 -9 l-12 -31 -70 5 c-74 7
-132 22 -153 41 -15 15 -5 75 14 83 18 7 237 -26 249 -38 16 -16 41 -10 52 14
6 12 9 56 7 97 -1 41 2 80 8 87 5 7 6 18 2 24 -4 8 -3 9 4 5 7 -4 12 -17 12
-29 0 -16 3 -18 12 -9 13 13 -4 62 -22 62 -25 0 -7 49 33 87 78 75 165 103
215 67z m1442 -187 c37 -46 80 -123 80 -141 0 -9 -11 -23 -25 -32 -25 -16 -27
-16 -96 32 -98 67 -100 74 -42 129 26 24 50 45 53 45 3 0 16 -15 30 -33z
m-1954 -17 l64 0 0 -39 c0 -22 -4 -43 -10 -46 -5 -3 -10 -19 -10 -36 0 -33
-20 -38 -65 -17 -44 20 -71 -1 -86 -67 -16 -74 -8 -86 72 -105 l64 -15 6 -65
c3 -36 10 -86 14 -112 6 -39 5 -49 -9 -54 -9 -3 -14 -9 -11 -13 2 -4 -14 -15
-36 -25 l-39 -18 -45 29 c-25 15 -45 33 -46 38 -5 46 -20 95 -27 91 -4 -2 -7
19 -8 47 0 29 -5 52 -12 55 -16 5 -15 32 1 33 8 0 8 2 1 5 -25 10 40 174 78
198 23 14 23 26 1 27 -11 0 -13 3 -5 6 6 2 12 18 12 34 0 34 21 81 28 61 2 -8
25 -12 68 -12z m1910 -171 c12 -11 39 -27 61 -34 21 -7 43 -23 49 -35 17 -32
28 -180 15 -193 -8 -8 -11 -6 -11 6 0 9 -5 17 -11 17 -7 0 -9 -9 -4 -22 27
-91 27 -108 -4 -108 -16 0 -41 37 -41 61 0 11 -24 66 -84 189 -60 126 -59 120
-33 130 33 13 39 12 63 -11z m-606 -118 c11 -21 4 -51 -11 -51 -6 0 -5 -9 1
-20 8 -15 19 -19 42 -17 40 3 47 -19 18 -51 -25 -26 -42 -28 -39 -4 3 29 -1
38 -10 23 -6 -9 -18 -11 -34 -7 -20 5 -24 11 -20 28 4 20 2 19 -12 -4 -18 -33
-34 -35 -65 -10 -17 13 -21 24 -16 40 7 21 13 23 63 26 40 2 29 21 -13 24 -27
2 -45 -2 -54 -13 -13 -16 -37 -19 -64 -9 -21 8 -20 24 2 24 9 0 42 9 72 20 74
25 126 26 140 1z m-160 -123 c11 -14 31 -20 74 -23 35 -2 64 -9 73 -18 14 -14
12 -17 -22 -31 -21 -9 -60 -16 -87 -16 -45 0 -53 -4 -102 -50 -29 -27 -56 -50
-59 -50 -3 0 -3 30 -1 68 3 37 5 86 5 109 l-1 42 52 -6 c34 -4 58 -13 68 -25z
m-1341 -182 c36 -52 88 -76 165 -76 l54 0 -37 -39 c-20 -21 -45 -57 -55 -79
l-19 -42 -25 25 c-22 23 -33 25 -107 25 -70 0 -89 -4 -128 -26 -50 -27 -94
-77 -122 -137 -11 -24 -21 -35 -27 -29 -6 6 -5 18 2 32 10 18 9 21 -2 18 -7
-3 -13 -10 -13 -15 0 -22 -14 -25 -66 -14 -36 8 -55 8 -64 1 -9 -7 -21 -7 -40
0 -15 6 -36 8 -45 5 -15 -5 -17 -2 -13 15 3 11 0 20 -6 20 -6 0 -11 -8 -11
-17 -1 -16 -2 -16 -15 1 -12 16 -15 17 -15 4 0 -19 -28 -32 -44 -19 -12 9 -91
7 -128 -4 -29 -9 190 129 351 220 20 12 54 32 76 46 22 14 55 34 74 45 19 10
57 34 85 52 39 24 61 32 98 32 44 0 49 -3 77 -44z m1722 -171 c16 -9 41 -14
55 -13 24 3 27 -2 44 -62 9 -36 40 -141 67 -235 46 -158 54 -200 34 -166 -7
11 -11 10 -19 -5 -13 -23 -65 -24 -111 -1 -18 9 -37 14 -42 11 -5 -3 -11 1
-13 8 -3 7 -16 52 -31 101 -19 63 -33 92 -50 103 -18 12 -26 29 -32 72 -4 31
-7 65 -5 76 2 17 63 126 70 126 2 0 16 -7 33 -15z m-1691 -49 c0 -2 -15 -19
-33 -37 -18 -19 -39 -45 -48 -58 -13 -21 -25 -25 -80 -28 -77 -5 -95 4 -79 38
14 32 65 66 115 78 41 9 125 14 125 7z m304 -25 c28 -15 68 -31 88 -35 21 -4
40 -11 43 -16 3 -5 -12 -40 -34 -78 -23 -37 -41 -74 -41 -81 0 -7 -16 -65 -36
-128 -24 -79 -33 -123 -29 -143 l7 -30 -50 0 c-37 0 -52 4 -56 16 -5 13 -14
15 -41 10 -40 -8 -41 -5 -20 54 8 23 15 53 15 65 0 12 11 42 24 67 13 25 27
65 30 89 19 125 40 239 44 239 3 0 28 -13 56 -29z m611 4 c86 -12 155 -14 183
-6 17 5 32 7 33 3 0 -4 2 -15 4 -24 5 -26 -12 -32 -85 -35 -36 -1 -96 -5 -133
-8 -102 -10 -117 -4 -117 47 l0 41 48 -8 c26 -4 56 -8 67 -10z m434 -89 c8 8
31 -19 31 -36 0 -10 14 -30 31 -44 31 -27 30 -28 -26 -28 -69 0 -77 2 -71 17
6 18 -5 20 -21 4 -9 -9 -20 -9 -40 -1 -15 6 -54 18 -85 28 -49 14 -58 20 -58
40 0 15 9 27 28 36 23 12 41 11 117 -3 50 -9 92 -15 94 -13z m-253 0 c3 -8 -4
-45 -16 -83 -19 -58 -22 -90 -22 -223 1 -154 1 -155 -25 -182 -34 -35 -98 -39
-131 -8 -27 25 -41 25 -39 1 1 -14 13 -23 44 -30 72 -19 103 -14 135 20 16 17
32 28 35 26 2 -3 7 -23 10 -46 5 -37 3 -41 -28 -60 -18 -11 -55 -25 -81 -30
-40 -9 -57 -8 -100 8 -51 19 -107 30 -155 31 -14 0 -23 6 -23 15 0 21 46 48
82 47 23 -1 28 2 19 11 -8 8 -2 20 24 47 54 55 77 133 79 265 0 61 -3 127 -7
148 -8 36 -7 37 20 38 15 0 37 4 48 9 34 15 125 12 131 -4z m498 -117 c34 -16
37 -28 16 -80 -10 -24 -21 -53 -25 -64 -6 -18 -14 -12 -66 45 -55 60 -69 87
-52 103 11 11 100 8 127 -4z m-1447 -327 c-14 -17 -1 -28 17 -13 11 10 20 10
36 1 12 -7 34 -10 48 -7 14 3 37 1 50 -4 21 -8 24 -14 18 -41 -3 -17 -8 -33
-10 -36 -2 -2 -26 8 -52 22 -40 21 -63 26 -123 26 -81 0 -80 -1 -52 74 10 24
10 24 44 8 26 -13 32 -20 24 -30z"/>
<path d="M4404 2517 c-16 -43 12 -266 37 -292 17 -17 9 -59 -21 -120 -16 -33
-30 -71 -30 -85 0 -14 -8 -61 -17 -105 -24 -110 -24 -288 0 -334 9 -19 17 -42
17 -52 0 -13 10 -18 45 -21 25 -2 49 0 53 3 13 12 140 20 147 9 11 -17 -43
-30 -130 -30 -89 0 -115 -5 -115 -24 0 -11 62 -56 77 -56 9 0 73 -43 116 -76
27 -22 36 -44 17 -44 -13 0 -50 37 -50 50 0 5 -3 10 -7 9 -18 -3 -52 14 -57
27 -3 8 -10 14 -16 14 -6 0 -28 11 -50 25 -22 14 -46 25 -54 25 -7 0 -17 11
-20 25 -4 14 -14 25 -24 25 -13 1 -11 4 8 15 14 8 19 14 11 15 -8 0 -28 10
-45 23 -48 36 -65 42 -28 9 17 -15 32 -34 32 -40 0 -15 -13 -15 -28 0 -9 9
-12 9 -12 0 0 -7 5 -12 11 -12 5 0 7 -4 4 -10 -3 -5 1 -10 9 -10 9 0 24 -8 34
-17 9 -10 30 -26 45 -36 16 -10 31 -26 34 -35 4 -9 19 -34 34 -55 19 -26 31
-60 39 -110 6 -40 15 -91 20 -115 6 -23 10 -89 10 -146 0 -117 9 -134 78 -145
37 -6 37 -7 65 -96 15 -50 33 -103 38 -120 6 -16 29 -88 50 -160 35 -113 39
-138 33 -191 -5 -56 -4 -63 19 -88 25 -27 99 -56 142 -56 29 0 95 60 95 87 0
11 -21 49 -46 83 -48 66 -74 125 -74 169 0 14 -11 47 -25 73 -14 26 -25 51
-25 56 0 5 11 21 25 36 31 33 32 77 5 134 -21 42 -25 86 -14 141 5 23 16 36
41 47 18 9 40 25 47 35 12 18 16 16 59 -25 25 -25 56 -46 69 -48 14 -2 29 -16
40 -36 27 -55 44 -68 93 -71 37 -1 50 3 70 23 28 28 30 53 10 111 -19 51 -18
55 1 55 25 0 74 56 74 84 0 27 -37 106 -49 106 -4 0 -17 18 -30 40 -19 35 -21
48 -15 114 4 50 3 80 -4 89 -6 7 -14 38 -17 69 -7 73 -16 97 -55 142 -22 24
-47 40 -76 47 l-44 11 0 48 c0 66 -28 147 -60 174 -40 33 -56 63 -75 136 -20
81 -54 132 -112 166 -59 34 -92 44 -183 54 -41 4 -76 13 -78 19 -2 6 -10 18
-18 25 -7 8 -18 35 -24 62 -6 26 -17 59 -24 73 -7 14 -19 40 -27 56 -16 34
-65 48 -75 22z"/>
</g>
</svg>
