<?xml version="1.0" standalone="no"?>
<!DOCTYPE svg PUBLIC "-//W3C//DTD SVG 20010904//EN"
 "http://www.w3.org/TR/2001/REC-SVG-20010904/DTD/svg10.dtd">
<svg version="1.0" xmlns="http://www.w3.org/2000/svg"
 width="554.000000pt" height="414.000000pt" viewBox="0 0 554.000000 414.000000"
 preserveAspectRatio="xMidYMid meet">
<metadata>
Created by potrace 1.16, written by Peter Selinger 2001-2019
</metadata>
<g transform="translate(0.000000,414.000000) scale(0.100000,-0.100000)"
fill="#000000" stroke="none">
<path d="M1578 4102 c-21 -2 -30 -11 -38 -38 l-12 -35 -56 3 -57 3 3 33 3 32
-229 0 -229 0 -29 -42 c-15 -24 -36 -51 -46 -61 -10 -10 -18 -24 -18 -32 0 -8
-5 -15 -11 -15 -6 0 -21 -8 -32 -17 -17 -14 -22 -27 -20 -57 2 -33 -4 -46 -33
-79 -32 -35 -36 -44 -31 -78 7 -50 -1 -79 -19 -72 -8 3 -17 -2 -20 -12 -4 -9
-12 -14 -19 -11 -8 3 -16 -3 -20 -12 -5 -14 -7 -14 -15 -2 -5 8 -7 17 -4 21 2
4 -12 2 -31 -4 -25 -7 -42 -7 -60 1 -17 8 -26 8 -31 1 -3 -6 -17 -9 -30 -6
-13 2 -21 1 -19 -4 3 -4 1 -10 -4 -13 -5 -3 -12 -21 -15 -39 -6 -30 -9 -33
-36 -29 -33 5 -54 -23 -29 -39 10 -6 11 -11 2 -20 -15 -15 -36 -2 -29 18 4 10
0 13 -11 11 -10 -2 -22 -16 -28 -32 -8 -23 -6 -31 11 -45 23 -19 38 -51 23
-51 -6 0 -10 -12 -9 -27 1 -16 1 -32 0 -38 -4 -20 2 -60 12 -72 7 -9 7 -13 -1
-13 -6 0 -11 -13 -11 -30 0 -16 5 -30 10 -30 6 0 10 -9 10 -19 0 -10 7 -22 16
-25 8 -3 12 -10 9 -16 -3 -6 -4 -18 -1 -28 5 -14 14 -17 36 -14 33 5 55 -8 63
-38 4 -16 0 -19 -34 -17 -21 1 -39 4 -39 7 0 11 -44 6 -58 -7 -18 -17 -15 -70
5 -81 9 -6 14 -16 10 -25 -14 -37 52 -45 79 -10 13 17 15 17 37 -8 12 -14 31
-32 42 -38 l20 -13 -20 7 c-11 4 -24 7 -30 8 -15 3 -18 -45 -4 -54 27 -16 -22
-22 -76 -9 -47 11 -81 11 -165 -3 -9 -2 -20 -6 -25 -9 -6 -3 -41 -9 -79 -13
-78 -8 -122 -19 -118 -28 3 -10 3 -10 95 -2 45 4 116 15 157 25 71 18 77 18
132 2 32 -9 58 -21 58 -25 0 -5 -9 -20 -20 -34 -15 -19 -17 -30 -9 -44 12 -23
18 -23 43 -4 23 17 36 11 36 -16 0 -13 -11 -25 -30 -33 -30 -12 -30 -12 -10
-31 74 -67 191 -316 295 -630 30 -88 54 -149 54 -135 1 41 -35 159 -102 332
-35 90 -71 184 -81 209 -9 26 -46 90 -81 143 -61 90 -64 96 -45 106 11 6 23
23 26 37 7 26 7 26 15 5 5 -12 16 -22 25 -22 10 0 26 -8 36 -17 14 -13 21 -14
30 -5 9 9 17 7 35 -10 23 -21 25 -21 56 -6 75 36 86 39 96 19 11 -19 9 -59 -2
-78 -4 -6 8 -21 27 -34 l33 -22 -23 -35 c-27 -39 -28 -46 -14 -73 19 -34 90
-20 90 18 0 11 -4 11 -20 1 -24 -15 -37 -4 -20 17 14 17 50 21 50 5 0 -20 16
-9 26 18 8 20 18 28 38 30 37 3 46 9 46 33 0 10 7 19 15 19 8 0 20 9 27 20 15
23 33 27 24 5 -7 -19 31 -45 66 -45 22 0 29 6 34 28 4 15 15 37 24 48 l16 22
39 -24 c43 -26 64 -56 65 -94 0 -14 16 -48 36 -75 28 -40 35 -58 33 -90 -3
-47 20 -132 36 -139 19 -7 31 6 65 74 34 68 125 190 141 190 6 0 -1 15 -15 33
l-25 33 40 67 c40 67 72 87 85 52 4 -8 13 -15 22 -15 12 0 11 5 -7 23 -18 21
-20 26 -7 36 11 9 17 8 29 -4 9 -8 20 -15 26 -15 6 0 11 -4 11 -9 0 -5 9 -13
20 -16 11 -3 20 -10 20 -15 0 -16 -41 -22 -57 -8 -15 11 -16 10 -11 -9 5 -18
-1 -28 -23 -44 -16 -11 -36 -34 -44 -50 -15 -28 -14 -30 26 -70 42 -42 78
-119 114 -243 l16 -54 -29 -43 c-16 -24 -37 -64 -46 -89 -9 -25 -43 -83 -75
-130 l-58 -85 -125 0 c-114 0 -164 -7 -127 -19 8 -2 23 -7 34 -11 37 -14 167
-6 204 13 43 20 107 103 155 198 58 115 59 116 79 47 26 -95 36 -218 41 -530
5 -287 5 -293 -18 -360 -39 -112 -44 -119 -105 -146 -52 -23 -66 -25 -181 -22
-69 2 -143 6 -165 10 l-40 6 49 -25 c101 -51 172 -150 182 -254 7 -74 -2 -105
-34 -124 -43 -26 -60 -9 -54 53 8 82 -22 162 -82 218 -52 49 -108 104 -134
134 -23 25 -102 23 -155 -5 -38 -21 -56 -23 -182 -23 -91 0 -147 4 -161 12
-12 7 -36 15 -55 18 -40 7 -108 27 -204 62 -58 21 -80 36 -128 87 -32 33 -61
72 -64 86 -3 14 -12 34 -19 45 -33 53 -55 165 -55 288 -1 67 0 124 1 127 1 3
3 19 4 35 4 42 40 111 88 168 43 52 66 126 35 114 -11 -4 -17 -1 -17 8 0 8 6
15 13 15 23 0 47 56 47 110 0 90 -35 189 -94 265 -29 37 -66 84 -146 189 -19
25 -41 48 -49 51 -8 3 -2 -9 12 -27 15 -18 40 -57 57 -87 18 -29 56 -83 85
-118 55 -67 117 -204 96 -211 -6 -2 -11 -16 -12 -30 l-1 -27 -7 26 c-13 40
-30 69 -88 146 -51 69 -88 101 -100 89 -3 -3 2 -8 11 -12 16 -6 39 -38 119
-160 33 -50 46 -150 28 -224 -6 -27 -6 -49 -1 -54 5 -5 -3 -27 -21 -53 -82
-119 -119 -246 -119 -414 0 -102 -18 -262 -41 -363 l-12 -49 -13 31 c-7 18
-28 41 -46 52 -44 27 -59 25 -27 -3 38 -33 81 -96 74 -108 -4 -5 -19 9 -34 33
-38 60 -56 72 -108 72 -59 1 -65 -17 -11 -31 32 -9 52 -23 75 -54 18 -23 30
-45 27 -48 -3 -3 -14 5 -25 19 -11 14 -27 35 -37 48 -21 27 -79 34 -93 11 -17
-27 -10 -39 25 -39 43 0 55 -15 14 -16 -29 -1 -52 -20 -42 -35 2 -4 21 -5 40
-2 27 5 39 2 45 -10 6 -9 17 -13 29 -10 25 7 25 1 -3 -50 -13 -23 -28 -55 -34
-72 -6 -16 -14 -38 -18 -47 -5 -13 -2 -18 9 -18 20 0 63 86 72 142 8 46 56 74
99 58 14 -5 47 -10 73 -10 26 0 74 -7 107 -14 110 -26 278 -40 505 -40 223 -1
225 -1 280 25 84 40 118 32 198 -47 61 -59 66 -67 83 -141 20 -82 23 -133 12
-196 -5 -35 -8 -38 -35 -35 l-30 3 -2 90 c-2 50 -9 104 -16 120 -7 17 -19 45
-27 63 -8 19 -17 31 -20 29 -2 -3 0 -14 5 -24 11 -21 37 -124 34 -135 -1 -4
-2 -38 -3 -76 l-1 -69 -82 -9 c-44 -4 -103 -9 -129 -10 -26 -1 -51 -4 -54 -8
-11 -10 -25 -7 -17 5 7 12 -127 5 -224 -11 -28 -5 -59 -7 -67 -4 -8 4 -15 1
-15 -5 0 -6 -12 -11 -27 -11 -16 -1 -75 -10 -133 -21 -58 -11 -123 -21 -146
-23 -22 -2 -50 -9 -62 -15 -11 -6 -36 -11 -54 -11 -19 0 -38 -4 -44 -9 -21
-22 -130 -29 -232 -17 -98 12 -101 11 -107 -9 -4 -11 -9 -93 -11 -183 l-3
-162 840 0 c462 0 838 3 835 8 -2 4 -83 70 -180 147 -96 77 -176 143 -176 147
0 9 569 192 576 185 2 -2 -93 -54 -211 -116 -118 -62 -215 -114 -215 -116 0
-2 123 -70 370 -203 36 -19 70 -39 77 -44 7 -6 18 -8 24 -6 6 2 -42 33 -107
68 -124 67 -327 179 -332 185 -4 3 533 277 554 283 6 2 20 -19 31 -45 27 -63
119 -211 164 -265 40 -48 122 -94 184 -103 36 -6 49 -1 127 47 151 92 165 110
188 250 10 63 16 78 30 78 10 0 118 -23 241 -50 153 -34 248 -61 299 -85 89
-40 198 -79 289 -101 36 -9 70 -19 74 -21 4 -3 -19 -56 -53 -120 -33 -63 -60
-117 -60 -119 0 -2 242 -4 538 -3 295 0 530 3 522 6 -8 3 -50 31 -95 61 -111
75 -221 139 -350 204 -60 30 -148 75 -195 100 -47 25 -142 74 -210 108 -69 35
-127 66 -130 70 -3 4 -18 10 -34 14 -17 4 -42 16 -56 26 -14 10 -44 20 -66 22
-39 3 -39 3 20 17 33 7 76 11 95 8 56 -8 738 -276 921 -362 91 -43 242 -113
335 -157 94 -43 188 -88 211 -100 23 -11 49 -18 59 -17 22 5 -86 60 -470 237
-71 33 -164 76 -206 95 -42 20 -231 98 -420 173 -189 75 -351 140 -359 146
-31 19 38 -5 250 -89 394 -155 629 -255 860 -366 177 -85 300 -139 400 -176
44 -17 78 -21 178 -21 l122 0 0 56 c0 56 0 56 -27 50 -16 -3 -39 -8 -53 -11
-16 -3 -10 2 15 14 l40 20 -28 10 c-15 6 -27 15 -27 21 0 6 18 1 40 -10 l40
-20 0 114 c0 106 -2 115 -20 121 -11 3 -20 11 -20 16 0 6 9 7 20 4 16 -5 20
-2 20 19 0 20 -8 29 -32 39 -18 8 -39 21 -47 30 -9 11 -29 17 -57 17 -31 0
-49 6 -63 22 -16 17 -23 19 -34 9 -17 -13 -62 0 -69 21 -3 8 -24 13 -58 14
-42 1 -56 5 -69 23 -13 17 -23 20 -48 15 -23 -4 -36 -1 -50 12 -11 12 -33 19
-56 20 -21 0 -42 6 -47 14 -4 7 -15 10 -25 6 -18 -7 -56 10 -68 31 -6 9 -13
10 -26 3 -14 -7 -24 -4 -40 11 -14 13 -30 19 -43 16 -25 -7 -68 12 -68 30 0
16 -5 16 -31 3 -13 -7 -19 -7 -19 0 0 5 -7 10 -15 10 -7 0 -18 8 -24 18 -8 14
-13 15 -29 6 -15 -10 -21 -8 -37 16 -10 15 -24 26 -30 24 -6 -3 -27 2 -46 11
-19 9 -24 14 -12 12 14 -3 20 -1 17 8 -9 22 -53 35 -117 34 -34 -1 -87 6 -116
15 -29 9 -57 13 -62 11 -4 -3 -10 -1 -14 5 -4 7 -12 7 -25 0 -13 -7 -21 -6
-29 4 -24 29 59 35 161 12 35 -8 104 -20 153 -26 104 -13 210 -46 310 -95 113
-55 180 -83 237 -99 29 -8 106 -33 172 -55 65 -23 125 -41 133 -41 11 0 257
-77 311 -97 9 -4 12 31 12 156 l0 161 -47 0 c-27 1 -224 0 -440 0 -366 -1
-392 1 -402 17 -5 10 -11 16 -13 14 -2 -2 -13 -1 -26 3 -22 7 -21 9 18 28 30
15 46 32 62 66 30 66 33 108 17 245 -8 67 -13 128 -13 134 1 7 -2 11 -6 8 -5
-3 -11 9 -15 27 -8 37 -85 115 -122 124 -21 6 -23 12 -23 74 0 62 -2 69 -26
85 -46 30 -161 48 -309 48 -153 1 -255 -14 -305 -44 l-31 -20 1 -177 c4 -400
0 -533 -12 -536 -44 -12 -194 -36 -253 -42 -38 -3 -82 -9 -97 -14 -15 -5 -30
-5 -32 -1 -7 10 -129 -4 -206 -25 -47 -12 -120 -18 -262 -21 l-198 -4 -1 28
c0 15 -2 35 -4 43 -1 8 -8 42 -15 75 -6 33 -13 71 -16 84 -3 13 -9 31 -13 40
-5 9 -12 34 -15 56 -12 71 -27 121 -60 197 -9 20 -16 43 -16 51 0 8 -7 20 -15
27 -8 7 -17 27 -21 46 -3 19 -10 34 -14 34 -5 0 -12 10 -16 22 -3 12 -15 30
-25 41 -10 11 -16 24 -13 29 3 4 1 8 -4 8 -8 0 -73 123 -107 202 -8 20 -15 49
-15 65 0 17 -9 56 -19 88 -11 33 -17 63 -15 67 3 4 1 8 -4 8 -5 0 -12 26 -15
58 -2 32 -9 67 -15 78 -17 30 -42 103 -42 120 0 19 55 70 98 91 45 22 110 98
118 140 10 52 -14 123 -58 166 -40 40 -71 47 -104 22 -28 -21 -34 -18 -34 15
0 19 7 33 20 40 23 12 40 82 21 88 -8 3 -5 12 10 28 23 24 29 61 17 104 -6 22
-2 28 27 44 52 28 60 60 35 137 -12 35 -35 92 -52 127 -16 36 -31 84 -34 108
-3 38 -1 43 18 46 12 2 23 9 26 17 3 8 0 11 -5 8 -5 -3 -15 -2 -22 3 -11 6
-11 13 2 36 8 16 24 47 36 68 11 22 17 42 12 45 -10 7 -27 65 -37 126 -3 22
-9 47 -14 55 -4 8 -11 33 -14 55 -8 43 -74 185 -104 224 -10 13 -26 22 -36 20
-14 -3 -11 -13 20 -59 51 -76 72 -127 105 -249 16 -58 36 -123 46 -145 16 -36
16 -40 -1 -70 -45 -77 -61 -114 -67 -156 l-6 -45 -2 45 c0 25 6 67 14 94 8 27
14 50 13 51 -11 9 -130 48 -156 52 -32 5 -32 6 -16 24 9 11 13 19 7 19 -7 0
-7 20 -1 58 11 68 11 66 -42 212 -23 63 -44 123 -47 132 -3 9 -12 20 -21 23
-26 11 -430 24 -494 17z m-42 -191 c-9 -10 -16 -24 -16 -32 0 -8 -11 -59 -25
-114 -18 -71 -27 -142 -31 -245 -4 -80 -9 -150 -13 -157 -3 -6 -7 37 -8 97 -4
159 -22 228 -84 315 -28 39 -28 42 -16 90 l12 50 85 9 c60 6 88 14 95 25 8 14
10 14 13 -2 2 -10 -3 -26 -12 -36z m62 -245 c23 -24 56 -73 74 -108 31 -61 32
-67 31 -175 -1 -65 -7 -121 -14 -134 -13 -25 -10 -29 -45 64 -3 9 -10 17 -15
17 -5 0 -9 28 -10 63 l-1 62 -13 -50 c-7 -27 -13 -43 -14 -34 0 9 -23 37 -51
63 -49 46 -50 48 -50 104 0 31 3 67 6 80 6 22 8 22 25 6 23 -21 25 -8 4 17
-21 22 -10 69 15 69 10 0 36 -20 58 -44z m620 -416 c13 -27 27 -50 32 -50 19
0 10 -55 -11 -70 -12 -8 -25 -25 -30 -37 -5 -13 -13 -23 -19 -23 -5 0 -11 10
-12 23 0 12 -2 27 -2 32 -1 6 -13 26 -27 45 -28 37 -42 89 -33 115 4 10 19 15
43 15 34 0 38 -3 59 -50z m112 -1146 c0 -41 -3 -46 -30 -55 -16 -6 -30 -15
-30 -19 0 -5 13 -3 30 3 16 6 32 8 36 4 13 -13 -6 -37 -30 -37 -14 0 -27 -4
-31 -9 -3 -6 12 -9 36 -8 48 2 44 8 74 -128 17 -78 53 -154 184 -394 109 -201
201 -590 201 -851 0 -125 -2 -141 -30 -215 -23 -62 -39 -89 -72 -119 -58 -52
-147 -111 -179 -119 -65 -16 -150 44 -236 166 -76 108 -210 374 -228 451 -11
52 -24 489 -26 866 0 107 -20 296 -38 365 l-19 70 102 7 c76 5 119 14 176 37
106 41 110 41 110 -15z m2034 -428 c113 -22 114 -23 115 -106 1 -59 -2 -72
-17 -77 -22 -8 -52 -33 -52 -44 0 -5 16 -15 35 -23 l35 -15 -2 -248 -3 -248
-95 3 c-52 2 -129 12 -172 23 -85 21 -179 25 -210 8 -12 -6 -43 -13 -69 -15
l-49 -3 -2 340 c-1 186 -2 347 -2 356 -2 39 96 60 286 62 74 1 158 -5 202 -13z
m194 -216 c58 -36 106 -166 118 -322 7 -94 -2 -137 -40 -180 -27 -31 -92 -68
-118 -68 -28 0 -21 13 19 35 57 31 83 90 83 188 0 175 -78 337 -162 337 -21 0
-24 16 -5 23 28 12 74 6 105 -13z m2 -191 c38 -147 35 -249 -7 -299 -13 -17
-29 -30 -34 -30 -5 0 -9 95 -9 223 l1 222 19 -36 c11 -21 24 -57 30 -80z
m-992 -546 c46 -24 89 -43 97 -43 8 0 16 -4 19 -8 3 -5 -16 -7 -42 -5 -26 2
-82 -2 -124 -9 -71 -13 -77 -13 -89 4 -7 9 -20 19 -28 21 -11 2 -6 9 17 23 50
29 53 61 8 99 -20 17 -34 34 -31 37 4 3 25 -13 49 -35 23 -23 79 -61 124 -84z"/>
<path d="M5062 3583 c-5 -10 -15 -73 -22 -140 -9 -87 -17 -123 -26 -123 -7 0
-45 13 -85 29 -40 16 -78 27 -85 24 -37 -14 -87 -403 -53 -403 11 0 14 22 14
98 0 66 8 128 24 195 12 53 24 97 25 97 1 0 31 -12 67 -26 79 -32 156 -54 189
-54 20 0 22 2 10 10 -8 5 -26 10 -38 10 -24 0 -24 0 -17 88 4 48 10 107 14
132 l6 45 218 -4 c187 -3 217 -2 217 11 0 18 -117 28 -322 28 -111 0 -128 -2
-136 -17z"/>
<path d="M5216 3359 c-5 -23 -53 -456 -96 -864 -11 -104 -31 -298 -45 -430
-15 -132 -33 -301 -40 -375 -8 -74 -17 -158 -21 -187 -5 -44 -3 -53 14 -62 21
-11 467 -141 485 -141 35 0 -26 23 -158 60 -82 23 -188 54 -235 68 l-85 27 2
35 c2 34 18 189 49 455 8 72 26 236 40 365 14 129 31 294 39 365 20 181 44
408 59 548 7 64 17 122 22 127 8 8 40 8 105 0 52 -5 111 -12 132 -14 31 -3 37
-1 37 15 0 16 -7 19 -43 19 -24 0 -92 3 -150 6 l-106 7 -5 -24z"/>
<path d="M4850 2962 c0 -16 30 -26 98 -33 26 -3 32 -7 30 -24 -3 -17 -13 -21
-63 -26 -46 -5 -36 -7 45 -5 l104 1 7 -40 c4 -22 9 -95 11 -162 l5 -122 -26
-6 c-23 -5 -183 -29 -283 -42 -21 -3 -38 -10 -38 -15 0 -6 17 -8 43 -5 23 4
67 9 98 13 l55 6 -12 -124 c-6 -67 -17 -183 -24 -255 -7 -73 -15 -133 -19
-133 -3 0 -7 -31 -8 -68 -2 -37 -15 -175 -31 -307 -16 -132 -27 -247 -24 -256
3 -13 72 -50 102 -54 3 0 30 -9 60 -20 30 -11 58 -19 62 -20 3 0 10 -3 14 -8
4 -4 22 -7 39 -7 17 0 35 -3 39 -8 4 -4 11 -7 14 -8 4 0 14 -3 22 -6 8 -3 49
-16 90 -29 41 -13 109 -36 150 -52 102 -38 110 -40 110 -17 0 16 -52 36 -327
126 -181 59 -332 111 -337 116 -11 9 8 214 54 608 16 135 36 307 44 383 8 75
17 141 20 146 3 5 33 12 66 16 l60 7 0 79 c0 43 -5 123 -11 179 l-12 100 -33
0 c-24 0 -34 5 -34 15 0 11 12 15 43 15 66 1 25 16 -83 30 -52 7 -100 15 -107
17 -7 3 -13 1 -13 -5z"/>
<path d="M354 2635 c9 -16 48 -68 86 -114 38 -46 74 -100 81 -120 6 -20 21
-52 34 -72 75 -116 104 -210 106 -338 1 -87 17 -43 18 52 1 83 -21 149 -88
267 -27 47 -54 101 -60 121 -7 21 -46 75 -92 125 -103 114 -104 115 -85 79z"/>
<path d="M580 2607 c0 -14 40 -97 47 -97 4 0 17 -19 28 -41 10 -23 26 -44 35
-47 20 -8 39 -33 40 -54 0 -9 14 -28 30 -41 17 -14 30 -29 30 -32 0 -8 57 -84
74 -100 6 -5 20 -27 30 -47 11 -20 30 -41 43 -47 13 -6 20 -16 17 -24 -6 -16
21 -41 35 -33 6 4 15 -3 21 -14 6 -11 17 -20 26 -20 8 0 17 -7 20 -15 4 -8 12
-15 18 -15 7 0 30 -20 52 -45 21 -25 45 -45 52 -45 7 0 15 -6 18 -14 3 -8 11
-13 18 -10 7 3 28 -9 46 -26 37 -34 104 -70 132 -70 10 0 18 -4 18 -10 0 -5 7
-10 16 -10 14 0 14 3 4 15 -7 8 -19 15 -26 15 -8 0 -14 7 -14 15 0 9 -6 15
-12 14 -25 -3 -36 1 -71 30 -27 21 -33 31 -25 39 15 15 4 27 -14 16 -21 -14
-36 -13 -49 2 -6 8 -17 14 -24 14 -6 0 -26 18 -44 40 -17 22 -40 40 -50 40
-10 0 -24 11 -31 25 -7 14 -19 25 -26 25 -7 0 -20 9 -28 21 -8 12 -19 18 -25
14 -6 -3 -11 1 -11 9 0 9 -18 33 -40 55 -22 21 -40 43 -40 47 0 5 -18 29 -40
53 -22 25 -40 48 -40 51 0 4 -18 27 -40 50 -22 23 -40 51 -40 62 0 11 -9 22
-20 25 -11 3 -20 10 -20 15 0 5 -20 36 -45 68 -25 32 -45 63 -45 68 0 5 -7 15
-15 22 -8 7 -15 10 -15 7z"/>
</g>
</svg>
