<?xml version="1.0" standalone="no"?>
<!DOCTYPE svg PUBLIC "-//W3C//DTD SVG 20010904//EN"
 "http://www.w3.org/TR/2001/REC-SVG-20010904/DTD/svg10.dtd">
<svg version="1.0" xmlns="http://www.w3.org/2000/svg"
 width="554.000000pt" height="415.000000pt" viewBox="0 0 554.000000 415.000000"
 preserveAspectRatio="xMidYMid meet">
<metadata>
Created by potrace 1.16, written by Peter Selinger 2001-2019
</metadata>
<g transform="translate(0.000000,415.000000) scale(0.100000,-0.100000)"
fill="#000000" stroke="none">
<path d="M1795 4064 c-16 -9 -50 -32 -76 -49 -33 -24 -53 -31 -72 -28 -37 7
-107 -29 -166 -85 -38 -37 -53 -62 -71 -115 -12 -37 -23 -73 -24 -80 -1 -7 -9
-27 -19 -46 -9 -19 -17 -41 -17 -51 0 -9 -4 -20 -10 -26 -5 -5 -11 -23 -12
-38 -2 -21 -11 -33 -34 -43 -43 -21 -62 -91 -43 -163 12 -47 12 -51 -9 -70
-23 -22 -25 -29 -22 -98 1 -28 -6 -54 -19 -76 -48 -76 -12 -160 82 -192 25 -9
21 -23 -10 -30 -16 -4 -32 -10 -38 -14 -5 -5 -46 -17 -90 -28 -217 -54 -373
-140 -443 -242 -62 -91 -91 -307 -63 -471 6 -30 13 -82 16 -116 4 -34 18 -104
32 -155 13 -51 31 -121 39 -154 28 -125 149 -464 223 -628 17 -38 30 -70 29
-71 -10 -8 -113 -24 -116 -18 -1 4 -13 26 -26 48 -14 22 -43 74 -66 115 -23
41 -45 77 -48 80 -12 9 -52 87 -52 100 0 7 -17 36 -38 64 -46 61 -69 100 -115
188 -47 90 -116 191 -177 258 -27 30 -50 59 -50 64 0 7 -15 28 -60 83 -6 7
-10 17 -10 22 0 20 -83 90 -179 153 -32 20 -41 22 -41 6 1 -12 41 -45 119 -97
43 -28 91 -72 91 -82 0 -4 -8 -10 -17 -12 -15 -4 -15 -5 -2 -6 9 0 45 -43 81
-93 36 -51 75 -102 85 -113 29 -31 99 -141 139 -220 43 -85 47 -92 107 -182
26 -40 50 -81 54 -90 4 -10 21 -40 38 -68 75 -118 201 -350 294 -541 22 -45
54 -104 71 -132 17 -28 51 -101 76 -164 42 -103 46 -120 45 -194 0 -45 -5 -94
-11 -109 -14 -36 -13 -45 5 -45 11 0 15 12 15 50 0 49 15 68 26 33 3 -10 11
-31 18 -48 l13 -29 186 -1 c118 0 187 4 187 10 0 6 -56 59 -125 119 -69 60
-125 112 -125 115 0 4 78 28 173 55 94 26 199 56 232 66 56 17 135 40 335 96
153 43 118 53 379 -108 128 -78 233 -147 234 -153 1 -5 -118 -50 -266 -98
-147 -49 -267 -93 -267 -98 0 -7 21 -8 53 -5 28 3 561 8 1182 12 834 4 1134 9
1144 17 11 9 15 9 18 0 3 -9 29 -13 79 -13 48 0 73 4 69 10 -9 15 4 12 21 -5
14 -13 54 -21 54 -11 0 4 -91 65 -209 140 -24 15 -39 32 -35 36 5 5 47 25 94
45 288 124 458 198 481 210 24 13 36 9 205 -75 98 -49 183 -90 187 -90 4 0 6
174 5 387 l-3 387 -85 28 c-47 16 -105 35 -130 43 -237 75 -369 122 -367 130
2 6 23 21 48 33 159 85 238 127 263 140 16 8 52 20 80 26 48 11 54 10 101 -16
35 -19 53 -24 62 -17 7 6 17 8 23 4 19 -12 10 7 -12 26 l-23 18 23 1 23 0 -5
313 c-3 171 -5 332 -5 357 0 25 2 267 5 539 l4 494 -27 -18 c-40 -25 -73 -65
-79 -94 -8 -40 -35 -100 -55 -123 -22 -25 -45 -103 -54 -183 -8 -71 -49 -193
-82 -242 -13 -18 -23 -47 -23 -62 0 -16 -9 -40 -20 -54 -12 -15 -20 -40 -20
-62 0 -21 -9 -53 -21 -72 -16 -26 -20 -43 -15 -76 3 -23 9 -69 11 -102 3 -33
10 -78 16 -100 5 -22 9 -56 8 -75 -2 -63 8 -156 20 -177 15 -29 14 -58 -3 -72
-8 -7 -18 -26 -21 -43 l-7 -31 -56 7 c-31 4 -61 11 -67 16 -7 6 -15 45 -18 88
-3 42 -9 91 -12 107 -3 17 -8 46 -11 65 -4 19 -6 125 -5 235 l1 200 30 23 c41
32 40 72 -5 146 -19 32 -35 60 -35 63 0 2 -5 9 -10 16 -6 7 -39 48 -74 92
-118 149 -187 202 -281 219 -61 11 -124 45 -139 75 -24 46 -29 111 -28 386 0
148 -3 274 -7 280 -5 5 -11 24 -14 42 -12 63 -51 129 -110 186 -96 93 -119
101 -260 93 -199 -11 -272 -53 -341 -197 -48 -99 -57 -164 -55 -379 1 -209 -2
-246 -32 -325 -38 -96 -49 -115 -70 -115 -11 0 -66 -22 -122 -50 -56 -27 -115
-50 -132 -50 -20 0 -48 -14 -86 -44 -51 -40 -57 -49 -82 -127 -15 -46 -33
-106 -40 -134 -15 -60 -38 -69 -75 -30 -14 15 -41 34 -61 42 -47 20 -266 242
-276 280 -7 31 -32 63 -49 63 -12 0 -16 4 -106 98 -28 28 -57 52 -64 52 -7 0
-19 14 -27 30 -8 17 -36 47 -63 68 -29 21 -53 50 -59 67 -5 17 -16 38 -24 47
-8 9 -16 32 -18 50 -2 18 -7 54 -11 79 -4 33 -2 54 10 78 10 18 16 40 15 49
-1 9 4 31 10 47 26 61 25 128 -3 187 -14 30 -26 59 -26 65 0 43 -167 225 -242
264 -54 28 -202 36 -243 13z m2439 -349 c41 -41 73 -108 97 -198 10 -39 9 -53
-1 -73 -11 -20 -12 -36 -2 -84 13 -59 12 -60 -22 -125 -19 -36 -36 -59 -39
-52 -2 6 -2 -8 0 -33 16 -146 -210 -246 -335 -149 -29 22 -47 16 -62 -21 -20
-47 -9 -93 25 -109 47 -23 197 -18 265 8 71 27 78 27 86 -6 4 -16 11 -34 17
-41 5 -7 7 -15 4 -18 -3 -3 -2 -16 3 -28 5 -13 3 -30 -4 -43 -17 -33 -111
-103 -137 -103 -37 0 -169 33 -169 42 0 4 -12 8 -26 8 -15 0 -23 4 -19 10 4 6
2 9 -3 8 -5 -2 -34 15 -65 37 -58 41 -90 86 -102 143 -5 26 -3 33 12 38 43 14
64 30 84 62 23 41 20 65 -21 158 -34 75 -58 262 -40 310 6 16 17 57 24 91 15
72 39 104 116 155 43 28 75 40 136 51 94 16 133 7 178 -38z m-2288 -35 c7 0
15 -17 20 -37 4 -21 9 -31 11 -21 6 23 35 33 31 10 -4 -24 10 -42 33 -42 11 0
22 -8 26 -17 3 -10 12 -25 20 -34 12 -14 11 -20 -10 -45 -53 -65 -53 -90 3
-119 28 -14 31 -14 47 5 10 11 23 20 30 20 7 0 10 6 7 13 -3 9 6 13 31 13 39
0 39 -1 48 -83 6 -54 -3 -124 -14 -117 -5 3 -6 10 -3 16 5 7 0 9 -14 6 -12 -3
-26 0 -32 7 -6 8 -29 23 -51 34 -38 20 -39 20 -39 2 0 -15 -9 -20 -42 -23 -61
-7 -68 2 -68 93 0 53 -4 82 -14 91 -8 8 -16 23 -18 34 -3 15 -15 21 -63 27
-33 4 -71 5 -84 2 l-24 -6 26 31 c15 17 29 46 33 65 8 47 48 89 77 81 12 -3
27 -6 33 -6z m620 -785 c80 -81 101 -118 88 -157 -6 -19 -7 -19 -24 7 -10 15
-20 26 -24 26 -21 -3 -27 3 -45 44 -11 25 -22 45 -26 45 -3 0 -2 -19 1 -41 4
-24 3 -40 -2 -37 -5 2 -28 13 -51 24 -56 25 -61 42 -18 50 19 3 35 9 35 12 0
16 -35 99 -49 116 -15 18 -15 18 9 6 14 -7 61 -50 106 -95z m1154 20 c0 -68
81 -182 177 -248 63 -43 256 -62 315 -31 88 46 161 156 162 245 1 46 15 64 31
39 3 -5 15 -10 25 -10 30 0 63 -73 57 -124 -3 -23 -8 -50 -12 -61 l-7 -20 17
20 c12 15 15 35 13 80 -2 33 -8 68 -12 78 -11 24 18 23 41 -2 11 -11 40 -21
71 -25 79 -10 112 -30 206 -121 77 -76 105 -112 190 -249 26 -41 36 -67 34
-89 -3 -28 -12 -35 -107 -83 -57 -29 -111 -60 -121 -69 -9 -8 -21 -15 -27 -15
-5 0 -20 -11 -33 -25 -28 -29 -47 -32 -53 -7 -11 49 -18 -306 -8 -394 6 -53 9
-99 6 -102 -3 -3 -52 5 -108 17 -101 23 -105 23 -207 6 -58 -9 -113 -18 -122
-20 -10 -2 -18 1 -18 7 0 5 -7 2 -16 -6 -8 -9 -20 -16 -25 -16 -6 0 -3 7 6 16
9 9 15 20 13 24 -7 17 -92 81 -117 86 -14 4 -58 22 -98 40 -44 20 -88 34 -111
34 -33 0 -106 22 -121 36 -3 3 10 18 28 34 28 26 32 35 29 72 -2 35 -7 44 -25
46 -11 2 -29 -5 -40 -16 -25 -26 -96 -52 -141 -52 -20 0 -52 -9 -70 -20 -18
-11 -37 -20 -42 -20 -5 0 -35 35 -67 78 -31 42 -87 110 -125 149 -37 40 -75
87 -83 105 -32 66 -55 103 -74 118 -18 14 -18 20 -5 105 17 116 31 162 59 200
27 34 114 85 146 85 12 0 39 9 60 20 22 11 58 30 82 42 23 12 62 25 87 29 25
4 63 14 85 23 53 20 55 20 55 -9z m-1460 -119 c21 -4 28 -16 44 -73 11 -37 50
-132 88 -209 62 -129 78 -174 62 -174 -10 0 -83 81 -136 150 -49 64 -79 89
-108 90 -8 0 1 -8 20 -18 19 -9 39 -26 45 -37 6 -11 19 -32 29 -47 27 -41 56
-162 56 -237 0 -50 -5 -72 -21 -96 -20 -29 -69 -65 -89 -65 -4 0 -18 24 -30
52 -19 45 -22 64 -17 129 3 43 1 113 -4 156 -5 43 -12 96 -14 118 -3 22 -11
91 -18 153 -13 112 -13 114 7 122 12 4 30 4 41 -1 11 -4 31 -10 45 -13z m-580
-48 c25 -34 88 -108 141 -163 l97 -100 -38 -43 c-30 -33 -42 -59 -54 -112 -9
-38 -16 -84 -16 -102 0 -45 -10 -79 -21 -72 -14 8 -139 178 -203 276 -31 48
-72 120 -90 160 -33 73 -70 187 -63 194 2 2 27 -6 56 -17 60 -22 78 -20 111
16 13 14 26 25 29 25 3 0 26 -28 51 -62z m280 -320 c11 -12 20 -26 20 -31 0
-4 36 -45 81 -90 88 -89 144 -165 155 -211 l7 -29 -68 7 c-105 11 -153 37
-244 131 -78 81 -80 85 -71 117 19 66 61 128 86 128 7 0 22 -10 34 -22z m3017
-210 c-3 -46 -8 -123 -12 -173 -5 -62 -2 -127 9 -210 9 -65 16 -138 16 -162
l0 -43 -32 7 c-18 3 -40 9 -48 13 -8 4 -40 13 -70 19 -55 11 -55 12 -56 49 -1
20 -5 105 -9 187 -7 129 -5 157 9 200 28 81 81 150 135 174 25 11 50 20 54 21
5 0 6 -37 4 -82z m-1720 5 c59 -66 112 -126 133 -150 5 -7 10 -15 10 -19 0 -3
14 -24 32 -46 33 -42 33 -42 -14 -69 -17 -9 -27 -45 -10 -37 148 71 186 86
232 91 34 4 72 18 103 37 26 16 51 30 53 30 3 0 4 -12 2 -27 -2 -17 -12 -32
-25 -38 -13 -5 -23 -13 -23 -17 0 -5 -5 -8 -11 -8 -14 0 -82 -53 -136 -106
-45 -44 -87 -59 -141 -48 -17 4 -37 13 -43 20 -6 8 -17 14 -24 14 -7 0 -15 7
-19 15 -3 8 -11 15 -19 15 -7 0 -26 14 -43 31 -41 44 -102 83 -226 146 -37 18
-70 38 -73 43 -3 6 -15 10 -27 10 l-20 0 20 31 c34 55 95 119 112 119 9 0 25
7 36 15 36 27 59 18 121 -52z m-566 -82 c12 -20 32 -34 58 -42 23 -7 48 -23
56 -36 10 -14 25 -23 41 -23 27 0 74 -28 111 -67 12 -13 33 -23 47 -23 14 0
36 -10 50 -22 l25 -23 3 -226 3 -225 -110 -23 c-60 -13 -123 -26 -140 -28 -16
-3 -38 -9 -47 -14 -28 -15 -48 -10 -48 10 0 11 -5 23 -10 26 -6 4 -8 11 -5 16
4 5 1 9 -6 9 -7 0 -10 3 -7 6 3 3 -5 33 -19 67 -13 34 -38 98 -53 142 -16 44
-41 109 -55 145 -43 108 -49 147 -26 179 24 34 61 137 61 171 0 15 3 30 6 33
10 10 44 -18 65 -52z m1194 -284 c69 -8 292 -114 274 -131 -2 -2 -40 7 -84 20
-44 12 -107 26 -140 30 -33 4 -63 12 -67 18 -4 6 -10 7 -14 4 -9 -10 61 -78
80 -78 20 0 137 -60 190 -97 50 -35 59 -55 19 -44 -43 13 -183 67 -233 89 -24
12 -48 18 -52 16 -5 -3 -6 -21 -2 -40 5 -27 3 -33 -8 -29 -8 3 -25 2 -37 -3
-26 -9 -110 25 -111 46 0 13 -30 17 -30 4 0 -9 -84 9 -96 21 -14 14 26 57 54
57 39 0 129 48 136 73 4 16 -8 56 -32 99 -1 3 21 -6 50 -21 29 -15 76 -30 103
-34z m-723 8 c20 -14 40 -25 43 -25 4 0 67 -38 94 -57 3 -2 -5 -22 -16 -46
-18 -37 -42 -202 -35 -243 2 -13 -116 -39 -126 -29 -10 10 -15 425 -5 425 5 0
25 -11 45 -25z m2238 -97 c0 -46 29 -132 62 -186 15 -24 17 -37 10 -44 -16
-16 -79 47 -109 110 -16 33 -29 50 -35 44 -6 -6 0 -28 16 -58 23 -45 41 -66
120 -139 34 -32 23 -55 -15 -33 -49 27 -125 97 -144 132 -11 20 -25 36 -32 36
-24 0 34 -98 74 -125 l38 -25 -31 0 c-26 0 -38 9 -70 52 -21 28 -45 53 -51 56
-18 5 -16 -25 2 -32 8 -3 15 -11 15 -18 -1 -14 -60 50 -60 64 0 4 7 8 15 8 9
0 15 9 15 25 0 14 8 29 20 35 11 6 20 17 20 25 0 8 10 20 23 26 31 16 76 61
77 77 0 6 9 12 20 12 17 0 20 -7 20 -42z m-649 -420 c57 -79 132 -181 167
-227 35 -46 60 -87 55 -92 -4 -4 -96 -19 -203 -34 -107 -14 -249 -33 -315 -42
-66 -8 -140 -16 -163 -17 l-44 -1 -45 115 c-25 63 -65 167 -89 230 -25 63 -49
125 -54 137 -11 27 -18 26 250 48 107 9 206 17 220 19 14 2 46 4 71 5 l46 1
104 -142z m-2800 62 c214 -26 290 -40 434 -80 99 -27 179 -78 255 -162 13 -16
29 -28 34 -28 5 0 14 -7 20 -16 16 -21 150 -54 226 -55 19 0 29 -2 22 -5 -6
-3 -10 -10 -7 -14 10 -17 -178 -4 -212 14 -32 16 -33 16 -33 -3 0 -33 66 -51
184 -51 110 0 136 -5 136 -24 0 -8 -12 -11 -32 -8 -18 2 -62 -3 -97 -11 -51
-12 -69 -13 -92 -3 -16 7 -26 16 -22 21 5 4 2 5 -5 1 -7 -4 -31 6 -56 25 -24
17 -50 29 -58 27 -21 -7 40 -56 118 -94 76 -36 123 -74 74 -59 -14 4 -46 20
-72 36 -26 16 -58 31 -72 35 -13 3 -41 23 -63 45 -43 44 -71 53 -52 17 16 -29
45 -53 94 -80 22 -11 50 -29 63 -39 13 -10 36 -21 52 -24 31 -7 74 -51 64 -66
-3 -5 -24 2 -47 14 -23 13 -68 33 -99 45 -31 12 -74 30 -95 42 -21 11 -42 20
-47 20 -5 0 -21 13 -36 29 -16 16 -42 37 -59 47 -17 10 -31 23 -31 29 0 6 -9
17 -20 25 -11 8 -20 26 -20 40 -1 31 -14 54 -62 110 -42 48 -55 32 -14 -17 34
-41 47 -69 40 -87 -9 -23 -17 -20 -32 13 -26 58 -51 66 -212 66 -164 0 -315
-13 -345 -29 -12 -6 -81 -11 -167 -11 l-148 0 0 37 c0 44 43 132 79 162 83 71
96 76 216 76 61 0 150 -5 196 -10z m1181 -175 c18 -8 85 -35 150 -60 64 -24
131 -51 150 -60 18 -8 80 -33 138 -56 328 -129 405 -161 413 -168 8 -8 -101
-48 -338 -125 -60 -20 -186 -61 -278 -91 -92 -30 -175 -55 -184 -55 -17 0
-261 125 -278 142 -7 7 -1 8 20 4 84 -20 87 -20 82 0 -3 11 -9 30 -12 44 -10
36 -33 58 -82 80 -51 23 -55 36 -10 43 122 20 151 42 107 82 -11 10 -20 23
-20 30 0 27 -37 42 -113 49 -79 6 -177 40 -177 61 0 11 322 92 372 94 15 0 42
-6 60 -14z"/>
<path d="M4155 3531 c-93 -34 -91 -31 -74 -80 10 -29 15 -32 39 -28 15 3 33 1
39 -6 10 -9 16 -7 28 10 12 18 19 21 34 12 21 -11 39 -5 39 14 0 13 -67 88
-78 86 -4 -1 -16 -4 -27 -8z"/>
<path d="M3910 3521 c-17 -5 -21 -9 -12 -15 9 -6 6 -13 -13 -28 -24 -18 -37
-67 -14 -53 5 4 20 -5 33 -20 23 -27 24 -27 42 -7 11 10 31 22 45 25 29 7 61
48 51 63 -7 9 -92 45 -102 43 -3 -1 -16 -4 -30 -8z"/>
<path d="M4123 3305 c5 -33 4 -35 -34 -46 -55 -17 -113 -2 -117 29 -5 34 -17
27 -61 -35 -50 -68 -52 -91 -11 -99 17 -4 30 -10 30 -15 0 -5 5 -9 10 -9 6 0
10 9 10 20 0 11 3 20 8 21 41 5 205 2 209 -4 3 -5 11 -6 19 -3 7 3 16 1 19 -4
12 -19 25 -10 25 15 0 35 -25 80 -63 118 -18 17 -31 35 -29 39 1 4 -3 8 -9 8
-8 0 -10 -12 -6 -35z"/>
<path d="M0 3288 c0 -285 3 -518 7 -518 3 0 15 7 25 17 28 25 35 6 8 -22 -27
-29 -19 -46 12 -26 18 11 20 11 15 -1 -3 -8 -1 -21 3 -29 7 -10 11 -7 19 14
14 35 14 57 1 57 -5 0 -10 -5 -10 -12 0 -6 -2 -9 -5 -6 -3 3 0 18 7 32 7 18 8
30 2 34 -14 10 -10 117 6 182 8 30 31 81 52 113 21 32 38 61 38 64 0 10 42 64
47 60 2 -3 -3 -19 -12 -37 -16 -31 -16 -32 3 -26 17 6 20 0 25 -51 2 -32 0
-64 -5 -70 -7 -9 -6 -18 3 -30 10 -11 14 -46 14 -117 0 -94 -3 -108 -38 -196
-21 -52 -46 -115 -55 -138 -10 -26 -33 -57 -57 -75 -75 -61 -107 -96 -103
-118 3 -19 7 -16 43 21 40 42 65 67 98 98 17 16 77 130 81 156 6 31 18 56 28
56 6 0 9 3 6 6 -3 3 3 30 13 59 11 32 19 81 19 119 0 41 5 70 13 77 18 18 9
68 -20 107 -17 22 -23 41 -20 61 3 16 0 50 -5 77 -6 27 -10 70 -9 96 1 26 -3
57 -10 70 -6 12 -15 54 -20 94 -11 97 -17 108 -136 233 l-83 86 0 -517z"/>
</g>
</svg>
