<?xml version="1.0" standalone="no"?>
<!DOCTYPE svg PUBLIC "-//W3C//DTD SVG 20010904//EN"
 "http://www.w3.org/TR/2001/REC-SVG-20010904/DTD/svg10.dtd">
<svg version="1.0" xmlns="http://www.w3.org/2000/svg"
 width="554.000000pt" height="415.000000pt" viewBox="0 0 554.000000 415.000000"
 preserveAspectRatio="xMidYMid meet">
<metadata>
Created by potrace 1.16, written by Peter Selinger 2001-2019
</metadata>
<g transform="translate(0.000000,415.000000) scale(0.100000,-0.100000)"
fill="#000000" stroke="none">
<path d="M1495 4128 c-11 -11 -36 -30 -55 -42 -42 -26 -51 -61 -19 -71 21 -7
21 -8 3 -18 -10 -5 -40 -27 -65 -49 -40 -33 -47 -43 -44 -71 1 -18 -6 -47 -16
-65 -21 -37 -24 -62 -8 -62 8 0 8 -4 1 -13 -14 -17 -24 -147 -13 -161 6 -6 11
-31 13 -55 2 -33 8 -45 20 -47 10 -1 20 6 23 17 10 30 26 22 19 -8 -16 -68
-32 -79 -115 -86 -37 -3 -80 -12 -97 -21 -17 -9 -38 -16 -47 -16 -8 0 -15 -4
-15 -10 0 -5 -11 -12 -25 -16 -14 -3 -22 -10 -19 -15 3 -5 1 -9 -5 -9 -5 0
-16 -6 -23 -13 -7 -7 -53 -21 -103 -31 -49 -10 -112 -22 -140 -28 -27 -5 -59
-11 -70 -13 -11 -2 -38 -10 -60 -18 -39 -15 -119 -40 -140 -43 -5 0 -23 -6
-40 -13 -16 -6 -55 -21 -85 -32 -30 -11 -77 -31 -105 -44 -27 -13 -72 -33
-100 -46 -27 -12 -57 -28 -67 -36 -9 -8 -23 -15 -31 -17 -8 -1 -22 -9 -31 -18
-16 -17 -18 -170 -16 -1476 l0 -104 33 7 c17 3 62 21 99 40 l68 34 66 -16 c64
-16 68 -16 143 6 72 21 200 80 376 173 70 37 88 42 145 43 75 0 198 -44 286
-102 42 -27 54 -41 64 -78 12 -41 11 -62 -5 -126 l-7 -26 79 13 c43 7 123 20
178 29 176 28 371 61 595 100 192 33 169 36 430 -60 419 -155 503 -185 645
-237 77 -29 144 -55 148 -58 4 -4 -20 -14 -55 -23 -35 -8 -133 -33 -218 -55
-85 -22 -339 -86 -565 -143 l-410 -102 -420 246 c-309 180 -420 251 -420 264
0 21 -19 43 -59 68 -25 17 -26 20 -12 30 25 19 19 24 -18 18 -55 -9 -100 5
-145 43 -50 43 -63 40 -24 -6 17 -21 64 -50 130 -81 95 -44 103 -50 103 -76 0
-15 -9 -42 -20 -60 -20 -34 -79 -71 -89 -56 -9 14 -60 47 -121 79 -30 16 -70
39 -89 52 -19 12 -36 20 -39 17 -11 -10 26 -38 122 -93 55 -31 109 -65 118
-74 28 -28 22 -78 -13 -126 -32 -44 -55 -53 -66 -26 -10 26 -193 107 -193 85
0 -5 10 -13 22 -17 64 -20 146 -67 157 -90 17 -39 13 -62 -14 -80 -29 -19 -96
-14 -145 11 -41 21 -116 19 -154 -4 -77 -47 -214 -49 -318 -3 -146 63 -216 82
-309 82 l-79 0 0 -500 0 -500 1467 0 c806 0 1464 2 1461 5 -3 3 -23 7 -44 9
-38 3 -95 12 -141 22 -17 3 -23 11 -23 29 0 19 -5 25 -21 25 -20 0 -21 4 -15
50 5 39 4 50 -7 50 -8 0 -32 14 -53 32 -22 17 -31 28 -20 24 24 -8 45 10 39
33 -3 10 0 22 6 25 6 4 11 20 11 37 0 16 5 29 10 29 6 0 10 7 10 15 0 9 11 20
25 25 15 6 25 17 25 29 0 13 5 18 18 15 24 -7 92 23 92 40 0 9 12 16 28 18 19
2 28 9 30 25 3 17 21 31 71 55 37 18 66 38 64 43 -5 15 81 57 101 49 12 -5 17
-2 15 7 -4 22 12 79 22 79 5 0 9 12 9 26 0 14 4 23 10 19 6 -3 10 -2 10 2 0
11 57 40 95 49 34 8 94 33 179 75 33 16 66 29 74 29 24 0 82 31 82 44 0 7 12
22 26 35 50 43 25 70 -111 117 -12 4 12 10 65 15 103 11 172 33 207 65 14 13
28 22 31 20 6 -7 21 10 65 76 22 32 48 60 58 63 10 4 54 6 97 6 151 -2 194 -1
204 5 4 3 8 14 8 25 0 12 7 19 20 19 11 0 20 6 20 14 0 7 6 19 14 25 7 6 17
34 20 62 6 42 4 53 -11 65 -13 11 -14 14 -3 12 8 -2 14 3 13 10 -4 15 30 16
77 1 19 -5 60 -14 90 -19 63 -10 318 -64 525 -110 77 -17 159 -33 183 -35 24
-3 47 -7 52 -10 4 -3 50 -14 102 -25 51 -11 104 -23 116 -26 21 -6 23 -4 20
17 -3 26 -16 30 -158 54 -47 8 -105 19 -130 24 -77 19 -243 53 -295 61 -27 5
-93 18 -145 30 -103 24 -166 37 -219 45 -19 3 -38 8 -43 11 -4 3 -21 7 -36 10
-15 2 -43 7 -62 11 -19 4 -39 8 -45 9 -5 1 -12 3 -15 4 -46 17 -138 16 -255
-4 -11 -2 -49 -7 -85 -11 -36 -3 -79 -8 -96 -10 l-31 -4 -10 142 c-11 173 -34
232 -121 312 -94 86 -202 194 -202 202 0 12 -46 53 -59 53 -6 0 -11 4 -11 10
0 5 -11 12 -25 16 -34 8 -150 124 -200 199 -22 33 -45 66 -52 72 -6 7 -15 22
-18 33 -3 11 -11 20 -16 20 -5 0 -9 5 -9 10 0 6 -10 21 -22 34 -13 12 -36 39
-52 59 -20 25 -38 37 -55 37 -44 0 -51 34 -47 209 5 185 11 221 37 221 18 0
19 10 19 146 0 163 -12 221 -60 298 -17 26 -30 50 -30 54 0 5 -5 13 -12 20 -6
6 -13 22 -15 34 -3 21 -49 107 -63 118 -16 13 -140 164 -140 172 0 4 -9 8 -20
8 -11 0 -20 -3 -20 -7 0 -5 25 -37 55 -73 30 -35 55 -68 55 -72 0 -4 15 -25
33 -45 33 -37 46 -59 81 -133 9 -19 25 -48 36 -65 30 -46 51 -96 57 -135 l5
-35 -23 35 c-26 38 -326 340 -339 340 -4 0 -23 13 -41 30 -39 34 -159 100
-183 100 -9 0 -16 4 -16 9 0 38 -512 38 -555 0 -5 -5 -20 -9 -35 -9 -26 0 -95
-21 -106 -33 -4 -4 -14 -7 -23 -7 -26 0 -120 -47 -159 -80 -20 -16 -43 -30
-52 -30 -14 0 -53 -28 -108 -78 -19 -17 -27 -20 -34 -10 -20 32 4 61 90 110
58 34 65 51 25 71 l-27 15 30 15 c35 18 94 68 94 79 0 16 -66 5 -85 -14z m-19
-516 c21 -14 36 -55 30 -83 -3 -18 -1 -29 6 -29 6 0 5 -7 -5 -17 -8 -10 -18
-29 -22 -43 -4 -15 -19 -31 -38 -40 -41 -19 -47 -52 -14 -83 14 -12 27 -36 29
-52 3 -34 21 -37 26 -5 2 11 8 20 13 20 19 0 21 -31 5 -70 -18 -44 -21 -107
-7 -129 8 -12 12 -12 25 -2 9 8 16 22 16 32 0 11 5 19 10 19 6 0 10 -4 10 -10
0 -17 15 -11 61 23 38 28 74 43 183 74 17 5 18 1 11 -46 -9 -65 -1 -77 34 -52
25 18 28 18 39 3 10 -16 13 -15 32 7 11 13 20 18 20 12 0 -20 28 -12 48 14 26
33 52 33 52 0 0 -45 37 -101 42 -62 0 6 4 -10 7 -38 4 -35 10 -50 21 -50 8 0
20 -6 26 -14 6 -8 18 -11 27 -8 13 5 18 -2 23 -33 9 -56 31 -51 39 9 8 61 63
126 97 115 13 -4 24 -1 29 7 6 10 9 8 9 -8 0 -25 22 -40 66 -45 16 -2 35 -10
42 -18 11 -13 13 -13 25 1 10 14 12 9 13 -30 1 -25 3 -75 5 -111 4 -59 1 -69
-24 -105 -40 -57 -60 -65 -157 -63 -47 0 -95 -2 -108 -6 -25 -8 -30 -35 -7
-37 8 -1 18 -2 23 -3 4 -2 33 -6 65 -10 31 -5 57 -12 57 -17 0 -6 -6 -24 -14
-42 -29 -67 -140 -141 -266 -177 -41 -12 -84 -24 -94 -27 -13 -4 -17 -2 -12 5
9 15 1 15 -23 0 -22 -14 -93 9 -132 42 -25 22 -41 18 -18 -4 28 -27 94 -56
128 -56 l35 0 -35 -36 c-46 -48 -66 -57 -116 -55 -55 2 -159 44 -199 80 -34
31 -158 180 -172 208 -10 19 -76 213 -85 248 -3 12 -5 6 -6 -15 0 -20 6 -62
14 -94 8 -32 13 -61 10 -66 -3 -5 -1 -11 5 -15 5 -3 10 -12 10 -20 0 -10 -9
-9 -38 5 -61 29 -188 165 -235 250 -54 98 -86 171 -92 213 l-7 43 52 17 c29 9
62 17 74 17 11 0 57 16 101 35 44 19 81 35 82 35 2 0 3 -11 3 -24 0 -12 10
-38 23 -57 18 -27 29 -34 57 -34 18 0 35 6 37 12 3 9 -4 11 -24 7 -46 -9 -68
24 -66 99 1 34 -3 83 -8 108 -8 37 -7 54 5 84 9 21 16 45 16 54 0 35 22 92 46
121 26 30 40 36 60 22z m1229 -129 c51 -76 75 -103 93 -103 12 0 12 3 2 15
-20 24 18 19 67 -9 47 -27 69 -17 31 14 -13 11 -18 20 -10 21 48 6 80 3 101
-10 22 -14 23 -19 17 -85 -3 -39 -9 -137 -12 -218 -8 -174 1 -222 53 -285 35
-42 36 -45 30 -106 -3 -34 -1 -112 4 -173 10 -109 10 -113 -15 -161 -31 -62
-81 -107 -110 -99 -12 3 -26 6 -33 6 -27 0 -76 57 -108 125 -19 40 -35 76 -35
81 0 20 -57 124 -89 163 -74 92 -122 167 -136 216 -16 55 -36 222 -28 241 7
18 -26 81 -52 103 -27 20 -28 25 -26 103 1 53 3 58 26 64 29 7 97 -41 120 -87
21 -40 83 -85 97 -71 8 8 21 6 49 -9 52 -26 63 -25 56 9 -3 15 -2 34 2 41 12
19 -44 74 -108 106 -47 23 -52 29 -37 37 16 9 15 13 -14 43 l-31 32 23 26 c13
15 26 27 29 27 3 0 23 -26 44 -57z"/>
<path d="M1876 2625 c-14 -10 -45 -15 -98 -15 -51 0 -89 -5 -108 -15 -32 -17
-41 -39 -12 -31 9 2 27 7 39 11 18 5 35 -7 90 -65 85 -88 136 -109 226 -91 70
15 98 46 127 138 19 63 21 101 1 52 -37 -95 -48 -117 -74 -141 -15 -16 -39
-28 -51 -28 -22 0 -56 27 -56 46 -1 5 -14 25 -30 44 -30 34 -39 73 -20 85 14
9 12 25 -2 25 -7 0 -22 -7 -32 -15z"/>
<path d="M4840 1240 c-11 -7 -7 -10 18 -10 57 0 35 -43 -28 -51 -14 -2 -29 -9
-35 -16 -10 -11 -28 -19 -215 -93 -58 -22 -114 -45 -125 -50 -20 -9 -35 -15
-225 -90 -58 -22 -114 -45 -125 -50 -11 -5 -45 -19 -75 -30 -30 -12 -68 -27
-85 -35 -90 -39 -142 -55 -179 -55 -39 1 -40 1 -21 16 11 8 32 18 48 21 15 3
27 12 27 19 0 19 -24 18 -40 -1 -7 -8 -18 -15 -24 -15 -16 -1 -71 -48 -64 -55
3 -3 28 -9 56 -14 38 -6 59 -4 82 7 24 12 33 12 45 2 13 -11 15 -9 13 10 -3
20 7 27 72 52 41 16 93 36 115 45 22 9 59 24 82 34 24 11 45 19 48 19 10 0
190 71 217 86 14 7 32 14 39 14 7 0 31 9 53 19 23 11 84 35 136 55 52 20 110
43 128 51 18 8 37 15 42 15 5 0 38 14 73 30 36 17 72 30 81 30 8 0 18 5 21 10
8 13 -21 13 -46 -1 -17 -8 -24 -6 -40 15 -21 27 -44 32 -69 16z"/>
<path d="M5025 1201 c7 -12 -42 -47 -78 -56 -15 -4 -27 -11 -27 -15 0 -5 -10
-11 -22 -15 -13 -3 -32 -10 -43 -15 -11 -5 -90 -37 -175 -70 -85 -34 -189 -75
-230 -92 -41 -17 -102 -42 -135 -56 -33 -13 -76 -30 -95 -37 -57 -21 -143 -55
-165 -65 -129 -59 -251 -92 -264 -71 -10 15 -41 3 -41 -15 0 -10 15 -14 60
-14 47 0 58 -3 54 -14 -9 -24 33 -39 90 -31 28 3 108 29 178 56 107 43 130 49
148 39 18 -10 83 -7 130 5 81 21 137 42 193 71 15 9 27 11 27 6 0 -6 9 -8 21
-5 14 4 17 8 9 13 -7 4 1 9 20 12 21 3 34 0 37 -9 3 -7 16 -13 29 -13 13 0 24
-4 24 -10 0 -5 6 -7 13 -4 9 3 18 -9 26 -35 6 -23 17 -40 23 -38 6 1 13 -4 15
-10 3 -7 0 -13 -6 -13 -6 0 -11 -4 -11 -9 0 -6 19 -11 43 -13 41 -3 42 -4 53
-48 8 -34 16 -46 32 -48 12 -2 22 -10 22 -18 0 -8 7 -17 15 -20 8 -3 17 -14
20 -24 3 -11 15 -22 26 -25 10 -4 19 -13 19 -21 0 -8 9 -14 20 -14 16 0 20 -7
20 -33 0 -34 12 -50 63 -88 20 -15 27 -29 27 -53 0 -39 20 -84 40 -89 23 -6
19 -151 -5 -177 -18 -20 -16 -20 148 -20 145 0 167 2 167 16 0 8 -7 22 -15 30
-13 14 -16 14 -21 0 -8 -20 -34 -21 -34 -2 0 8 -6 17 -12 19 -13 6 33 11 65 9
16 -2 17 13 17 173 0 110 -4 175 -10 175 -5 0 -10 9 -10 20 0 11 5 20 10 20
15 0 13 187 -2 194 -10 5 -10 7 0 12 6 3 12 19 12 35 l0 29 -125 0 -125 0 0
25 c0 22 -4 25 -39 25 -22 0 -44 6 -51 15 -18 21 -41 19 -47 -5 -7 -28 -20
-25 -38 10 -9 17 -20 30 -24 30 -5 0 -15 -13 -23 -30 -18 -42 -38 -38 -38 6 0
39 -20 63 -53 64 -10 0 -20 7 -23 15 -4 8 -15 15 -25 15 -22 0 -24 6 -7 24 11
11 14 11 23 0 6 -9 19 -11 34 -7 23 6 23 7 5 14 -19 7 -19 8 1 8 11 1 34 15
52 31 18 17 38 30 46 30 7 0 17 3 21 8 4 4 11 7 14 7 19 2 133 49 140 59 17
21 20 55 6 67 -11 9 -14 9 -14 -1 0 -21 -49 -60 -75 -60 -34 0 -42 20 -15 42
17 14 19 18 6 18 -9 0 -16 4 -16 8 0 5 -6 17 -14 27 -13 18 -14 18 -9 -8 4
-20 1 -27 -11 -27 -9 0 -15 -5 -13 -11 2 -13 -51 -31 -65 -23 -4 3 -8 -2 -8
-11 0 -14 5 -16 28 -10 50 15 77 12 77 -8 0 -13 -20 -27 -75 -49 -41 -16 -88
-36 -105 -43 -16 -8 -59 -25 -95 -39 -36 -14 -126 -50 -200 -81 -74 -31 -146
-60 -160 -65 -14 -4 -45 -17 -70 -29 -45 -21 -120 -29 -120 -13 0 5 16 17 35
28 31 17 37 17 45 4 8 -12 10 -11 10 6 0 11 -2 23 -5 26 -3 3 -83 -26 -178
-64 -232 -94 -317 -117 -317 -85 0 15 41 37 67 37 9 0 21 7 27 15 9 12 113 57
276 120 128 49 342 134 435 172 61 25 145 57 188 73 43 15 81 30 84 34 3 3 17
3 29 0 14 -4 24 -2 24 5 0 9 51 42 65 41 3 0 4 3 3 8 -2 4 -7 5 -13 3 -38 -14
-45 -13 -45 8 0 11 -5 21 -11 21 -5 0 -8 -4 -4 -9z"/>
</g>
</svg>
