<?xml version="1.0" standalone="no"?>
<!DOCTYPE svg PUBLIC "-//W3C//DTD SVG 20010904//EN"
 "http://www.w3.org/TR/2001/REC-SVG-20010904/DTD/svg10.dtd">
<svg version="1.0" xmlns="http://www.w3.org/2000/svg"
 width="554.000000pt" height="414.000000pt" viewBox="0 0 554.000000 414.000000"
 preserveAspectRatio="xMidYMid meet">
<metadata>
Created by potrace 1.16, written by Peter Selinger 2001-2019
</metadata>
<g transform="translate(0.000000,414.000000) scale(0.100000,-0.100000)"
fill="#000000" stroke="none">
<path d="M1482 4111 c-17 -16 -41 -32 -52 -36 -11 -3 -20 -10 -20 -14 0 -5
-10 -19 -23 -33 -20 -22 -31 -48 -53 -128 -4 -14 -8 -68 -9 -120 -2 -79 -7
-105 -28 -150 -66 -140 -83 -396 -39 -585 13 -55 28 -111 34 -124 5 -14 13
-45 18 -70 6 -25 19 -86 30 -135 11 -50 20 -109 20 -132 0 -51 -44 -161 -76
-191 -13 -12 -24 -29 -24 -38 0 -23 -46 -92 -104 -156 -39 -44 -54 -70 -63
-110 -10 -45 -21 -62 -67 -104 -29 -27 -57 -60 -60 -72 -4 -12 -27 -43 -52
-69 l-46 -48 6 -60 c3 -34 10 -118 15 -187 7 -112 11 -131 35 -165 32 -48 33
-75 1 -139 -13 -27 -25 -57 -25 -65 0 -8 -20 -54 -43 -102 l-42 -87 -255 106
c-140 58 -277 116 -305 128 -94 43 -122 50 -147 38 -13 -6 -42 -19 -65 -29
l-43 -18 0 -608 0 -608 1518 1 c1214 0 1508 3 1472 13 -48 13 -243 106 -248
119 -2 4 -8 7 -14 7 -13 0 -158 70 -158 77 0 6 35 -5 85 -27 22 -9 99 -41 170
-69 72 -29 139 -57 150 -62 11 -4 46 -20 79 -34 l58 -25 559 0 559 0 0 158 c0
87 3 161 6 164 3 3 56 -11 117 -32 62 -21 121 -40 132 -42 24 -4 33 -51 34
-170 l1 -78 89 0 c68 0 90 3 94 14 3 8 9 54 13 101 l7 87 61 -7 c34 -4 125 -8
204 -8 124 -1 142 -3 138 -16 -2 -9 -7 -51 -11 -94 l-7 -78 119 3 118 3 12 75
c21 138 24 147 50 159 13 6 33 11 44 11 10 0 27 4 37 9 9 5 25 12 35 15 16 5
17 47 15 743 l-3 738 -30 14 c-16 8 -43 25 -59 38 -41 34 -92 55 -161 65 -148
21 -141 18 -137 68 1 8 6 166 11 350 17 534 23 660 33 654 5 -4 86 -3 179 1
156 7 169 9 169 26 0 16 -4 17 -26 9 -45 -18 -773 -12 -892 6 -28 4 -31 8 -22
20 10 11 8 14 -10 14 -16 0 -21 -4 -16 -16 6 -14 -5 -15 -96 -9 -57 3 -145 13
-195 21 -51 8 -110 14 -130 14 -56 1 -146 43 -154 72 -12 40 -10 68 5 68 15 0
26 -21 26 -48 0 -26 40 -46 93 -45 48 1 87 22 87 49 0 20 21 28 31 13 5 -8 6
-29 3 -46 -5 -29 -3 -33 15 -33 14 0 21 6 21 19 0 31 21 37 42 11 l19 -23 16
23 c24 34 51 60 63 60 6 0 10 -17 10 -37 0 -21 7 -46 15 -56 13 -18 14 -18 34
2 12 12 21 26 21 31 0 6 9 10 20 10 13 0 20 -7 20 -20 0 -13 5 -18 15 -14 8 4
17 -1 21 -10 3 -9 15 -16 26 -16 17 0 19 4 13 28 -3 15 -13 31 -21 35 -8 4
-14 15 -14 24 0 13 9 14 58 8 65 -8 70 -11 54 -27 -13 -13 -17 -78 -4 -78 4 0
18 7 30 16 21 15 25 15 41 0 25 -23 34 -20 27 8 -7 29 12 48 51 47 99 -2 133
-7 133 -18 0 -16 0 -16 -38 -2 -24 8 -38 7 -66 -6 -36 -17 -63 -42 -54 -50 10
-10 37 7 44 27 5 17 12 19 41 13 43 -8 83 -25 83 -37 0 -14 77 -9 90 7 7 8 21
15 31 15 11 0 19 5 19 11 0 6 6 9 13 6 7 -3 21 1 32 9 13 10 22 11 32 3 7 -6
39 -12 70 -13 44 -1 59 -6 61 -18 4 -19 69 -27 157 -18 55 5 57 6 26 13 -27 6
-31 10 -22 21 7 8 21 12 31 9 18 -5 20 0 20 51 0 31 -4 56 -10 56 -5 0 -10 -4
-10 -8 0 -4 -9 -8 -19 -9 -14 -1 -18 3 -14 13 3 8 16 14 29 14 16 0 24 6 24
16 0 14 -7 16 -40 11 -30 -4 -40 -2 -40 9 0 9 12 14 33 15 32 0 32 0 10 16
-13 8 -23 26 -23 39 0 12 -4 26 -10 29 -12 8 -13 35 -2 35 5 0 19 -9 32 -20
27 -23 40 -25 40 -7 0 7 -14 21 -30 30 -16 10 -30 15 -30 11 0 -5 -5 -3 -12 4
-17 17 8 42 43 42 16 0 29 5 29 10 0 6 -4 10 -10 10 -5 0 -10 7 -10 15 0 8 -9
15 -21 15 -11 0 -18 -4 -15 -9 3 -5 -1 -12 -10 -15 -23 -9 -31 -7 -14 4 13 8
13 12 1 32 -13 21 -13 22 2 9 10 -7 17 -10 17 -5 0 15 -14 31 -30 36 -8 3 2 8
23 12 39 7 47 25 21 47 -13 11 -15 11 -14 -2 5 -30 -1 -35 -35 -31 -21 3 -35
10 -35 18 0 14 -17 19 -59 15 -13 -1 -31 5 -41 14 -16 15 -50 12 -50 -5 0 -13
-30 -20 -55 -14 -20 5 -22 8 -11 19 7 7 23 11 37 8 15 -3 33 3 48 16 22 19 22
41 -1 41 -6 0 -8 -3 -5 -7 11 -10 -13 -33 -34 -33 -11 0 -19 6 -19 14 0 8 -11
23 -25 34 -21 17 -22 21 -9 26 9 3 25 6 37 6 12 0 30 12 41 26 18 26 18 26 -5
22 -17 -2 -27 4 -34 20 -7 16 -19 22 -42 24 -18 0 -39 1 -45 2 -17 1 -62 46
-54 53 3 3 17 -2 32 -11 14 -10 29 -15 32 -11 9 9 -28 35 -50 35 -17 0 -24 29
-20 90 1 18 -16 30 -43 29 -18 0 -18 -1 3 -10 28 -11 20 -29 -13 -29 -18 0
-23 4 -19 15 4 10 0 15 -10 15 -9 0 -19 7 -22 15 -9 22 -50 18 -84 -7 -16 -12
-32 -19 -34 -17 -12 12 8 46 39 65 35 23 85 22 85 -1 0 -16 43 -27 75 -19 15
4 25 2 25 -5 0 -6 9 -11 19 -11 11 0 21 -6 24 -12 3 -10 7 -10 20 0 13 11 19
11 30 1 8 -8 12 -21 10 -30 -3 -9 0 -20 6 -23 20 -13 11 -28 -13 -24 -19 4
-25 0 -29 -19 -2 -12 0 -23 4 -23 5 0 9 4 9 9 0 5 8 11 18 13 21 4 49 -42 31
-52 -8 -6 -8 -9 0 -14 6 -4 11 -4 11 1 0 4 4 3 8 -3 4 -7 21 -9 40 -7 35 6 45
23 12 23 -10 0 -31 12 -45 28 -24 25 -24 28 -8 41 13 9 14 15 6 18 -7 3 -13 8
-13 13 0 14 45 20 75 9 24 -9 38 -8 66 4 37 15 53 12 55 -10 2 -30 5 -33 28
-33 14 0 28 -5 31 -10 9 -15 -14 -40 -36 -40 -10 0 -20 -4 -23 -9 -3 -4 5 -6
18 -4 13 3 27 0 30 -6 4 -6 1 -9 -7 -5 -8 3 -19 -1 -25 -8 -9 -11 -3 -14 31
-14 23 -1 50 -4 60 -9 15 -6 17 0 17 72 l0 80 -30 -5 c-21 -3 -32 0 -36 12
-12 31 2 40 25 17 28 -28 44 -17 39 30 -3 29 -9 37 -45 53 -31 14 -43 25 -43
41 0 43 -10 45 -295 45 -291 0 -295 -1 -295 -51 0 -23 -5 -29 -32 -34 -31 -7
-83 -26 -119 -45 -9 -5 -56 -30 -105 -56 -144 -77 -258 -133 -270 -134 -7 0
-19 11 -28 24 -41 64 -126 116 -211 131 -22 4 -48 13 -57 22 -21 19 -23 19
-293 79 -133 29 -184 43 -207 55 -10 5 -323 8 -730 7 -392 0 -699 -3 -682 -5
18 -2 40 -13 50 -24 9 -10 24 -19 33 -19 19 -1 42 -19 57 -45 6 -11 20 -24 30
-30 32 -16 74 -52 74 -63 0 -5 7 -12 15 -16 8 -3 15 -17 15 -31 0 -15 4 -35
10 -45 5 -10 11 -39 12 -65 1 -39 5 -49 25 -58 27 -12 29 -20 8 -37 -17 -14
-20 -40 -4 -40 6 0 1 -12 -10 -26 -11 -15 -18 -30 -15 -35 3 -5 1 -9 -3 -9
-12 0 -64 57 -86 93 -10 15 -21 27 -26 27 -11 0 22 -65 45 -91 10 -11 19 -42
22 -74 4 -50 2 -55 -19 -64 -13 -5 -43 -17 -67 -27 -24 -9 -54 -18 -67 -19
-19 0 -22 2 -14 17 16 29 52 48 92 48 45 0 47 23 3 28 -41 5 -81 -15 -121 -59
-38 -42 -44 -69 -20 -92 12 -13 10 -15 -15 -21 -35 -6 -75 6 -83 26 -7 19 -80
42 -110 34 -14 -3 -39 -17 -55 -31 -17 -14 -37 -25 -45 -25 -9 0 -19 -5 -22
-11 -14 -22 5 -20 56 6 29 14 62 25 73 23 21 -3 21 -3 -1 -25 -13 -13 -34 -23
-48 -23 -14 0 -25 -4 -25 -9 0 -9 -78 -41 -100 -41 -24 1 -67 39 -54 47 6 5
17 25 24 46 9 29 21 43 46 53 18 8 41 26 51 40 15 24 16 31 0 112 -9 47 -15
87 -13 90 2 2 24 -18 49 -44 37 -38 54 -48 92 -54 41 -6 48 -5 52 11 3 11 12
19 19 19 14 0 13 37 -1 60 -3 6 1 13 10 16 11 5 27 -5 49 -29 21 -23 45 -38
69 -42 34 -7 40 -4 77 34 43 44 49 57 24 47 -8 -3 -26 1 -40 10 -15 11 -24 12
-24 5 0 -6 10 -15 22 -20 13 -5 17 -10 11 -14 -14 -9 -62 9 -85 30 -10 9 -18
11 -18 5 0 -14 49 -52 66 -52 19 0 18 -19 -2 -27 -28 -10 -80 23 -105 68 -27
47 -56 66 -46 30 4 -16 1 -21 -11 -19 -13 2 -16 -4 -14 -27 3 -24 1 -28 -9
-17 -23 22 -29 13 -23 -30 l7 -43 -42 40 c-41 39 -54 38 -25 -3 8 -12 11 -22
6 -22 -12 0 -52 44 -52 57 0 13 -56 44 -64 35 -10 -9 -7 -101 5 -146 9 -36 8
-49 -5 -75 -9 -17 -24 -31 -35 -31 -21 0 -51 -30 -51 -52 0 -26 -25 -41 -39
-24 -10 12 -18 13 -37 4 -13 -6 -24 -17 -24 -24 0 -20 -46 -25 -85 -8 -21 8
-44 13 -51 10 -23 -9 -114 150 -143 249 -23 81 -19 305 7 352 7 12 12 27 12
33 0 24 58 70 88 70 24 0 29 4 25 19 -4 18 20 51 38 51 5 0 9 -9 9 -20 0 -11
5 -20 10 -20 6 0 10 14 10 30 0 26 -4 30 -28 30 -17 0 -40 -12 -60 -29z m3446
-290 c4 -25 -15 -44 -35 -36 -7 2 -13 0 -13 -6 0 -5 7 -12 16 -16 19 -7 56 34
49 54 -7 21 20 34 49 23 15 -5 37 -10 49 -10 35 0 50 -15 42 -40 -7 -22 -15
-22 -60 -4 -18 7 -18 6 -6 -9 7 -9 20 -17 27 -17 8 0 14 -4 14 -10 0 -5 7 -10
15 -10 9 0 15 7 13 16 -2 10 3 19 11 22 8 3 11 0 7 -6 -3 -6 0 -12 6 -15 10
-3 8 -10 -5 -25 -11 -11 -16 -25 -13 -31 4 -5 7 -26 8 -46 2 -48 18 -23 18 28
0 30 4 40 20 44 10 3 22 14 25 24 7 20 14 23 38 13 18 -7 11 -44 -9 -44 -7 0
-19 -10 -25 -22 -9 -17 -9 -24 5 -33 23 -17 21 -55 -3 -55 -14 0 -18 -5 -14
-21 4 -15 0 -22 -16 -26 -11 -3 -21 -8 -21 -11 0 -12 34 -42 47 -42 8 0 13 -7
11 -17 -5 -24 -62 -21 -90 4 -11 10 -29 17 -40 15 -17 -3 -19 0 -13 27 8 37 6
37 -37 11 -29 -18 -30 -20 -10 -20 16 0 22 -6 22 -21 0 -16 -4 -19 -22 -14
-13 4 -25 7 -28 7 -44 1 -65 -6 -84 -27 -23 -24 -56 -26 -56 -3 0 5 4 7 9 4 5
-4 7 2 4 12 -5 21 -58 46 -91 43 -12 -1 -32 5 -43 13 -12 8 -27 12 -34 10 -7
-3 -16 -1 -20 5 -3 6 -16 11 -28 11 -20 -1 -20 -2 -4 -11 23 -13 22 -29 -2
-29 -44 0 -27 -19 31 -37 46 -14 64 -24 66 -38 2 -11 11 -28 21 -39 15 -18 15
-18 -7 -12 -19 6 -17 2 13 -31 20 -21 38 -47 41 -58 7 -29 -23 -94 -49 -105
-20 -8 -19 -9 9 -9 42 -1 74 -25 56 -43 -9 -9 -37 -12 -94 -10 -93 3 -98 5
-98 34 0 19 4 20 51 14 34 -5 49 -4 44 4 -3 5 -23 10 -45 10 -24 0 -40 5 -44
15 -9 24 5 47 25 42 25 -7 24 10 -1 23 -11 6 -20 17 -20 24 0 27 -64 36 -74
11 -8 -23 -25 -18 -37 11 -7 21 -6 31 7 45 21 24 33 24 50 2 10 -14 13 -15 14
-4 0 19 -40 61 -58 61 -12 0 -12 -3 -2 -15 7 -9 10 -19 5 -23 -4 -4 -22 10
-40 31 -17 20 -40 37 -49 37 -9 0 -16 5 -16 10 0 17 43 11 78 -10 18 -11 37
-18 41 -15 12 7 59 -32 66 -54 9 -29 39 -31 64 -5 25 26 18 33 -9 9 -20 -18
-50 -10 -50 14 -1 34 -90 110 -90 77 0 -8 6 -17 13 -19 7 -3 5 -6 -5 -6 -10
-1 -18 5 -18 13 0 8 -17 17 -42 21 -29 5 -36 9 -23 13 11 2 25 8 31 13 7 6 28
11 48 13 34 3 61 15 40 17 -70 8 -86 7 -91 -7 -8 -22 -25 -16 -21 9 3 20 8 22
54 19 68 -3 85 14 53 57 -16 22 -31 31 -51 31 -15 0 -28 4 -28 8 0 14 23 32
42 32 10 0 18 7 18 15 0 8 -3 15 -8 15 -14 0 -62 -51 -62 -66 0 -12 -4 -12
-20 -4 -11 6 -20 19 -20 29 0 26 -45 48 -65 31 -8 -7 -12 -17 -8 -23 3 -6 1
-7 -6 -3 -8 5 -9 12 -2 20 7 9 6 19 -4 33 -14 20 -11 33 7 33 4 0 8 -10 8 -22
1 -21 2 -22 14 -6 7 10 36 25 64 34 45 15 52 15 66 2 8 -9 13 -18 10 -21 -3
-3 6 -13 21 -23 22 -14 29 -15 50 -4 14 7 23 15 21 17 -2 3 -14 -1 -26 -7 -18
-10 -25 -9 -38 4 -14 14 -13 16 9 24 16 6 37 5 63 -4 22 -8 47 -12 57 -9 9 3
20 1 24 -5 3 -5 -1 -10 -9 -10 -9 0 -16 -4 -16 -10 0 -5 13 -7 29 -4 16 4 32
1 35 -5 4 -6 21 -11 37 -11 19 0 28 -4 24 -11 -4 -6 -13 -8 -21 -5 -8 3 -14
-1 -14 -9 0 -24 37 -18 43 7 8 30 1 38 -38 38 -33 0 -55 24 -32 34 7 3 1 4
-13 3 -21 -2 -25 2 -23 21 3 28 -17 29 -24 2 -3 -12 -12 -20 -21 -18 -23 4
-27 28 -5 28 11 0 24 5 30 11 7 7 20 6 44 -4 38 -15 130 -10 164 11 29 17 49
10 53 -17z m-608 -90 c0 -6 -5 -13 -10 -16 -6 -4 -17 -21 -24 -40 -15 -36 -49
-60 -72 -51 -8 3 -13 0 -11 -7 1 -7 -8 -12 -21 -11 -15 0 -21 -4 -18 -12 6
-17 -13 -29 -39 -25 -17 3 -17 1 5 -17 l25 -20 -27 -7 c-16 -4 -28 -11 -28
-17 0 -5 9 -6 20 -3 26 8 25 -1 -2 -42 -25 -35 -44 -44 -34 -15 3 9 -7 1 -23
-18 -23 -27 -32 -32 -42 -23 -9 9 -17 8 -35 -4 -30 -19 -30 -17 0 48 33 71 69
119 141 191 78 77 93 86 104 57 5 -16 10 -19 16 -10 4 8 2 17 -5 21 -7 4 -9
13 -6 19 9 13 86 15 86 2z m1104 -263 c-3 -5 -2 -17 2 -26 4 -9 8 -36 9 -58 2
-35 -1 -44 -21 -53 -13 -6 -24 -15 -24 -21 0 -5 -19 -10 -42 -10 -39 1 -45 4
-59 35 -20 43 -11 58 52 90 27 14 47 30 44 36 -4 5 -1 16 5 25 10 11 16 11 26
3 8 -6 11 -15 8 -21z m-2994 -35 c0 -19 -7 -50 -16 -69 -11 -23 -14 -47 -10
-76 19 -134 19 -162 -6 -218 -13 -30 -30 -77 -38 -104 -10 -35 -27 -63 -63
-99 l-49 -49 -76 6 c-107 8 -102 8 -147 1 -25 -3 -49 -1 -65 7 -26 14 -72 86
-64 100 3 4 0 8 -6 8 -7 0 -10 6 -7 14 3 8 2 16 -3 18 -18 6 -130 162 -130
180 0 21 -24 70 -49 101 -8 9 -11 17 -8 17 9 0 80 -40 91 -51 6 -5 18 -9 27
-9 9 0 22 -7 29 -15 7 -8 17 -15 23 -15 6 0 -3 15 -21 33 -18 18 -32 36 -32
39 0 10 59 30 69 23 21 -13 104 8 128 31 16 16 35 24 60 24 l35 0 -6 -37 c-4
-21 -16 -50 -27 -65 -11 -16 -16 -28 -11 -28 18 0 61 60 68 95 8 43 27 54 53
31 23 -21 49 -22 31 -1 -17 21 -6 45 18 38 23 -6 101 32 103 50 1 6 1 17 0 22
-1 12 79 45 92 38 4 -2 7 -20 7 -40z m1680 -21 c0 -4 -7 -17 -15 -29 -23 -33
-1 -37 44 -8 23 14 48 25 57 25 15 0 15 -2 2 -22 -8 -13 -18 -35 -21 -49 -4
-15 -18 -34 -32 -43 -35 -23 -31 -36 13 -36 20 0 44 -5 52 -10 22 -14 0 -44
-35 -48 -21 -3 -25 -6 -14 -13 11 -7 12 -12 1 -26 -6 -10 -16 -28 -22 -40 -14
-33 -27 -28 -45 13 -11 28 -12 40 -4 50 7 8 9 27 5 46 -4 18 -8 40 -9 49 -1 9
-8 16 -17 15 -11 -1 -15 11 -16 49 0 28 3 58 8 68 9 17 48 25 48 9z m1121 -35
c30 8 23 -21 -10 -40 -16 -9 -34 -17 -40 -17 -7 0 -23 -7 -36 -16 l-25 -16 23
-18 c12 -9 35 -21 51 -27 35 -11 41 -23 24 -45 -13 -15 -83 -35 -74 -20 2 4
-6 8 -19 8 -35 2 -79 27 -83 46 -2 11 6 22 22 29 17 8 26 20 26 35 0 14 8 25
20 29 11 3 32 19 47 35 18 20 31 26 41 21 8 -5 23 -6 33 -4z m-2532 -319 c36
-17 77 -31 90 -30 13 1 51 -11 85 -27 33 -16 77 -32 96 -34 186 -24 204 -29
238 -63 31 -32 99 -161 89 -170 -3 -3 -25 30 -51 73 -25 42 -46 69 -46 60 0
-10 24 -59 54 -110 55 -94 148 -282 161 -327 8 -27 53 -90 64 -90 3 0 19 18
35 39 16 22 49 51 75 66 25 14 129 77 231 140 102 63 208 128 235 145 28 17
82 51 120 75 73 46 97 44 50 -3 -66 -66 -135 -189 -164 -295 -12 -40 -21 -76
-21 -79 0 -3 14 7 31 23 18 16 37 28 43 26 6 -3 34 8 61 23 67 36 155 62 200
58 l37 -3 -27 -28 c-16 -15 -47 -36 -70 -46 -91 -40 -154 -127 -165 -226 l-5
-50 -41 3 c-35 3 -45 -1 -62 -23 -25 -31 -54 -40 -182 -55 -52 -6 -133 -23
-180 -39 -47 -16 -116 -36 -155 -45 -38 -9 -106 -24 -150 -35 -44 -10 -92 -21
-106 -25 -23 -5 -76 -45 -209 -156 -262 -220 -315 -260 -344 -260 -30 0 -65
15 -56 23 3 2 17 7 33 11 21 5 27 3 28 -11 0 -14 2 -15 6 -3 3 8 11 18 17 23
18 12 -15 28 -46 23 -17 -4 -30 0 -35 8 -4 8 -21 16 -38 18 -19 2 -33 11 -42
28 -27 55 -54 119 -62 147 -5 15 -12 36 -16 47 -7 16 -6 17 13 7 35 -19 83 15
50 35 -6 4 -14 2 -16 -4 -6 -19 -22 -14 -22 8 0 27 -28 25 -33 -2 -3 -21 -4
-21 -15 7 -7 17 -16 39 -21 50 -16 35 -39 109 -46 143 -9 42 29 100 94 145 26
17 64 50 87 73 49 51 92 74 153 83 41 5 46 9 49 34 2 15 -1 27 -7 27 -6 0 -11
6 -11 14 0 17 62 39 105 38 16 -1 54 4 83 10 l53 12 -4 38 c-4 30 0 41 14 49
11 5 19 14 19 20 0 12 -64 113 -99 156 -14 18 -34 42 -43 55 -72 95 -116 143
-125 135 -2 -3 4 -14 14 -24 10 -10 38 -47 63 -82 25 -34 63 -86 85 -114 49
-62 75 -103 75 -116 0 -16 -60 -30 -184 -41 -65 -6 -120 -9 -121 -8 -1 2 -17
35 -35 73 -37 78 -38 80 -44 74 -6 -6 20 -100 36 -129 7 -14 22 -38 32 -53 19
-28 19 -28 -5 -55 -37 -42 -66 -57 -57 -30 3 7 -5 20 -16 30 -12 10 -16 17
-11 18 13 0 15 40 2 40 -5 0 -5 9 -2 20 4 12 2 20 -5 20 -6 0 -10 6 -8 12 3 7
0 18 -6 26 -6 7 -16 18 -21 25 -22 27 -38 77 -57 187 -11 63 -24 135 -29 160
-4 25 -8 68 -8 97 l-1 52 76 -54 c42 -30 106 -69 143 -87z m1788 -88 c38 -6
167 -13 287 -16 l219 -6 -6 -182 c-3 -99 -10 -233 -16 -296 -6 -63 -15 -205
-21 -315 -15 -262 -15 -261 -52 -269 -16 -3 -44 -12 -61 -20 -18 -8 -60 -16
-94 -19 -36 -3 -75 -13 -92 -24 -167 -106 -177 -119 -175 -210 l2 -53 -37 0
c-49 0 -203 -58 -281 -105 -19 -12 -40 -24 -46 -28 -19 -11 -84 136 -84 191 0
84 31 298 62 422 7 29 25 59 49 84 22 22 39 46 39 54 0 8 11 28 25 46 32 39
19 23 159 209 128 171 135 193 54 163 -43 -16 -177 -40 -184 -33 -4 4 39 133
56 172 13 27 34 95 55 178 20 77 17 76 142 57z m651 -19 c25 -1 25 23 7 -311
-2 -41 -4 -92 -5 -112 0 -71 -19 -38 -22 40 -3 66 -5 74 -14 52 -10 -22 -12
-15 -19 55 -9 106 -13 115 -14 29 -1 -80 -22 -128 -36 -83 -8 23 -8 23 -16 4
-4 -11 -8 -51 -8 -88 -1 -38 -5 -66 -10 -63 -10 6 -2 445 9 466 6 11 22 14 57
13 26 -1 58 -2 71 -2z m-2725 -18 c20 7 26 -13 42 -143 18 -138 18 -228 1
-262 -8 -15 -39 -58 -69 -96 -49 -61 -63 -71 -119 -92 -34 -12 -93 -38 -130
-56 -37 -19 -77 -34 -89 -34 -13 0 -44 22 -77 55 l-55 54 5 115 c5 122 0 111
71 187 17 19 19 19 70 -38 29 -32 62 -68 74 -80 12 -12 24 -32 28 -43 4 -11
11 -18 16 -14 5 3 7 10 3 15 -3 6 3 19 15 30 12 11 21 25 21 31 0 6 -11 1 -25
-12 l-25 -23 -24 22 c-43 40 -87 109 -74 114 9 3 5 11 -11 23 -23 16 -23 18
-6 31 11 7 13 13 7 13 -16 0 -15 27 1 34 6 3 1 3 -12 0 -19 -5 -23 -3 -18 10
5 12 0 16 -21 17 -22 1 -20 3 13 11 22 5 60 6 85 3 86 -11 140 -13 140 -4 0 5
6 9 13 9 18 0 117 108 117 128 0 14 2 14 9 3 5 -8 16 -11 24 -8z m-536 -60
c28 -37 28 -40 22 -123 -4 -47 -8 -148 -9 -225 l-2 -140 -18 60 c-11 33 -24
68 -30 78 -6 10 -8 23 -4 29 4 6 3 8 -3 5 -14 -9 -43 57 -43 98 0 21 -5 35
-12 36 -26 2 -53 -3 -65 -13 -9 -7 -17 -7 -27 1 -12 10 -13 8 -9 -8 4 -14 0
-23 -13 -27 -11 -3 -31 -12 -46 -20 -36 -19 -55 -19 -38 1 7 8 17 12 23 8 7
-4 8 0 4 11 -6 14 -3 17 9 12 11 -4 15 -2 11 8 -6 15 15 39 26 31 4 -3 5 -2 2
2 -8 10 16 33 29 26 6 -3 8 -3 4 2 -9 9 9 35 24 35 7 0 7 -4 1 -12 -16 -21
-22 -57 -11 -65 7 -3 8 -1 4 5 -4 7 -3 12 3 12 5 0 32 47 61 105 28 58 57 105
65 105 7 0 26 -17 42 -37z m-323 -125 c-2 -22 -6 -43 -8 -46 -3 -2 -1 -13 5
-24 8 -14 5 -25 -10 -45 -26 -32 -27 -50 -2 -58 13 -4 17 -12 14 -25 -3 -11 0
-34 6 -52 9 -24 8 -33 -1 -40 -10 -6 -9 -8 2 -8 9 0 11 -3 5 -8 -5 -4 -10 -31
-10 -59 0 -29 5 -53 10 -53 6 0 5 -3 -1 -8 -6 -4 -17 -25 -23 -47 -7 -22 -18
-56 -26 -75 -7 -19 -21 -78 -31 -130 -10 -52 -28 -118 -41 -146 l-23 -51 -40
7 c-21 4 -49 14 -62 22 -13 8 -36 18 -52 22 -25 6 -28 5 -18 -7 16 -19 103
-63 141 -72 24 -5 30 -11 27 -23 -3 -10 -7 -34 -10 -54 -2 -20 -7 -47 -11 -58
-7 -21 -7 -21 -38 3 -32 23 -107 62 -179 91 -21 8 -38 20 -38 26 0 15 -61 50
-87 50 -18 0 -22 -5 -20 -22 1 -17 -4 -24 -22 -26 -21 -3 -23 -1 -18 20 4 12
7 32 7 44 0 17 7 21 38 23 61 4 76 7 99 19 12 7 32 11 45 9 12 -1 23 3 23 8 0
6 4 16 9 24 6 9 2 19 -11 30 -11 9 -28 28 -37 43 -16 25 -16 28 1 64 l18 37
90 4 c50 2 96 6 103 8 24 9 12 50 -24 84 -47 45 -68 77 -60 96 9 24 23 18 86
-40 64 -59 69 -62 88 -43 9 9 15 9 24 0 7 -7 16 -12 20 -12 20 0 3 30 -53 89
-61 65 -89 107 -89 136 0 9 16 44 35 76 19 33 35 62 35 65 0 3 5 10 10 17 20
23 60 88 60 96 0 8 39 61 44 61 2 0 2 -19 0 -42z m884 -303 c-6 -14 -15 -25
-19 -25 -4 0 -10 -7 -13 -16 -6 -15 -4 -15 10 -3 16 13 17 12 12 -11 -4 -14
-11 -52 -18 -85 -6 -33 -16 -83 -22 -111 -10 -47 -8 -61 22 -155 18 -57 39
-115 45 -129 7 -14 27 -61 44 -105 18 -44 35 -87 38 -95 6 -13 4 -13 -10 -1
-15 11 -22 12 -41 1 -24 -12 -66 -6 -66 10 0 12 -83 50 -110 50 -11 0 -37 11
-58 23 -38 25 -128 41 -138 26 -9 -15 -46 -10 -66 8 -15 14 -22 14 -42 4 -16
-9 -33 -10 -58 -3 -20 5 -41 6 -48 2 -7 -4 -28 -3 -47 2 -27 7 -39 6 -52 -6
-10 -9 -33 -16 -52 -16 -19 0 -39 -4 -44 -9 -11 -10 -95 -26 -95 -18 0 3 6 12
13 19 7 7 49 65 92 128 43 63 100 142 127 176 53 68 68 100 68 147 0 18 3 42
6 54 6 22 7 22 30 -7 14 -16 40 -39 59 -50 43 -26 69 -22 157 25 34 19 69 35
76 35 44 1 113 45 157 101 51 64 61 72 43 34z m-648 -106 c0 15 20 14 20 -1 1
-7 9 -31 20 -53 11 -22 19 -48 20 -58 0 -10 5 -15 10 -12 6 3 10 -3 10 -15 0
-12 -4 -18 -10 -15 -5 3 -8 0 -5 -7 3 -7 -15 -34 -39 -60 -24 -25 -58 -68 -76
-95 -18 -26 -39 -53 -47 -60 -8 -6 -15 -18 -17 -25 -1 -12 -24 -46 -55 -84 -4
-5 -14 -20 -20 -33 -7 -12 -15 -20 -18 -17 -3 3 0 12 6 20 8 10 9 16 1 21 -6
3 -8 11 -4 16 3 5 8 7 12 5 4 -2 7 7 7 20 0 13 -3 24 -7 24 -5 0 -8 5 -8 11 0
6 8 8 18 5 20 -6 45 11 55 38 4 11 13 16 22 12 8 -3 15 -2 15 3 0 16 -13 21
-27 9 -7 -6 -17 -7 -21 -3 -4 4 -1 10 6 12 6 3 12 9 12 15 0 6 -6 6 -15 -2
-12 -10 -16 -9 -21 4 -3 9 -9 14 -13 12 -4 -3 -6 12 -5 32 3 61 3 64 16 56 7
-5 9 -2 5 8 -3 9 1 24 9 35 9 10 13 13 10 6 -8 -15 3 -43 16 -43 7 0 7 4 1 13
-14 17 -10 56 9 97 9 19 19 47 22 62 4 15 16 33 29 39 20 11 21 11 8 -4 -12
-15 -11 -17 9 -17 18 0 21 4 17 21 -4 16 -3 18 9 8 10 -8 14 -8 14 0z m-830
-537 c0 -5 -12 -13 -27 -20 -24 -10 -16 -11 53 -7 44 2 93 9 109 15 23 9 36 7
69 -8 23 -10 52 -23 66 -29 22 -9 16 -11 -46 -18 -46 -4 -99 -19 -148 -40 -57
-25 -76 -29 -76 -19 0 8 -7 17 -15 20 -8 4 -15 12 -15 19 0 7 -7 15 -15 19
-21 8 -19 53 3 65 21 13 42 14 42 3z m702 -69 c6 -27 -3 -53 -17 -53 -7 0 -18
-7 -25 -15 -7 -8 -19 -15 -27 -15 -19 0 -43 -24 -43 -44 0 -8 -5 -18 -11 -21
-7 -5 -4 -14 7 -26 13 -15 15 -22 6 -31 -7 -7 -12 -22 -12 -35 0 -32 -8 -29
-57 18 -45 42 -55 77 -29 98 11 10 15 8 19 -6 4 -17 5 -16 11 2 15 39 23 50
45 53 11 2 21 9 21 17 0 19 46 46 66 38 13 -5 16 -3 11 9 -3 9 -3 19 0 22 12
12 32 6 35 -11z m-351 -34 c41 -14 78 -55 79 -86 0 -13 5 -23 10 -23 6 0 10
-10 10 -23 0 -35 -23 -77 -42 -77 -18 0 -96 -35 -143 -64 -94 -58 -194 -130
-199 -142 -11 -30 -21 -12 -21 39 0 30 -8 68 -18 90 -22 46 -22 177 1 217 13
25 92 65 142 73 53 9 149 6 181 -4z m1913 -58 c16 -18 16 -19 -9 -25 -15 -4
-44 -18 -65 -31 -21 -13 -51 -27 -67 -30 -15 -3 -68 -25 -117 -48 -85 -40 -89
-41 -100 -23 -6 11 -21 30 -32 42 l-22 23 52 15 c28 8 96 27 151 42 55 15 118
32 140 40 53 17 49 17 69 -5z m-1469 -145 c14 -31 31 -55 43 -58 15 -4 18 -1
14 18 -3 17 1 26 14 31 11 4 27 17 37 30 18 23 44 23 30 0 -4 -7 -6 -20 -5
-29 2 -11 -6 -20 -22 -24 -23 -5 -24 -9 -22 -70 3 -70 -9 -99 -37 -88 -9 3
-17 9 -17 13 0 4 -18 26 -40 49 -22 22 -40 39 -40 37 0 -2 5 -16 10 -31 9 -22
7 -29 -9 -40 -10 -8 -21 -29 -23 -49 -4 -33 -2 -36 34 -47 20 -6 36 -16 35
-22 -1 -6 14 -11 36 -11 29 0 37 -4 37 -18 0 -24 24 -16 28 9 2 10 7 28 12 39
18 43 20 88 5 105 -14 16 -14 19 1 35 12 12 26 15 51 10 28 -5 33 -3 33 14 0
11 -8 25 -17 30 -16 9 -16 10 -1 11 11 0 15 6 11 20 -4 16 0 19 23 18 16 0 53
2 82 5 28 4 52 3 52 -2 0 -15 -48 -41 -64 -35 -10 4 -16 1 -16 -7 0 -21 -34
-88 -46 -89 -5 0 -18 -18 -28 -40 -21 -48 -19 -129 4 -147 25 -20 -1 -33 -74
-38 -66 -5 -68 -5 -63 15 4 16 2 20 -12 15 -9 -3 -26 1 -36 9 -12 9 -32 12
-53 9 -28 -5 -34 -2 -39 16 -3 13 -11 20 -19 17 -21 -8 -44 4 -44 23 0 9 -5
22 -11 28 -7 7 -2 15 16 27 19 12 24 23 20 36 -5 15 1 23 22 32 15 7 29 13 31
14 2 1 -6 12 -17 23 -12 12 -21 28 -21 35 0 13 5 13 38 0 20 -9 44 -25 53 -36
23 -30 35 -4 12 27 -20 27 -75 50 -98 41 -8 -3 -15 -1 -15 4 0 6 7 10 16 10
14 0 14 2 3 16 -11 14 -11 18 4 29 9 7 17 17 17 24 0 6 9 11 21 11 15 0 26
-14 44 -54z m1873 -13 c-5 -68 -31 -137 -62 -162 -19 -16 -20 -8 -5 20 9 18 7
19 -16 13 -26 -6 -58 9 -95 46 -20 20 -16 30 10 30 9 0 27 11 40 25 13 14 29
25 35 25 6 0 29 16 51 35 21 19 41 35 43 35 2 0 2 -30 -1 -67z m-2233 -23 c0
-8 20 -44 43 -80 23 -36 42 -69 42 -73 -1 -5 7 -15 17 -22 14 -11 16 -16 6
-26 -7 -7 -13 -17 -13 -21 0 -4 9 1 20 12 19 19 50 18 50 -2 0 -6 11 -21 25
-34 14 -13 25 -28 25 -34 0 -5 11 -10 25 -10 14 0 25 -4 25 -8 0 -13 63 -33
73 -23 12 12 35 4 70 -26 18 -14 42 -23 64 -23 31 0 34 -2 22 -16 -10 -13 -10
-17 2 -25 18 -11 30 -7 41 14 4 9 12 25 17 35 5 10 22 18 44 20 28 2 38 -1 47
-18 l12 -22 22 21 c12 12 30 21 39 21 9 0 19 5 22 10 3 6 11 10 16 10 6 0 3
-8 -7 -17 -11 -12 -13 -18 -5 -21 12 -4 -37 -52 -53 -52 -5 0 -2 -8 5 -17 13
-16 12 -17 -4 -4 -11 9 -30 12 -53 8 -20 -4 -44 -2 -53 3 -11 5 -28 3 -49 -7
-34 -17 -40 -28 -19 -36 20 -8 41 8 32 24 -6 11 -5 12 6 2 7 -7 27 -13 44 -13
26 -1 85 -38 85 -54 0 -3 -38 -5 -85 -5 -47 1 -90 -3 -97 -8 -34 -27 -137 -14
-177 21 -9 7 -51 33 -94 56 -43 23 -96 57 -118 76 -23 19 -44 34 -48 34 -9 0
-7 42 3 58 10 17 -9 15 -24 -3 -7 -8 -10 -21 -7 -29 3 -8 2 -27 -2 -43 l-8
-28 -13 38 c-8 20 -19 37 -26 37 -13 0 -115 67 -197 129 l-58 44 83 55 c140
91 183 108 183 72z m1194 -30 c6 8 12 12 13 10 2 -3 12 -18 21 -33 10 -15 22
-25 27 -22 6 4 10 2 10 -3 0 -6 11 -13 25 -16 13 -3 44 -24 67 -46 38 -36 47
-40 78 -35 27 5 32 4 23 -5 -9 -10 -7 -20 5 -44 28 -52 23 -70 -23 -79 -61
-11 -110 -9 -157 9 -24 9 -65 20 -93 24 -73 12 -105 21 -111 31 -3 5 -14 9
-25 9 -10 0 -19 4 -19 9 0 5 -13 12 -29 16 -17 3 -31 14 -34 26 -3 11 -14 19
-27 19 -29 0 -80 -28 -80 -44 0 -7 -7 -19 -15 -26 -8 -7 -14 -18 -14 -24 1 -6
-3 -24 -9 -39 -7 -16 -12 -33 -12 -38 0 -5 -8 -9 -17 -9 -11 0 -14 3 -7 8 12
8 28 60 25 80 -1 6 2 12 8 12 5 0 14 14 20 30 5 17 15 30 20 30 6 0 11 6 11
13 0 20 48 42 81 39 23 -3 28 0 23 12 -4 10 5 19 29 29 19 8 38 20 42 26 4 7
15 9 25 6 10 -3 21 -1 24 4 4 6 13 8 21 4 8 -3 15 0 15 5 0 15 33 20 43 7 4
-6 10 -5 16 5z m993 -221 c20 -72 24 -190 7 -239 l-12 -33 -19 49 c-11 27 -33
92 -49 144 -17 52 -33 103 -36 113 -4 13 0 17 18 17 13 0 31 5 39 10 25 16 33
7 52 -61z m-2368 29 c39 -25 45 -37 19 -39 -17 -1 -17 -2 0 -6 19 -5 24 -48 6
-59 -8 -5 -6 -10 5 -16 9 -5 14 -13 11 -19 -4 -5 1 -19 9 -31 11 -16 12 -26 4
-41 -9 -17 -7 -24 10 -38 18 -14 20 -22 12 -48 -5 -19 -5 -33 1 -37 5 -3 6
-10 3 -16 -4 -6 1 -17 12 -25 17 -12 16 -14 -14 -25 -38 -14 -43 -33 -7 -24
19 5 23 3 19 -9 -5 -11 1 -15 18 -15 27 0 40 -8 33 -20 -3 -4 -50 11 -105 33
-104 42 -115 54 -85 93 8 10 15 25 15 33 0 24 -28 -8 -35 -40 -4 -16 -13 -29
-21 -29 -31 0 -140 53 -161 78 -12 15 -22 21 -23 15 0 -30 -90 5 -90 35 0 39
74 165 128 218 l56 54 72 0 c58 0 80 -4 108 -22z m2105 -198 c18 -58 39 -123
48 -145 32 -82 58 -135 65 -135 4 0 -3 24 -16 54 -13 30 -27 69 -31 87 -4 19
-23 83 -42 142 -19 60 -32 111 -29 114 10 10 71 -7 105 -30 19 -12 46 -29 60
-37 36 -23 56 -93 96 -335 56 -336 56 -335 -112 -398 -47 -18 -249 -87 -254
-87 -2 0 -4 35 -4 78 0 42 -4 140 -9 218 l-9 141 24 -1 c15 -1 25 5 27 17 3
16 0 18 -19 12 -19 -6 -21 -4 -16 14 3 13 0 21 -8 21 -7 0 -15 14 -19 31 -3
17 -27 61 -53 97 -29 41 -47 78 -50 101 -2 20 -6 43 -10 51 -15 36 -11 46 19
58 39 14 54 3 101 -75 18 -28 49 -77 70 -108 22 -31 47 -80 57 -108 21 -59 40
-73 40 -28 0 33 -22 88 -54 135 -13 19 -21 50 -22 86 -2 36 -10 70 -24 93
l-22 37 24 9 c12 5 26 6 29 2 4 -3 21 -53 38 -111z m-1889 -30 c0 -5 6 -10 12
-10 23 0 114 -51 126 -71 17 -27 -7 -35 -47 -15 -31 16 -73 21 -84 10 -13 -13
14 -45 33 -39 10 3 37 -2 60 -11 39 -16 43 -16 52 -1 14 27 53 20 81 -13 14
-16 30 -30 34 -30 13 0 55 -59 49 -69 -3 -5 -19 -11 -36 -15 -17 -3 -29 -10
-25 -15 3 -6 -4 -8 -15 -6 -11 2 -20 0 -20 -6 0 -5 -7 -9 -15 -9 -22 0 -18
-28 5 -32 14 -2 17 -7 11 -17 -9 -15 -51 -6 -51 10 0 22 -28 36 -66 35 -24 0
-52 7 -68 17 -26 18 -26 18 -9 47 16 29 16 30 -5 53 -13 14 -22 28 -20 33 1 5
-6 21 -16 36 -10 16 -15 35 -12 44 4 10 -1 25 -10 35 -16 18 -16 19 -1 19 10
0 17 7 17 15 0 8 5 15 10 15 6 0 10 -4 10 -10z m1710 -204 c14 -33 19 -84 24
-257 l6 -217 -27 -18 c-45 -30 -99 -43 -141 -33 -64 15 -81 10 -37 -10 l40
-19 -45 -20 c-25 -11 -77 -28 -116 -38 -77 -19 -78 -19 -219 42 -16 7 -59 24
-95 39 -36 14 -74 30 -85 35 -24 11 -94 39 -280 114 -77 31 -149 61 -160 66
-50 22 -98 42 -205 85 -63 26 -119 51 -124 56 -12 11 39 66 113 122 47 35 61
40 100 38 36 -1 56 5 92 27 40 26 51 29 92 22 43 -6 76 -20 49 -20 -20 0 -13
-17 8 -23 12 -3 20 -14 20 -26 0 -12 5 -21 11 -21 6 0 8 -7 5 -16 -20 -53 -18
-61 13 -61 38 0 48 -8 33 -26 -19 -22 -2 -28 26 -9 16 10 48 17 82 18 31 1 66
5 78 8 12 4 22 3 22 -2 0 -14 85 -52 117 -52 15 0 44 12 64 26 36 25 40 25 68
11 20 -10 47 -13 76 -10 29 3 52 0 61 -8 13 -10 17 -10 23 0 8 12 19 0 56 -57
6 -8 35 12 35 25 0 8 4 12 9 9 14 -9 41 4 41 20 0 8 5 14 10 14 7 0 10 23 9
58 -4 116 7 182 36 212 l27 29 36 -47 c19 -25 43 -64 52 -86z m-1665 -333 c30
-31 55 -59 55 -63 0 -4 -23 -18 -52 -30 l-52 -22 -26 30 c-59 70 -92 113 -88
117 10 10 56 24 81 24 21 1 41 -13 82 -56z"/>
<path d="M2270 3202 c0 -30 -6 -47 -22 -62 -23 -21 -82 -28 -93 -10 -3 6 -17
10 -31 10 -13 0 -24 -4 -24 -10 0 -5 9 -10 19 -10 11 0 23 -4 26 -10 3 -5 15
-10 26 -10 10 0 19 -4 19 -8 0 -15 -43 -31 -105 -38 -45 -5 -55 -9 -40 -15 11
-4 30 -8 42 -8 12 -1 28 -8 37 -16 19 -20 52 -19 101 4 48 21 60 36 70 79 8
40 24 41 32 2 3 -16 10 -30 15 -30 14 0 -1 56 -29 109 -35 67 -43 71 -43 23z"/>
<path d="M3130 2406 c0 -2 6 -22 14 -44 14 -39 8 -80 -17 -120 -13 -20 -106
-63 -120 -56 -7 4 -9 4 -6 0 7 -7 -32 -56 -44 -56 -3 0 -3 18 0 40 5 34 3 39
-10 34 -8 -3 -18 -23 -22 -44 -7 -40 11 -157 28 -177 12 -16 27 -7 27 17 0 10
4 21 9 25 15 9 114 -34 134 -58 17 -22 17 -22 35 -2 35 40 100 85 155 105 31
12 59 25 62 30 3 4 14 6 24 3 10 -3 22 0 25 6 4 6 3 11 -3 11 -5 0 -11 7 -13
14 -2 11 -18 5 -62 -25 -49 -33 -66 -39 -109 -39 -28 0 -48 3 -44 6 3 4 -2 23
-13 44 -11 21 -17 40 -14 43 12 12 4 179 -10 212 -13 29 -26 46 -26 31z"/>
</g>
</svg>
