<?xml version="1.0" standalone="no"?>
<!DOCTYPE svg PUBLIC "-//W3C//DTD SVG 20010904//EN"
 "http://www.w3.org/TR/2001/REC-SVG-20010904/DTD/svg10.dtd">
<svg version="1.0" xmlns="http://www.w3.org/2000/svg"
 width="554.000000pt" height="415.000000pt" viewBox="0 0 554.000000 415.000000"
 preserveAspectRatio="xMidYMid meet">
<metadata>
Created by potrace 1.16, written by Peter Selinger 2001-2019
</metadata>
<g transform="translate(0.000000,415.000000) scale(0.100000,-0.100000)"
fill="#000000" stroke="none">
<path d="M2720 3871 c-8 -5 -35 -12 -59 -16 -24 -4 -58 -16 -75 -26 -17 -10
-40 -19 -51 -19 -11 0 -49 -23 -84 -50 -36 -28 -70 -50 -77 -50 -7 0 -48 -38
-90 -85 -62 -67 -84 -100 -106 -157 -24 -62 -40 -84 -102 -143 -73 -70 -73
-70 -109 -183 -34 -106 -39 -116 -89 -162 -29 -27 -57 -50 -61 -50 -17 0 -87
-74 -87 -91 0 -10 -15 -30 -33 -46 -38 -32 -183 -210 -239 -293 -20 -30 -51
-86 -68 -125 -17 -38 -40 -88 -51 -111 -10 -23 -19 -52 -19 -66 0 -14 -9 -68
-20 -121 -17 -80 -20 -137 -21 -339 -1 -210 2 -256 20 -342 12 -54 21 -120 21
-147 0 -94 59 -332 130 -524 10 -27 21 -61 25 -75 3 -14 20 -62 37 -107 23
-62 39 -89 64 -108 18 -14 55 -47 82 -73 86 -84 174 -133 292 -162 138 -34
234 -45 420 -45 248 0 336 18 601 121 84 33 88 34 124 18 43 -18 110 -59 142
-88 13 -11 25 -17 28 -14 6 6 -113 96 -159 120 -34 18 -37 16 90 66 98 40 270
79 388 89 50 5 62 3 73 -13 31 -42 4 -104 -46 -104 -12 0 -19 -4 -16 -10 3 -5
14 -10 24 -10 10 0 24 -6 30 -14 10 -12 8 -19 -8 -35 -12 -12 -27 -21 -33 -21
-8 -1 -5 -7 6 -15 23 -18 14 -45 -15 -45 -13 0 -34 -14 -49 -32 l-27 -32 -84
13 c-46 8 -99 19 -116 27 -18 7 -33 9 -33 5 0 -20 124 -50 206 -51 57 0 62 2
68 24 4 18 15 25 41 30 38 7 55 30 37 48 -8 8 -5 18 14 34 19 18 23 30 18 49
-4 15 -1 32 6 40 19 23 14 71 -9 104 -12 16 -21 31 -21 34 0 2 20 7 45 10 24
4 53 10 62 15 10 5 43 21 73 35 141 68 240 213 240 350 0 45 -25 83 -116 178
-24 26 -44 50 -44 54 0 4 -12 18 -26 30 l-27 23 45 69 c25 37 52 82 62 98 9
17 23 41 32 55 l16 25 -21 -25 c-11 -14 -48 -69 -82 -123 -34 -55 -68 -101
-76 -104 -7 -3 -25 3 -41 13 -15 10 -40 19 -57 21 -16 2 -37 9 -47 16 -10 6
-47 70 -83 141 -64 128 -65 130 -46 150 24 27 41 60 41 81 0 22 -104 161 -132
176 -26 14 -140 14 -165 0 -10 -5 -49 -17 -88 -26 -69 -18 -82 -23 -127 -47
-20 -11 -150 -24 -308 -31 -65 -2 -103 6 -118 26 -17 22 -82 23 -124 1 -30
-16 -139 -17 -154 -2 -3 4 4 24 17 45 22 39 23 39 156 78 13 4 48 67 71 125
19 50 41 237 42 365 1 61 4 103 7 95 3 -8 13 -33 23 -55 10 -22 20 -66 24 -97
3 -32 16 -83 27 -113 38 -102 70 -48 47 78 -6 33 -5 37 7 27 8 -7 15 -17 15
-23 0 -18 53 -67 73 -67 22 0 20 9 -23 115 -28 69 -34 102 -32 159 2 19 6 27
16 23 14 -6 58 93 71 163 4 19 21 62 38 95 38 76 46 103 57 196 7 59 14 83 32
101 36 37 78 87 78 92 0 3 14 28 30 56 17 28 30 64 30 79 0 16 7 34 15 41 38
32 4 172 -58 233 -20 21 -37 43 -37 50 0 7 -18 30 -40 52 -21 22 -39 43 -40
47 0 7 -44 56 -130 148 -58 61 -134 87 -180 61z m333 -596 c20 -8 55 -15 77
-15 38 0 41 -2 34 -22 -18 -59 -68 -139 -127 -204 -43 -48 -66 -83 -70 -105
-3 -19 -9 -53 -12 -75 -5 -31 -13 -44 -31 -53 -52 -23 -52 -25 -58 182 -3 105
-7 207 -8 226 -4 48 33 69 143 79 9 1 33 -5 52 -13z m-885 -357 c2 -80 21
-199 43 -283 7 -22 11 -52 11 -67 0 -15 14 -62 32 -105 18 -43 39 -107 46
-143 7 -36 16 -69 20 -75 4 -5 13 -46 20 -89 6 -43 18 -95 24 -115 7 -20 19
-79 26 -131 15 -109 7 -151 -36 -191 l-25 -23 58 -12 c85 -18 139 -17 185 6
51 25 57 25 82 1 26 -23 79 -41 120 -41 17 0 38 -5 46 -10 12 -7 10 -14 -15
-40 -17 -18 -51 -43 -77 -56 -60 -30 -227 -74 -284 -74 -34 0 -51 -6 -76 -30
l-33 -29 47 -1 c36 0 50 5 61 20 10 15 48 29 132 50 152 39 209 69 273 145
l24 27 126 -6 c204 -10 208 -11 232 -60 11 -23 20 -52 20 -64 0 -18 5 -21 28
-17 76 12 108 14 118 7 18 -11 134 -253 134 -278 0 0 -67 -4 -148 -7 -82 -3
-161 -11 -178 -17 -16 -7 -60 -18 -99 -25 -38 -7 -95 -20 -126 -29 -33 -9
-112 -18 -195 -20 -137 -5 -138 -4 -114 14 14 10 50 26 80 36 30 9 60 20 65
24 6 4 26 11 45 15 35 8 181 63 190 72 7 8 -36 -5 -110 -31 -36 -13 -92 -31
-125 -41 -33 -10 -130 -51 -215 -92 -85 -41 -177 -86 -205 -99 -81 -38 -223
-77 -330 -90 l-100 -13 83 5 c51 3 82 1 82 -5 0 -18 -55 -73 -195 -196 -75
-66 -177 -159 -227 -207 -50 -49 -98 -88 -108 -88 -32 0 -58 46 -93 165 -20
66 -58 191 -86 279 -43 135 -55 191 -81 380 -16 121 -34 240 -40 264 -13 54
-13 302 0 390 5 37 14 103 21 147 29 205 114 375 301 600 81 99 153 155 197
155 15 1 70 22 124 49 l97 48 0 -34 c0 -49 -13 -68 -108 -160 -56 -54 -82 -86
-76 -94 6 -10 10 -8 18 6 16 27 77 85 128 122 36 25 51 45 73 100 27 63 74
142 85 143 3 0 6 -37 8 -82z m1269 -1160 c38 -17 56 -36 47 -49 -4 -8 -3 -9 4
-5 7 4 12 1 12 -9 0 -9 4 -13 10 -10 15 10 70 -86 60 -105 -22 -40 -40 -45
-172 -45 -120 -1 -128 0 -134 20 -4 11 -13 28 -21 37 -8 9 -12 22 -7 29 4 8 3
10 -4 5 -7 -4 -12 -3 -12 3 0 14 -65 31 -120 32 -42 1 -43 1 -16 9 16 5 34 6
39 3 6 -3 7 -1 3 5 -4 7 7 13 31 18 21 4 43 10 48 14 6 4 48 17 94 29 46 11
86 23 89 26 8 8 19 6 49 -7z m318 -570 c32 -11 71 -26 86 -34 35 -17 71 -63
62 -78 -3 -6 -3 -8 1 -5 10 10 69 -49 109 -108 l35 -51 -19 -54 c-10 -29 -18
-61 -19 -71 0 -30 -101 -153 -113 -140 -4 3 -7 2 -7 -4 0 -17 -138 -96 -155
-89 -9 3 -13 2 -10 -4 3 -6 -2 -10 -11 -10 -10 0 -45 -9 -78 -20 -34 -11 -74
-25 -91 -30 -51 -16 -178 -39 -227 -42 -25 -2 -44 -5 -42 -7 2 -3 -10 -10 -28
-17 -18 -6 -69 -26 -113 -44 -131 -53 -178 -70 -183 -65 -3 3 -10 -2 -16 -10
-6 -8 -20 -16 -31 -18 -11 -2 -32 -9 -48 -15 -172 -71 -267 -84 -554 -80 -228
4 -255 6 -338 30 -136 38 -198 70 -266 138 l-60 60 47 55 c45 51 56 60 77 56
5 -1 6 3 2 9 -3 5 0 10 7 10 7 0 18 10 23 23 6 12 26 30 45 39 19 10 34 20 32
23 -5 10 51 64 61 58 6 -3 7 -1 4 4 -4 6 3 18 16 26 12 8 36 27 53 43 17 16
47 43 66 60 19 17 46 45 59 63 30 42 54 51 159 62 47 4 103 13 125 18 123 31
306 81 344 95 24 9 49 16 57 16 7 0 25 5 41 12 15 6 31 12 35 12 3 1 10 4 14
9 4 4 18 7 31 7 13 0 52 9 86 21 34 12 83 22 109 23 25 0 44 4 43 7 -10 15
117 33 275 39 197 8 221 6 305 -22z"/>
</g>
</svg>
