<?xml version="1.0" standalone="no"?>
<!DOCTYPE svg PUBLIC "-//W3C//DTD SVG 20010904//EN"
 "http://www.w3.org/TR/2001/REC-SVG-20010904/DTD/svg10.dtd">
<svg version="1.0" xmlns="http://www.w3.org/2000/svg"
 width="556.000000pt" height="415.000000pt" viewBox="0 0 556.000000 415.000000"
 preserveAspectRatio="xMidYMid meet">
<metadata>
Created by potrace 1.16, written by Peter Selinger 2001-2019
</metadata>
<g transform="translate(0.000000,415.000000) scale(0.100000,-0.100000)"
fill="#000000" stroke="none">
<path d="M4179 3622 c-15 -7 -65 -42 -201 -141 -68 -50 -142 -144 -158 -199
-12 -45 -13 -182 -1 -182 4 0 16 -19 25 -43 9 -24 28 -59 41 -77 24 -32 25
-41 25 -161 0 -71 5 -152 12 -181 l12 -53 7 75 c10 117 61 210 115 210 27 0
49 -48 48 -107 -1 -43 0 -44 143 -173 103 -93 164 -140 215 -166 77 -39 78
-54 5 -54 -21 0 -73 -7 -115 -15 -266 -52 -242 -44 -307 -102 -33 -30 -72 -56
-87 -59 -14 -4 -66 -40 -115 -82 -48 -41 -113 -97 -144 -123 -59 -51 -49 -48
-211 -64 -192 -19 -332 -64 -386 -124 -36 -39 -115 -165 -154 -246 -14 -27
-41 -79 -61 -113 -21 -35 -37 -70 -37 -77 0 -8 -5 -17 -11 -20 -5 -4 -44 -76
-85 -161 l-75 -154 -47 -1 c-26 -1 -58 -2 -72 -4 -29 -3 -218 -12 -453 -21
-125 -5 -170 -11 -179 -21 -27 -33 -2 -200 47 -308 23 -50 68 -95 94 -95 6 0
11 -4 11 -9 0 -15 92 -49 177 -65 71 -13 281 -15 1687 -16 l1606 0 0 765 0
765 -76 0 c-75 0 -114 11 -114 32 0 6 -26 41 -58 77 -62 70 -65 73 -139 166
-26 33 -51 62 -55 63 -5 2 -8 8 -8 13 0 9 -18 33 -62 80 -34 36 -35 46 -3 83
14 16 25 33 25 37 0 4 5 20 12 36 14 35 16 40 23 78 3 17 14 68 25 115 28 124
39 260 28 347 -10 88 -48 210 -84 270 -27 47 -131 153 -149 153 -6 0 -21 14
-33 30 l-23 30 -332 -1 c-183 0 -339 -3 -348 -7z"/>
<path d="M2470 3203 c-63 -1 -239 -7 -390 -13 -151 -6 -394 -15 -540 -20 -247
-9 -342 -13 -530 -25 -131 -9 -508 -24 -730 -30 -118 -3 -228 -8 -244 -12
l-28 -5 5 -562 c4 -481 28 -1174 42 -1213 6 -17 72 -16 310 2 105 7 232 15
284 16 52 1 131 5 175 10 146 14 437 31 443 26 3 -3 2 -23 -2 -45 l-6 -39
-217 -8 c-119 -4 -228 -9 -242 -10 -14 -1 -33 -3 -42 -4 -11 0 -18 -9 -18 -21
0 -20 14 -25 125 -49 68 -14 156 -27 210 -30 27 -2 28 -3 11 -14 -10 -7 -37
-27 -60 -44 -22 -18 -47 -33 -53 -33 -7 0 -13 -4 -13 -9 0 -5 -9 -12 -19 -16
-27 -8 -71 -55 -71 -75 0 -10 7 -21 16 -24 18 -7 134 29 289 89 250 98 182 88
542 75 383 -14 436 -13 441 14 5 23 -14 36 -53 36 -16 0 -115 18 -219 39
l-189 38 29 18 c88 55 105 67 101 78 -4 13 -25 14 -102 4 -27 -4 -76 -9 -108
-12 l-58 -6 3 38 c3 37 4 38 53 45 28 3 82 9 120 12 121 10 207 20 465 56 74
10 178 22 230 26 52 3 111 8 130 9 120 9 187 18 198 27 9 8 12 160 12 697 0
377 -3 750 -7 829 l-6 142 -86 -2 c-47 -1 -138 -3 -201 -5z m204 -195 c3 -62
8 -393 12 -735 6 -587 5 -623 -11 -623 -19 0 -248 -20 -505 -45 -158 -15 -224
-20 -625 -55 -126 -11 -277 -24 -335 -30 -182 -17 -428 -39 -615 -55 -99 -9
-224 -20 -278 -25 -54 -6 -118 -10 -142 -10 l-45 0 0 38 c0 20 -6 251 -15 512
-28 877 -31 1005 -26 1011 4 4 215 16 471 28 256 12 557 26 670 31 113 6 356
17 540 25 512 23 842 39 882 43 14 2 17 -14 22 -110z"/>
</g>
</svg>
