<?xml version="1.0" standalone="no"?>
<!DOCTYPE svg PUBLIC "-//W3C//DTD SVG 20010904//EN"
 "http://www.w3.org/TR/2001/REC-SVG-20010904/DTD/svg10.dtd">
<svg version="1.0" xmlns="http://www.w3.org/2000/svg"
 width="558.000000pt" height="414.000000pt" viewBox="0 0 558.000000 414.000000"
 preserveAspectRatio="xMidYMid meet">
<metadata>
Created by potrace 1.16, written by Peter Selinger 2001-2019
</metadata>
<g transform="translate(0.000000,414.000000) scale(0.100000,-0.100000)"
fill="#000000" stroke="none">
<path d="M2467 4053 c-1 -1 -38 -4 -82 -6 -84 -6 -115 -13 -115 -28 0 -5 -13
-9 -29 -9 -16 0 -37 -8 -47 -17 -9 -10 -36 -25 -58 -34 -27 -11 -41 -23 -41
-35 0 -11 -6 -18 -13 -16 -7 1 -15 -11 -18 -28 -4 -16 -15 -32 -25 -35 -10 -3
-32 -19 -48 -34 -17 -16 -32 -27 -34 -24 -3 2 -11 -17 -20 -43 -12 -36 -13
-51 -4 -65 9 -15 7 -24 -9 -46 -36 -49 -44 -85 -39 -158 12 -178 14 -336 3
-329 -6 4 -8 3 -5 -3 4 -6 -12 -27 -34 -47 -22 -20 -38 -36 -35 -36 10 0 -44
-100 -54 -101 -20 -3 -26 -5 -77 -34 -30 -17 -53 -37 -53 -46 0 -9 -7 -22 -15
-29 -8 -7 -15 -20 -15 -29 0 -9 -8 -36 -17 -61 -13 -35 -17 -82 -18 -212 0
-93 -4 -168 -9 -167 -4 0 -16 -9 -26 -21 -19 -22 -21 -22 -172 -11 -84 7 -245
19 -358 27 -113 8 -246 17 -296 18 -50 2 -96 6 -102 10 -7 4 -40 7 -74 7 -35
-1 -92 1 -128 3 -36 2 -126 7 -200 11 -74 3 -145 9 -157 12 -25 6 -23 89 -26
-1058 -2 -750 -2 -755 18 -752 39 7 44 -7 35 -92 -5 -44 -16 -143 -25 -220 -8
-77 -19 -155 -24 -172 -5 -18 -7 -58 -4 -88 l6 -55 387 0 387 0 21 23 c25 26
28 50 9 64 -6 6 -106 25 -222 43 -116 18 -214 36 -218 40 -7 6 -4 71 17 352 1
21 5 40 8 44 5 5 420 -47 491 -62 27 -6 28 -9 22 -40 -9 -49 7 -71 62 -83 38
-8 443 -104 913 -216 31 -8 59 -21 65 -31 6 -9 18 -24 28 -33 23 -21 22 -25
-20 -65 -35 -33 -36 -36 -15 -36 15 0 31 13 50 40 23 33 33 39 62 40 20 0 44
6 55 13 17 12 45 8 200 -30 262 -63 259 -63 486 -63 l208 0 120 158 c116 155
119 160 126 223 10 97 9 95 60 91 31 -3 58 3 88 17 56 27 62 27 94 -9 33 -37
69 -39 126 -5 62 35 160 38 205 5 28 -21 34 -22 56 -10 21 11 48 8 203 -24 98
-20 293 -59 433 -87 301 -60 236 -47 600 -121 486 -97 440 -91 440 -58 0 17
-5 19 -105 36 -11 2 -51 8 -90 13 -87 12 -107 15 -275 52 -74 16 -146 31 -160
34 -157 28 -416 87 -426 97 -20 22 -54 153 -54 208 0 28 -11 85 -25 126 -34
101 -32 116 15 168 22 24 40 51 40 60 0 9 12 40 26 68 19 37 26 66 26 113 1
34 -1 66 -4 71 -3 5 -9 27 -13 49 -4 22 -10 45 -15 50 -4 6 -10 37 -13 70 -6
76 -62 337 -93 435 -20 64 -89 313 -99 360 -2 8 -4 15 -5 15 -1 0 -3 7 -5 15
-27 122 -76 301 -87 316 -4 6 -5 14 -1 17 3 4 1 7 -5 7 -10 0 -21 16 -54 80
-7 14 -17 30 -23 35 -25 25 -114 95 -120 95 -4 0 -37 20 -74 44 -36 24 -69 45
-74 45 -4 0 -20 7 -36 15 -39 21 -88 30 -206 40 -76 6 -150 30 -185 59 -17 15
-44 30 -58 33 -15 4 -35 13 -45 19 -12 9 -30 10 -54 5 -19 -5 -44 -7 -54 -5
-21 4 -26 -10 -8 -21 7 -4 -14 -32 -54 -73 -51 -51 -79 -93 -126 -185 -62
-121 -88 -159 -236 -350 -46 -60 -92 -128 -101 -152 -15 -40 -34 -59 -34 -34
0 11 -154 170 -165 170 -4 0 0 -10 11 -22 10 -12 -6 -1 -37 25 -47 39 -129
149 -129 172 0 6 40 1 83 -11 9 -3 26 -23 38 -45 22 -44 66 -76 117 -85 26 -5
51 3 127 40 52 25 99 46 103 46 32 0 136 161 171 262 15 46 31 92 35 103 4 11
-2 4 -13 -15 -11 -19 -29 -62 -41 -95 -11 -33 -44 -96 -73 -140 -48 -73 -58
-83 -123 -115 -39 -20 -78 -40 -85 -47 -23 -18 -96 -26 -134 -13 -23 8 -45 27
-66 57 -17 24 -29 45 -27 47 1 1 28 10 58 19 30 9 83 35 118 58 73 48 172 136
172 153 -1 6 -9 0 -20 -12 -31 -37 -139 -113 -214 -152 -54 -27 -84 -35 -138
-38 l-69 -4 -47 49 c-98 102 -185 208 -199 243 -7 19 -20 49 -27 65 -8 17 -17
46 -19 66 l-5 36 87 11 c110 13 160 37 161 74 0 69 28 76 78 17 19 -22 45 -44
57 -49 14 -5 63 -1 130 10 122 21 150 36 215 118 40 50 76 79 87 69 2 -3 -1
-24 -7 -48 -8 -29 -9 -73 -4 -133 4 -50 9 -84 11 -75 3 12 15 16 43 16 37 0
40 -2 40 -28 0 -19 5 -29 15 -29 8 0 15 5 15 11 0 16 20 0 30 -25 l9 -21 0 22
c1 12 -6 29 -15 38 -24 24 -2 45 23 23 20 -18 124 -30 145 -17 8 6 -6 9 -37 9
-67 0 -145 28 -145 52 0 10 7 18 15 18 8 0 15 5 15 12 0 6 10 22 23 36 20 21
22 34 22 126 0 82 -3 106 -16 119 -16 16 -38 152 -26 163 8 8 -21 85 -39 105
-9 10 -17 23 -18 31 -5 25 -24 63 -50 101 -14 21 -26 45 -26 53 0 9 -9 18 -20
21 -11 3 -20 12 -20 19 0 22 -87 104 -109 104 -12 0 -21 3 -21 8 0 11 -77 42
-106 42 -14 0 -35 5 -47 12 -18 10 -103 19 -110 11z m173 -365 c0 -5 23 -32
50 -60 28 -28 50 -59 50 -70 0 -11 11 -29 25 -40 14 -11 25 -29 25 -42 0 -12
4 -26 9 -31 17 -17 23 -107 9 -117 -7 -4 -63 -8 -124 -8 -90 0 -129 -5 -200
-26 -49 -14 -103 -34 -121 -45 -29 -18 -38 -19 -92 -8 -52 10 -187 9 -255 -3
-26 -4 -36 39 -38 162 -2 87 1 101 29 161 29 63 32 66 59 61 16 -3 35 -11 42
-19 24 -24 226 -19 241 6 4 6 24 11 45 13 20 1 40 6 42 10 3 4 11 8 18 8 14 0
53 17 115 49 34 18 71 17 71 -1z m692 -687 c13 -5 32 -12 43 -16 18 -6 17 -7
-7 -23 -14 -9 -49 -41 -78 -69 -54 -54 -74 -66 -63 -36 5 12 2 15 -10 10 -11
-4 -17 -1 -17 7 0 9 -9 12 -26 8 -26 -5 -26 -4 -10 14 9 10 32 38 52 61 21 25
46 43 62 46 15 2 28 5 29 6 1 0 12 -3 25 -8z m-1346 -91 c40 -59 45 -74 40
-103 -6 -31 -40 -76 -50 -66 -2 2 -11 33 -20 69 -9 35 -24 72 -33 82 -17 19
-76 23 -123 8 -19 -6 -10 -8 35 -9 33 -1 66 -5 72 -9 15 -9 53 -115 53 -146 0
-27 -27 -66 -44 -66 -8 0 -19 24 -27 60 -10 48 -18 61 -38 70 -43 17 -141 17
-141 0 0 -5 26 -8 58 -7 35 1 65 -3 74 -10 8 -7 23 -40 33 -74 l19 -62 -23
-18 c-13 -11 -32 -19 -42 -19 -20 0 -26 -15 -9 -25 6 -3 10 -1 10 4 0 6 9 11
20 11 10 0 34 14 52 30 79 73 138 143 138 162 0 26 27 88 38 88 5 0 16 -19 26
-42 16 -42 16 -43 -12 -83 -42 -59 -87 -144 -102 -190 -23 -72 -54 -117 -110
-157 -45 -32 -57 -47 -65 -81 l-11 -41 -46 3 c-26 1 -55 -2 -66 -8 -32 -17
-68 31 -93 124 -17 68 -20 98 -15 192 3 62 13 133 21 158 9 25 13 50 10 55 -3
5 3 17 15 27 11 10 20 23 20 30 0 35 166 111 242 112 l48 1 46 -70z m1507 6
c35 -14 111 -31 168 -40 71 -10 127 -25 177 -47 72 -32 90 -49 52 -49 -25 0
-90 -31 -90 -43 0 -4 10 -5 23 -1 110 35 142 32 210 -21 92 -73 172 -212 192
-336 4 -24 18 -87 32 -139 14 -52 34 -126 45 -165 10 -38 27 -95 37 -125 24
-71 102 -397 116 -490 l8 -45 -34 33 c-18 17 -37 32 -41 32 -5 0 -6 5 -2 12 4
6 3 8 -4 5 -5 -4 -18 -4 -27 -1 -15 6 -15 8 5 19 19 10 20 13 6 18 -10 4 -15
3 -11 -3 3 -6 1 -10 -4 -10 -6 0 -11 9 -11 19 0 11 -7 26 -15 34 -13 13 -13
16 2 21 14 6 14 8 1 24 -16 19 -29 47 -35 77 -2 10 -8 22 -14 25 -5 4 -7 14
-3 24 3 9 0 24 -8 34 -19 22 -48 86 -48 104 0 8 -11 38 -25 67 -15 31 -23 61
-20 72 8 24 -3 61 -16 54 -5 -4 -9 2 -9 13 0 10 -11 47 -25 82 -14 35 -25 77
-25 93 0 21 -12 41 -40 69 -22 22 -40 43 -40 46 0 3 -22 26 -48 52 -26 25 -57
59 -69 74 -18 23 -25 25 -41 17 -17 -9 -19 -8 -15 9 3 11 0 20 -6 20 -6 0 -16
11 -21 25 -6 17 -17 25 -32 25 -14 0 -27 9 -33 22 -6 13 -19 27 -31 33 -11 6
-19 16 -16 23 2 7 -6 12 -22 12 -14 0 -26 5 -26 10 0 14 -27 12 -33 -2 -3 -7
-6 -1 -6 13 -1 24 -23 45 -43 41 -14 -3 -8 25 7 38 8 7 15 16 15 21 0 17 -24
9 -52 -18 -15 -15 -28 -21 -28 -14 0 7 -5 9 -10 6 -6 -4 -8 -15 -5 -26 4 -10
2 -26 -3 -35 -8 -15 -10 -15 -15 0 -4 10 -3 15 3 11 11 -7 12 12 2 36 -4 10
-18 15 -34 15 -14 -1 -26 3 -25 8 1 5 -13 13 -31 16 -18 4 -35 9 -37 11 -5 6
25 92 37 107 14 16 15 16 91 -12z m-1300 -193 c34 -42 36 -48 23 -67 -8 -12
-19 -20 -25 -18 -6 1 -11 -2 -11 -7 0 -5 -15 -13 -32 -16 -18 -4 -55 -18 -82
-31 -27 -13 -51 -22 -53 -20 -6 6 59 125 83 151 12 12 24 30 27 39 11 27 30
18 70 -31z m87 -111 c32 -48 71 -132 62 -132 -4 0 0 -5 8 -10 10 -7 11 -10 2
-10 -7 0 -15 7 -18 15 -7 18 -26 20 -23 3 3 -26 -2 -33 -24 -34 -17 -1 -30 10
-50 41 -15 24 -35 49 -43 56 -14 11 -14 8 1 -26 30 -69 35 -95 24 -123 -6 -15
-10 -28 -10 -29 4 -14 -2 -23 -14 -23 -8 0 -15 5 -15 10 0 6 5 10 10 10 6 0
10 5 10 10 0 19 -22 10 -27 -10 -3 -12 -11 -19 -17 -17 -6 3 -24 -3 -41 -13
-32 -19 -91 -35 -112 -31 -7 1 -13 -3 -13 -9 0 -6 -4 -8 -10 -5 -5 3 -10 1
-10 -4 0 -6 -5 -11 -11 -11 -15 0 -6 34 31 113 17 36 30 71 30 78 0 20 -48
-54 -82 -127 -31 -66 -48 -75 -48 -25 0 16 -7 34 -15 41 -12 10 -5 21 46 73
33 34 73 76 89 93 18 20 59 42 113 63 46 17 92 40 102 51 10 11 21 20 24 20 3
0 17 -17 31 -38z m-107 -1188 c9 -19 17 -42 17 -52 0 -14 11 -50 38 -122 3 -8
6 -17 6 -20 1 -3 4 -9 7 -15 4 -5 10 -26 15 -45 10 -44 9 -41 19 -65 4 -11 16
-41 26 -67 10 -26 35 -79 54 -118 20 -39 33 -75 30 -81 -7 -11 -73 -2 -91 12
-6 5 -13 6 -16 4 -3 -3 -25 -1 -49 5 -24 6 -55 13 -69 16 -14 2 -78 16 -144
30 -119 26 -140 30 -209 42 -21 4 -37 12 -36 17 1 6 51 64 113 129 61 65 116
124 121 130 44 48 93 126 99 156 3 18 39 80 46 80 3 0 13 -16 23 -36z m72
-605 c219 -44 400 -81 402 -83 2 -1 -11 -18 -29 -37 l-33 -35 -205 42 c-113
24 -297 63 -410 86 l-205 44 -3 38 -3 38 43 -7 c24 -4 223 -43 443 -86z m802
72 c29 -4 62 -16 73 -26 30 -27 120 -57 167 -56 57 2 130 -48 159 -110 69
-142 75 -159 55 -159 -11 0 -21 6 -24 13 -3 8 -11 6 -28 -9 -63 -56 -132 -63
-196 -20 -51 34 -53 50 -13 75 26 16 31 31 9 31 -4 0 -40 -27 -79 -60 -69 -58
-110 -74 -125 -49 -4 6 1 20 12 32 71 81 126 178 68 121 -12 -12 -19 -14 -27
-6 -8 8 -6 16 6 28 23 23 13 29 -20 12 -37 -17 -82 -85 -86 -128 -2 -19 -7
-34 -11 -32 -5 2 -15 -4 -21 -14 -21 -29 -43 -10 -50 44 -5 36 -1 67 15 118
26 85 52 124 84 124 13 0 27 5 30 10 10 16 -38 12 -63 -6 -12 -8 -31 -33 -42
-55 -12 -22 -28 -48 -37 -58 -8 -10 -28 -46 -43 -80 -15 -34 -33 -67 -40 -74
-10 -9 -11 -9 -6 1 6 10 1 11 -18 6 -51 -13 -56 -2 -31 73 31 95 69 166 107
202 18 17 27 31 19 31 -39 0 -118 -126 -145 -234 -16 -60 -31 -86 -49 -86 -7
0 -7 4 1 12 20 20 14 27 -12 15 -18 -9 -22 -15 -14 -24 6 -8 6 -13 1 -13 -5 0
-16 11 -23 25 -10 20 -11 28 -2 37 7 7 12 20 12 29 0 10 14 47 30 82 32 69 64
100 167 163 50 30 64 34 98 29 22 -4 64 -10 92 -14z"/>
</g>
</svg>
