<?xml version="1.0" standalone="no"?>
<!DOCTYPE svg PUBLIC "-//W3C//DTD SVG 20010904//EN"
 "http://www.w3.org/TR/2001/REC-SVG-20010904/DTD/svg10.dtd">
<svg version="1.0" xmlns="http://www.w3.org/2000/svg"
 width="554.000000pt" height="415.000000pt" viewBox="0 0 554.000000 415.000000"
 preserveAspectRatio="xMidYMid meet">
<metadata>
Created by potrace 1.16, written by Peter Selinger 2001-2019
</metadata>
<g transform="translate(0.000000,415.000000) scale(0.100000,-0.100000)"
fill="#000000" stroke="none">
<path d="M4016 4130 c-14 -14 -23 -17 -37 -10 -26 15 -32 12 -26 -11 4 -15 2
-19 -9 -15 -8 3 -13 2 -10 -3 8 -12 -74 -65 -97 -63 -11 0 -17 -5 -16 -16 3
-34 -2 -41 -36 -58 -19 -9 -35 -23 -35 -30 0 -8 -7 -14 -15 -14 -8 0 -15 -8
-15 -18 0 -10 -5 -23 -12 -30 -8 -8 -8 -15 3 -28 12 -16 12 -17 -3 -11 -20 7
-35 -9 -16 -16 8 -4 4 -8 -10 -13 -17 -5 -20 -10 -12 -19 6 -7 9 -19 8 -26 -2
-7 8 -15 22 -19 28 -7 30 -24 7 -84 -11 -28 -12 -49 -5 -82 5 -25 8 -71 6
-104 -1 -33 0 -60 5 -60 4 0 7 -10 7 -23 0 -12 9 -28 20 -35 16 -10 20 -10 20
1 0 8 9 22 20 32 26 23 16 38 -21 30 -16 -4 -29 -3 -30 2 -6 78 -3 219 5 257
12 53 4 49 116 60 55 5 137 36 165 62 18 17 38 24 64 24 21 0 44 6 50 14 9 11
20 12 51 4 42 -11 65 -37 73 -84 3 -16 8 -48 12 -72 7 -37 12 -44 49 -61 50
-21 149 -118 172 -166 20 -42 32 -44 40 -7 12 54 17 67 37 94 12 16 26 28 31
28 6 0 17 9 24 20 17 27 73 27 97 0 10 -11 16 -22 13 -25 -3 -3 -11 1 -18 10
-17 20 -53 19 -73 -3 -22 -24 -23 -56 -1 -48 9 3 21 6 27 6 8 0 7 4 -1 12 -17
17 -15 28 6 28 11 0 27 -9 38 -21 27 -30 23 -134 -6 -161 -28 -27 -25 -42 5
-21 14 11 25 28 25 43 0 33 20 65 20 34 0 -59 -63 -156 -118 -180 -25 -11 -25
-12 -5 -13 25 -1 29 -12 37 -106 3 -33 14 -87 26 -119 11 -33 20 -67 20 -77 0
-10 -48 -69 -107 -132 -60 -62 -124 -131 -143 -152 -19 -21 -36 -33 -37 -28
-2 6 -14 8 -27 6 -15 -3 -37 7 -68 30 -25 19 -54 37 -64 39 -14 2 -6 11 30 32
66 39 121 90 162 151 19 29 34 55 34 58 0 4 -28 -26 -63 -66 -98 -112 -198
-167 -304 -167 -77 0 -100 16 -109 78 -3 26 -11 53 -16 60 -8 9 -2 12 24 12
19 0 43 7 54 15 18 14 17 15 -11 9 -16 -3 -42 -9 -57 -14 -24 -8 -30 -4 -62
43 -19 29 -39 71 -44 94 l-10 42 38 15 c21 8 47 12 59 9 15 -4 21 -1 21 11 0
28 -30 30 -75 6 -34 -19 -45 -21 -63 -11 -26 14 -28 48 -7 136 17 68 19 121 6
129 -5 3 -9 -4 -9 -17 1 -41 -24 -177 -33 -177 -8 0 -12 17 -24 108 -4 31 -2
43 7 41 27 -3 35 2 33 23 -2 24 -32 33 -55 17 -11 -8 -12 -12 -3 -16 9 -3 10
-10 4 -21 -10 -19 3 -133 19 -161 5 -10 6 -21 3 -25 -3 -3 -1 -6 5 -6 7 0 12
-5 12 -11 0 -6 9 -22 20 -36 11 -14 17 -29 14 -34 -3 -5 0 -9 6 -9 6 0 8 -4 5
-10 -3 -5 -2 -10 3 -10 5 0 17 -19 28 -42 10 -24 27 -52 37 -63 21 -22 50 -75
42 -75 -9 0 32 -98 47 -114 9 -8 32 -18 52 -21 43 -8 44 -14 11 -39 -14 -10
-25 -27 -25 -36 0 -10 -7 -23 -15 -30 -8 -7 -15 -19 -15 -26 0 -8 -4 -14 -8
-14 -5 0 -14 -23 -20 -51 -17 -73 -14 -82 7 -22 31 84 142 236 160 218 3 -4
11 -49 16 -101 9 -81 8 -94 -4 -89 -9 3 -34 9 -57 12 -37 5 -46 2 -68 -21 -36
-40 -49 -110 -31 -177 19 -69 18 -72 -6 -26 -11 20 -21 37 -24 37 -4 0 20 -85
37 -129 9 -25 10 -25 24 -7 8 11 14 30 14 43 0 13 4 23 9 23 5 0 14 13 19 29
10 30 76 101 92 101 6 0 10 -27 10 -60 0 -33 4 -60 10 -60 6 0 10 28 10 64 0
106 20 137 140 215 37 25 83 66 107 98 23 30 79 94 125 141 46 48 112 120 147
160 40 45 71 72 84 72 15 0 18 -3 10 -11 -7 -7 -8 -24 -1 -52 11 -52 41 -127
50 -127 4 0 -14 -21 -40 -48 -51 -52 -141 -197 -236 -385 -34 -66 -69 -125
-78 -130 -27 -18 -48 1 -79 69 -29 63 -99 144 -126 144 -26 0 -61 -23 -73 -49
-7 -14 -16 -71 -20 -126 -6 -70 -18 -128 -40 -190 -17 -50 -34 -118 -37 -153
-6 -61 -7 -64 -45 -83 -47 -24 -60 -18 -53 24 3 18 2 45 -3 61 -8 28 -9 26
-25 -37 -15 -62 -50 -127 -69 -127 -4 0 -8 -7 -8 -15 0 -30 -20 -13 -55 48
-20 34 -46 72 -58 85 -19 21 -20 26 -9 67 7 25 12 62 12 81 0 45 81 214 127
264 28 32 31 40 23 66 -4 16 -9 21 -9 11 -1 -10 -16 -34 -33 -53 -18 -20 -41
-52 -52 -72 -10 -21 -24 -46 -29 -57 -38 -69 -56 -113 -57 -133 0 -20 -4 -23
-32 -20 -27 3 -33 9 -42 41 -6 20 -23 50 -38 66 -32 33 -48 88 -57 190 -6 73
-8 77 -49 98 -2 1 -8 20 -13 44 -9 38 -7 45 15 68 48 50 70 126 70 243 0 49
-5 64 -37 112 -21 31 -41 56 -46 56 -16 0 -61 -42 -61 -57 0 -13 -3 -13 -15
-3 -8 7 -12 16 -9 21 3 5 1 9 -5 9 -17 0 -36 49 -51 125 -7 39 -20 80 -28 93
-8 12 -10 22 -6 22 5 0 4 4 -2 8 -6 4 -24 45 -40 91 -27 80 -32 86 -73 108
-24 13 -52 23 -61 23 -39 0 -50 -47 -31 -133 5 -23 17 -94 27 -157 22 -147 15
-198 -30 -238 -25 -22 -32 -35 -30 -58 2 -16 4 -53 5 -82 1 -30 8 -59 16 -67
7 -8 14 -18 15 -22 0 -4 2 -12 3 -18 2 -5 8 -32 15 -60 6 -27 21 -66 34 -85
12 -19 26 -47 29 -61 6 -24 4 -27 -31 -33 -20 -3 -54 -17 -74 -31 -31 -21 -38
-32 -38 -58 0 -18 -7 -41 -15 -51 -8 -11 -15 -39 -15 -64 0 -24 -4 -41 -9 -38
-5 3 -9 0 -8 -7 0 -6 -1 -27 -1 -45 l-2 -32 -75 2 c-41 1 -75 4 -75 7 0 3 -73
6 -163 6 -187 0 -702 12 -1122 25 -159 5 -425 13 -590 16 -165 3 -301 7 -303
9 -1 1 4 15 12 31 42 86 85 172 114 230 19 36 32 68 29 70 -2 2 -16 -23 -31
-56 -24 -53 -30 -60 -49 -54 -12 3 -26 7 -31 8 -5 0 -34 -49 -64 -111 l-56
-112 -45 -3 -46 -3 -1 -40 c-1 -24 0 -29 3 -12 4 23 9 27 39 27 19 0 34 -3 34
-7 0 -4 -9 -26 -21 -50 -22 -46 -41 -54 -58 -25 -9 14 -10 11 -11 -18 0 -19
-5 -52 -11 -73 -9 -34 -11 -36 -26 -21 -14 14 -15 28 -5 122 7 59 14 139 17
177 4 39 11 106 16 150 17 131 19 172 8 153 -5 -9 -16 -83 -24 -165 -24 -233
-19 -216 -67 -210 -46 6 -68 1 -68 -17 0 -9 17 -12 52 -12 l53 1 0 -40 c0 -40
0 -40 -42 -43 -34 -3 -43 0 -43 13 0 9 -4 14 -9 11 -4 -3 -6 -39 -3 -79 3 -51
1 -77 -7 -82 -7 -4 -15 -4 -18 -1 -12 11 -22 121 -34 351 -6 127 -14 233 -18
237 -4 4 -5 -69 -3 -163 l4 -169 -29 2 c-16 1 -30 7 -31 13 -10 69 -57 363
-77 480 -13 83 -27 175 -31 205 -3 30 -8 57 -10 59 -3 3 -28 -7 -57 -22 -29
-14 -60 -29 -71 -32 -16 -5 -18 -13 -13 -63 3 -31 13 -95 21 -142 26 -138 66
-419 66 -460 l0 -39 -54 4 c-38 3 -58 0 -66 -10 -9 -11 2 -14 64 -20 l74 -7 7
-54 c3 -29 4 -73 1 -96 -4 -24 -8 -148 -11 -277 l-4 -233 23 -23 c39 -38 97
-49 266 -50 155 0 204 8 258 42 l23 14 -1 287 c-2 274 -1 289 19 335 17 35 27
47 44 47 12 0 256 -7 542 -15 286 -8 709 -19 940 -25 231 -5 490 -12 575 -15
85 -3 183 -5 217 -5 60 0 63 -1 68 -27 3 -16 15 -47 27 -71 23 -47 47 -58 102
-48 43 8 46 0 46 -110 0 -60 -4 -84 -12 -84 -8 0 -6 -4 3 -10 12 -7 18 -32 23
-97 16 -203 37 -261 119 -322 28 -22 75 -63 102 -91 60 -62 130 -110 161 -110
14 0 41 -22 80 -66 33 -36 76 -84 97 -106 21 -23 34 -44 30 -48 -4 -4 -44 -21
-88 -39 -44 -18 -186 -75 -315 -128 l-235 -95 -83 28 c-70 24 -81 31 -76 47 5
15 2 18 -13 14 -10 -3 -94 -29 -186 -58 -92 -28 -169 -50 -171 -48 -2 2 -6 16
-10 31 -6 27 -5 28 69 50 90 26 93 35 4 13 -104 -26 -119 -34 -119 -64 0 -32
17 -51 44 -51 23 0 119 25 244 64 l83 25 87 -31 c48 -16 98 -32 112 -34 16 -3
86 21 185 61 139 58 441 177 470 187 6 2 10 -2 10 -7 0 -6 -6 -9 -12 -9 -7 1
-10 -2 -7 -7 3 -5 12 -9 21 -9 9 0 14 -3 10 -6 -3 -4 -20 -2 -36 4 -19 7 -31
7 -31 1 0 -5 6 -9 13 -10 6 -1 1 -5 -13 -9 -24 -8 -24 -8 -2 -9 12 -1 22 -5
22 -11 0 -13 -6 -13 -31 1 -16 8 -18 14 -9 24 9 11 7 12 -9 8 -17 -4 -20 -11
-15 -36 6 -36 15 -48 21 -29 3 6 9 12 15 12 6 0 5 -7 -3 -16 -10 -13 -10 -17
0 -23 21 -13 -25 -41 -404 -241 -55 -29 -104 -56 -110 -60 -5 -4 -59 -33 -120
-65 -202 -106 -280 -148 -310 -165 -46 -27 -158 -87 -222 -119 -128 -65 -219
-60 1075 -61 702 0 1172 4 1172 9 0 13 -75 77 -143 125 -130 89 -237 110 -413
81 -80 -13 -108 -15 -114 -6 -7 13 -56 5 -66 -10 -3 -5 -17 -9 -31 -9 -15 0
-23 3 -20 6 11 12 121 54 140 54 9 0 17 5 17 10 0 6 -9 10 -20 10 -52 0 16 74
78 85 23 4 44 11 48 16 3 5 17 9 31 9 41 0 145 82 206 162 30 40 63 82 74 93
10 11 34 40 53 65 19 25 75 96 124 157 l90 113 24 -23 c23 -21 24 -27 19 -106
-6 -97 4 -179 28 -235 22 -52 38 -34 21 24 -9 31 -12 84 -9 172 4 122 4 128
-21 170 -25 43 -25 44 -8 71 l18 27 52 -53 c30 -30 66 -82 86 -123 19 -39 59
-99 89 -133 30 -35 66 -86 80 -114 l25 -51 -32 -45 c-63 -91 -213 -134 -340
-97 -76 22 -126 14 -167 -27 l-32 -31 -61 32 c-68 36 -134 43 -160 16 -23 -22
-11 -34 27 -28 17 3 43 2 56 -3 22 -9 20 -11 -25 -29 -27 -12 -102 -34 -166
-50 -65 -16 -118 -32 -118 -36 0 -5 6 -8 13 -8 24 0 243 50 282 64 71 27 81
23 129 -52 48 -75 104 -126 181 -165 28 -14 77 -50 110 -81 l60 -55 203 -1
202 0 0 473 c-1 313 -4 466 -10 455 -6 -9 -19 -46 -30 -81 -28 -89 -68 -174
-85 -181 -9 -3 -19 3 -25 15 -6 11 -39 54 -74 97 -34 42 -76 106 -93 142 -17
36 -49 85 -72 110 -54 57 -59 79 -31 132 95 179 202 405 203 428 0 8 16 37 35
64 18 26 29 45 23 42 -16 -10 -13 3 8 38 34 55 82 213 79 259 l-3 42 -13 -44
c-18 -57 -121 -155 -262 -245 -83 -53 -130 -97 -203 -190 -39 -51 -77 -101
-84 -112 -18 -30 -118 -203 -148 -259 -40 -72 -71 -112 -158 -205 -42 -45 -77
-89 -77 -97 0 -31 -17 0 -40 71 -35 113 -49 95 -19 -24 12 -47 12 -103 -1 -95
-5 3 -10 2 -10 -3 0 -14 -131 -116 -184 -142 -29 -14 -52 -33 -54 -43 -2 -10
4 -41 12 -68 31 -94 -2 -93 -82 2 -57 67 -72 100 -72 156 0 13 -4 21 -10 18
-5 -3 -56 41 -112 98 -93 95 -137 145 -206 240 -33 45 -55 130 -50 194 4 42 2
53 -8 49 -17 -7 -30 17 -39 71 -4 24 -18 59 -31 79 -14 20 -42 71 -63 113 -36
72 -38 78 -26 116 34 114 173 221 258 200 22 -6 56 -45 38 -45 -25 0 29 -158
74 -215 18 -22 35 -48 38 -58 4 -10 12 -15 18 -11 8 4 9 0 4 -15 -4 -15 -2
-21 9 -21 8 0 18 -5 22 -12 7 -12 -82 -6 -136 9 -21 6 -23 4 -13 -9 15 -17
106 -45 177 -53 28 -3 53 -10 56 -15 9 -14 97 -23 105 -10 10 17 43 11 64 -11
18 -20 21 -20 36 -5 20 19 10 20 85 -4 99 -32 245 -24 295 16 16 13 26 26 22
30 -4 4 -16 -1 -28 -12 -30 -27 -197 -33 -288 -9 -36 10 -68 19 -70 21 -8 7
44 142 67 173 14 19 47 43 73 55 48 21 62 36 34 36 -11 0 -9 8 10 35 13 20 32
57 41 83 10 26 27 59 38 74 11 15 17 31 13 34 -10 11 -47 -26 -68 -69 -11 -21
-26 -45 -34 -55 -8 -9 -22 -26 -31 -37 -9 -11 -5 0 9 25 14 25 42 86 62 135
21 50 51 110 68 135 40 59 139 180 168 206 52 46 120 124 108 124 -6 0 -67
-55 -133 -122 -123 -124 -208 -227 -221 -267 -3 -12 -10 -19 -15 -16 -4 3 -23
-15 -41 -40 -53 -70 -96 -76 -60 -8 37 69 70 153 61 153 -5 0 -21 -21 -34 -47
-14 -27 -49 -79 -79 -117 -49 -62 -58 -69 -91 -70 -35 -1 -36 0 -36 37 0 30 5
39 23 46 13 5 28 15 34 23 18 21 83 156 83 171 0 8 13 26 30 40 33 30 71 34
110 12 70 -40 107 2 248 285 9 19 19 37 22 40 3 3 19 32 35 65 16 33 53 84 80
113 l51 52 58 -52 c32 -29 89 -92 126 -139 37 -47 103 -117 146 -155 43 -38
125 -115 181 -171 56 -57 105 -103 108 -103 3 0 5 33 5 73 0 69 -2 74 -36 112
-93 104 -224 230 -271 262 -29 19 -67 48 -84 64 -30 28 -69 57 -155 116 -38
25 -44 37 -70 118 -16 51 -38 100 -51 113 -22 21 -30 23 -93 19 l-69 -5 -11
52 c-16 74 -23 158 -13 165 5 3 24 30 43 60 39 62 48 124 30 202 -9 35 -9 53
-1 62 13 17 7 166 -8 195 -6 11 -11 31 -11 44 0 13 -7 36 -15 52 -8 15 -15 34
-15 40 0 25 -92 138 -123 151 -18 7 -41 23 -51 34 -11 12 -25 21 -33 21 -7 0
-13 7 -13 15 0 18 -12 19 -28 3 -8 -8 -12 -9 -12 -1 0 8 -60 12 -207 12 -192
0 -209 -1 -227 -19z m-708 -818 c20 -55 55 -193 66 -260 5 -29 1 -38 -37 -72
-48 -45 -40 -52 15 -15 53 36 72 32 107 -19 17 -24 53 -64 81 -89 27 -25 50
-50 50 -56 0 -20 -5 -17 -102 59 -39 30 -85 31 -148 0 l-45 -21 40 6 c22 3 56
8 75 11 37 6 75 -15 146 -82 66 -62 31 -77 -68 -29 -51 24 -76 31 -84 24 -7
-6 -33 -11 -58 -12 -46 -2 -61 -12 -28 -20 14 -3 13 -6 -8 -15 -25 -11 -25
-11 -2 -11 12 -1 25 6 28 14 12 31 39 16 53 -30 7 -24 19 -50 27 -56 13 -10
13 -8 4 15 -5 15 -10 43 -10 62 0 48 22 40 35 -12 6 -21 18 -52 28 -69 10 -16
15 -21 11 -10 -18 52 -27 95 -22 101 4 3 25 -4 47 -17 33 -18 47 -21 69 -13
25 9 27 14 29 74 3 59 1 66 -19 75 -44 19 -49 95 -7 103 22 4 62 -68 67 -119
10 -107 -37 -253 -86 -266 -18 -4 -29 -64 -11 -60 6 1 19 -25 29 -57 18 -56
18 -60 2 -72 -29 -22 -73 -16 -105 14 -25 24 -36 27 -92 26 -63 -1 -64 0 -70
28 -4 16 -17 48 -30 71 -13 23 -31 69 -38 102 -8 33 -21 76 -29 96 -9 20 -15
59 -14 90 2 44 7 60 28 80 39 39 45 100 23 259 -10 74 -21 160 -25 190 -4 34
-3 58 3 62 20 13 55 -24 75 -80z m181 -970 c31 -26 67 -55 81 -64 28 -17 56
-75 90 -183 12 -38 31 -85 41 -103 24 -42 24 -52 0 -52 -27 0 -117 -74 -154
-126 -17 -24 -34 -44 -37 -44 -3 0 -13 13 -23 29 -12 21 -32 34 -72 46 -40 13
-66 30 -95 61 -22 24 -40 48 -40 54 0 11 -63 40 -87 40 -22 0 4 -29 37 -42 22
-8 23 -11 8 -19 -28 -16 -64 6 -87 53 -34 71 -28 85 41 107 20 7 42 19 50 28
11 15 11 16 -7 9 -11 -5 -33 -12 -48 -17 -16 -4 -35 -13 -42 -19 -17 -14 -29
3 -20 30 7 21 53 49 117 69 20 7 42 19 48 27 16 18 7 18 -29 -1 -16 -8 -47
-21 -70 -29 -37 -12 -43 -12 -48 1 -12 30 15 61 69 78 29 10 58 22 63 28 10 9
1 8 -72 -10 -19 -4 -23 -1 -23 21 0 43 75 71 204 75 44 1 53 -3 105 -47z
m-3276 -437 c19 -8 76 -19 126 -26 99 -13 232 -2 310 26 l41 14 0 -229 c0
-227 0 -230 -22 -244 -82 -52 -382 -54 -453 -2 -15 11 -16 16 -5 36 33 61 11
345 -29 378 -14 11 -14 14 -1 22 10 7 11 10 3 10 -7 0 -13 7 -13 15 0 18 0 18
43 0z m3206 -85 c14 0 36 -14 56 -36 26 -28 33 -43 30 -68 -7 -57 -13 -161 -8
-141 10 40 22 36 48 -16 15 -30 36 -66 46 -80 10 -15 25 -54 33 -88 8 -34 20
-69 27 -77 6 -8 13 -40 14 -72 1 -32 10 -72 19 -90 16 -31 16 -32 -2 -32 -25
0 -148 88 -163 117 -6 12 -38 43 -71 68 -76 59 -94 90 -107 189 -16 125 -31
282 -31 331 l0 44 43 -24 c23 -14 53 -25 66 -25z m682 -1329 c4 -45 15 -91 23
-103 20 -28 21 -82 1 -98 -8 -7 -15 -20 -15 -29 -1 -46 -2 -46 -314 -46 -162
0 -292 3 -289 8 2 4 9 7 14 7 5 0 19 9 31 20 11 10 35 26 52 34 17 8 56 31 86
51 30 19 60 35 66 35 7 0 14 3 16 8 2 4 48 34 103 66 55 33 102 62 105 65 10
13 105 70 108 66 3 -2 8 -40 13 -84z m69 -35 c1 -28 10 -76 21 -106 11 -30 17
-41 14 -25 -4 17 -9 60 -12 98 -4 57 -3 67 11 67 11 0 16 -9 16 -27 l1 -28 15
28 c8 15 20 27 26 27 7 0 7 -4 -1 -14 -8 -10 -9 -26 -2 -54 5 -23 7 -43 4 -45
-2 -3 11 -3 29 -1 l33 3 -25 -13 c-14 -8 -38 -37 -55 -65 -21 -37 -38 -54 -63
-62 -42 -14 -47 -8 -28 30 22 41 20 99 -4 144 -13 24 -20 55 -20 89 l1 53 19
-24 c14 -16 20 -39 20 -75z"/>
<path d="M4980 2270 c-114 -29 -152 -58 -254 -195 -37 -49 -95 -118 -128 -152
-34 -35 -59 -66 -55 -69 9 -10 81 42 120 86 17 20 70 81 117 135 93 106 145
148 221 175 44 15 59 26 47 34 -1 1 -32 -5 -68 -14z"/>
<path d="M5114 2098 c-19 -44 -191 -225 -251 -267 -18 -12 -33 -27 -33 -32 0
-12 117 47 154 78 81 68 198 263 158 263 -5 0 -18 -19 -28 -42z"/>
<path d="M4155 1438 c-36 -19 -87 -87 -113 -151 -30 -73 -40 -199 -23 -292 17
-91 34 -95 29 -6 -5 82 25 234 62 315 26 58 67 106 91 106 23 0 25 25 3 34
-20 8 -24 7 -49 -6z"/>
<path d="M1190 1320 c0 -5 2 -10 3 -10 2 0 107 -37 233 -81 126 -45 310 -110
409 -144 99 -35 302 -106 450 -159 149 -53 343 -122 432 -153 89 -31 160 -60
158 -63 -2 -4 6 -5 18 -4 12 1 29 3 37 4 21 2 -150 63 -1495 527 -104 37 -197
72 -206 80 -18 15 -39 17 -39 3z"/>
<path d="M705 1032 c-32 -6 -65 -43 -65 -72 0 -15 39 -89 95 -180 109 -179
144 -213 258 -253 16 -6 8 -26 -63 -167 -45 -88 -78 -165 -75 -170 8 -13 198
-2 620 35 28 2 62 4 77 5 33 0 68 35 68 67 0 27 4 28 60 8 64 -22 125 -20 150
7 11 12 20 32 20 44 0 25 -36 111 -118 286 -52 108 -63 126 -98 145 -58 32
-893 252 -929 245z m150 -57 c72 -19 186 -51 255 -70 69 -18 197 -53 285 -75
227 -59 249 -70 285 -141 18 -34 18 -37 2 -53 -16 -17 -16 -17 6 -14 21 3 29
-10 83 -129 32 -73 59 -135 59 -138 0 -18 -23 1 -39 33 -22 41 -27 39 -11 -5
10 -27 9 -26 -25 9 -46 49 -92 77 -192 116 -45 17 -116 48 -158 67 -43 19 -81
35 -85 35 -5 0 -41 15 -82 34 -64 29 -101 45 -118 51 -3 1 -16 6 -30 12 -14 6
-78 34 -143 61 -119 51 -237 118 -269 155 -33 36 -17 87 27 87 11 0 79 -16
150 -35z m458 -551 c63 -21 80 -31 93 -56 8 -16 13 -32 10 -35 -11 -11 -115
-11 -137 0 -37 19 -85 117 -57 117 7 0 48 -12 91 -26z"/>
<path d="M2340 461 c-131 -20 -143 -25 -193 -81 -44 -48 -46 -67 -9 -101 49
-46 68 -52 135 -40 97 17 299 52 326 56 13 2 28 8 33 13 6 6 17 8 24 5 26 -10
15 34 -18 77 -18 23 -49 51 -68 62 l-35 21 43 -41 c23 -23 42 -48 42 -56 0 -7
-15 -28 -34 -44 -38 -33 -61 -39 -259 -67 -117 -16 -118 -16 -152 5 -61 38
-62 53 -10 108 l45 49 140 18 c77 10 140 22 140 27 0 10 -13 9 -150 -11z"/>
</g>
</svg>
