<?xml version="1.0" standalone="no"?>
<!DOCTYPE svg PUBLIC "-//W3C//DTD SVG 20010904//EN"
 "http://www.w3.org/TR/2001/REC-SVG-20010904/DTD/svg10.dtd">
<svg version="1.0" xmlns="http://www.w3.org/2000/svg"
 width="554.000000pt" height="414.000000pt" viewBox="0 0 554.000000 414.000000"
 preserveAspectRatio="xMidYMid meet">
<metadata>
Created by potrace 1.16, written by Peter Selinger 2001-2019
</metadata>
<g transform="translate(0.000000,414.000000) scale(0.100000,-0.100000)"
fill="#000000" stroke="none">
<path d="M4078 3890 c-15 -24 -60 -26 -83 -4 -11 11 -27 15 -58 11 -68 -8
-121 -25 -134 -43 -10 -14 -15 -15 -28 -4 -22 18 -80 4 -119 -30 -19 -17 -40
-30 -49 -30 -8 0 -27 -16 -41 -35 -15 -19 -33 -35 -40 -35 -13 0 -86 -86 -86
-101 0 -4 -13 -2 -30 4 -41 16 -79 -14 -104 -81 -10 -29 -23 -49 -28 -46 -31
19 -98 -66 -98 -125 0 -14 -7 -35 -15 -45 -10 -14 -15 -45 -15 -100 0 -77 2
-83 33 -117 17 -20 53 -46 80 -57 l47 -21 0 -51 c0 -31 9 -73 25 -109 13 -33
29 -80 35 -106 11 -49 37 -94 55 -95 6 0 23 -11 38 -25 27 -25 27 -28 27 -146
0 -162 26 -214 101 -205 34 4 38 1 55 -35 11 -21 29 -43 42 -48 14 -7 22 -19
22 -35 0 -32 17 -44 70 -48 42 -3 45 -5 53 -40 11 -46 34 -67 81 -75 35 -5
110 11 130 28 5 4 16 3 25 -3 13 -8 27 -5 56 9 l39 20 17 -34 c16 -32 17 -36
1 -52 -9 -10 -46 -50 -81 -89 -36 -40 -71 -72 -78 -72 -7 0 -30 9 -50 20 -21
11 -45 20 -55 20 -9 0 -19 4 -23 9 -3 5 -19 12 -35 16 -16 4 -34 13 -38 22
-12 21 -77 21 -100 0 -23 -21 -40 -22 -62 -2 -25 22 -105 38 -198 39 -64 1
-83 4 -87 16 -2 8 -7 86 -10 172 -3 87 -7 165 -9 175 -2 10 -7 48 -10 85 -5
44 -12 68 -22 72 -19 7 -287 -3 -594 -23 -151 -10 -337 -20 -657 -37 l-121 -7
-7 56 c-12 95 -2 92 -221 73 -547 -47 -535 -47 -567 -31 -17 8 -38 15 -47 15
-21 0 -30 59 -30 201 l0 96 148 18 c97 11 153 23 165 33 15 13 17 35 17 171 0
86 -5 173 -11 194 -11 41 -56 77 -97 77 -13 0 -32 5 -42 10 -38 20 -246 50
-350 50 -100 0 -167 -13 -225 -43 -11 -5 -50 -12 -88 -15 -37 -3 -70 -9 -73
-13 -3 -5 -12 -9 -20 -9 -24 0 -97 -36 -126 -63 -21 -19 -40 -25 -100 -30 -70
-5 -95 -13 -226 -75 -32 -15 -32 -16 -32 -84 0 -39 4 -68 10 -68 6 0 10 4 10
8 0 5 16 25 35 45 41 42 69 46 165 23 51 -11 55 -15 58 -43 2 -17 12 -39 23
-49 10 -9 19 -29 19 -44 0 -25 5 -29 65 -44 35 -9 74 -16 87 -16 12 0 58 -8
100 -17 l78 -16 0 -137 c0 -151 -6 -167 -60 -162 -33 4 -60 -20 -60 -54 0 -24
-2 -25 -62 -22 l-62 3 3 52 c2 41 -2 56 -18 72 -27 27 -46 26 -72 0 -15 -15
-34 -22 -61 -22 -54 0 -78 25 -78 79 0 35 -4 44 -22 50 -27 8 -48 -18 -48 -61
0 -26 -5 -32 -33 -40 -28 -9 -35 -18 -54 -75 -15 -47 -22 -91 -22 -157 -1 -90
0 -93 23 -99 13 -3 26 -14 29 -25 7 -27 25 -24 33 6 8 33 34 33 34 0 0 -19 -6
-26 -27 -30 -76 -16 -78 -17 -78 -70 0 -28 3 -207 7 -400 3 -192 4 -339 2
-325 -3 14 -8 61 -13 105 -6 58 -9 -16 -10 -262 -1 -282 1 -343 12 -343 8 0
19 10 24 23 11 22 11 22 23 -8 10 -23 14 -26 17 -12 5 21 23 23 23 2 0 -21
-34 -36 -69 -29 l-31 6 0 -55 c0 -47 3 -57 20 -62 13 -4 31 2 50 15 33 23 42
9 14 -22 -16 -16 -16 -18 0 -24 9 -3 16 -17 16 -30 0 -13 4 -24 8 -24 20 0 31
53 36 172 6 120 5 129 -14 145 -32 28 -26 50 18 55 45 6 47 5 33 -20 -7 -12
-11 -83 -11 -174 0 -136 2 -156 20 -183 25 -38 25 -60 0 -85 -20 -20 -79 -27
-114 -14 -24 9 -7 34 24 34 46 0 80 17 80 40 0 24 -15 27 -24 4 -5 -14 -17
-15 -81 -9 l-75 7 0 -131 c0 -124 1 -131 20 -131 11 0 20 7 20 15 0 8 11 17
25 21 14 3 25 9 25 13 0 4 20 12 44 19 24 6 60 27 81 46 36 34 36 36 30 90 -4
31 -4 56 -1 56 4 0 20 -10 36 -22 25 -18 30 -29 30 -63 0 -37 -6 -48 -46 -88
-42 -41 -134 -87 -173 -87 -7 0 -11 -6 -8 -12 10 -31 133 13 197 69 l35 31 0
-132 0 -131 60 0 c58 0 60 1 63 28 2 16 -3 36 -11 45 -16 19 -28 82 -16 82 5
0 13 -9 19 -20 6 -11 16 -20 23 -20 7 -1 25 -11 40 -24 23 -18 28 -30 25 -56
-2 -28 -8 -35 -33 -42 -55 -16 -182 -12 -221 7 -24 11 -49 15 -72 12 -44 -8
-45 -9 -31 -40 8 -18 27 -31 59 -42 56 -18 77 -39 95 -92 l13 -38 79 -2 78 -3
25 35 c14 19 29 35 33 35 4 0 20 11 35 25 15 14 42 31 60 37 17 7 33 16 33 20
1 4 2 14 3 20 0 7 8 13 16 14 36 2 41 5 52 29 6 14 23 28 37 31 14 3 35 16 46
29 11 13 33 25 49 27 31 3 42 -9 85 -98 11 -22 27 -46 35 -53 8 -7 27 -44 42
-82 l27 -69 323 0 c309 0 326 1 376 22 43 17 74 22 163 22 97 1 115 -2 148
-21 36 -22 49 -23 219 -23 l181 0 -27 33 c-41 49 -64 105 -72 175 -6 57 -4 68
24 125 36 72 92 141 131 162 16 8 51 17 79 21 42 5 59 2 105 -20 31 -14 60
-26 65 -26 5 0 17 -9 27 -20 16 -18 17 -22 3 -37 -9 -10 -23 -35 -33 -55 -9
-21 -25 -40 -36 -43 -43 -14 -100 -130 -98 -200 1 -22 6 -12 18 35 24 87 47
130 71 130 13 0 29 19 52 62 42 81 71 96 142 78 28 -7 65 -21 82 -31 17 -11
46 -19 65 -19 34 0 31 -14 -6 -23 -11 -2 59 -2 155 0 96 2 191 4 210 4 33 -1
34 0 15 14 -11 9 -25 13 -32 11 -7 -3 -50 -10 -95 -16 -66 -9 -96 -8 -147 3
-36 7 -66 18 -68 24 -2 6 11 21 29 34 32 23 318 266 328 279 3 3 66 52 141
108 74 56 169 131 209 167 41 36 77 65 81 65 3 0 -3 -26 -14 -58 -12 -35 -20
-86 -21 -134 l-1 -76 -91 -89 c-53 -50 -103 -109 -118 -138 -14 -27 -38 -68
-53 -90 -18 -27 -20 -35 -8 -25 10 8 42 51 71 96 34 53 84 110 144 165 50 46
99 98 107 114 l16 30 -23 -20 -23 -20 5 81 c6 111 34 165 145 280 91 95 90 95
323 203 23 10 21 11 -15 7 -22 -3 -79 -25 -127 -49 -49 -25 -88 -42 -88 -38 0
14 118 121 204 185 48 36 84 66 79 66 -10 0 -195 -130 -232 -163 -23 -21 -24
-21 -17 -2 38 101 50 128 71 160 29 41 32 53 9 35 -24 -21 -63 -93 -99 -185
-18 -46 -38 -90 -44 -97 -6 -7 -34 -42 -63 -78 -29 -35 -60 -72 -70 -82 -9 -9
-24 -28 -33 -42 -10 -14 -21 -23 -26 -21 -5 3 -37 -16 -71 -43 -78 -61 -204
-142 -211 -136 -3 3 -20 -4 -38 -15 -47 -29 -58 -26 -26 7 15 15 27 33 27 38
0 14 48 59 63 59 20 0 103 58 89 63 -7 2 -28 -8 -47 -23 -24 -17 -42 -24 -55
-20 -11 4 -20 2 -20 -3 0 -5 -12 -15 -27 -23 -16 -7 -44 -25 -63 -39 -19 -14
-42 -29 -51 -35 -51 -31 -358 -237 -379 -255 -14 -11 -40 -25 -57 -32 -18 -7
-33 -15 -33 -19 0 -4 -23 -22 -51 -39 -43 -28 -53 -31 -75 -21 -38 17 -53 12
-20 -6 l30 -16 -23 -18 c-30 -24 -37 -24 -66 5 -15 15 -26 20 -28 13 -3 -8
-15 -4 -35 11 -17 12 -41 22 -53 22 -15 0 -19 4 -15 16 3 9 6 18 6 20 0 2 7 4
16 4 19 0 49 28 39 38 -9 10 -80 -33 -80 -49 0 -22 -66 -30 -87 -11 -21 18
-25 82 -5 82 8 0 8 3 -2 9 -15 10 -22 59 -10 67 4 2 4 17 0 32 -5 15 -8 61 -7
102 l1 75 80 31 c44 18 103 42 130 55 l50 24 -35 5 -35 5 68 29 c120 51 63 39
-97 -19 l-156 -58 -21 27 c-19 25 -78 39 -64 16 4 -6 15 -8 25 -5 12 4 22 0
29 -12 12 -23 15 -423 3 -423 -5 0 -16 8 -25 18 -14 15 -17 41 -17 133 0 63 4
119 9 125 8 7 16 63 12 85 -1 4 -27 0 -58 -7 -32 -8 -115 -27 -184 -43 -225
-52 -209 -45 -209 -96 0 -34 -5 -47 -22 -59 -31 -22 -36 -20 -41 11 -4 26 -4
26 -6 -4 0 -18 -5 -33 -11 -33 -6 0 -10 31 -10 74 0 41 -5 78 -10 81 -13 8
-170 -25 -170 -36 0 -22 80 -14 153 16 15 6 17 0 17 -69 l0 -76 -47 -24 c-27
-13 -59 -36 -72 -50 -13 -14 -28 -23 -32 -20 -5 3 -9 0 -9 -5 0 -6 4 -11 9
-11 5 0 7 -9 4 -20 -8 -31 4 -64 36 -95 16 -16 26 -35 24 -42 -7 -17 17 -75
34 -86 7 -4 13 -20 13 -35 0 -42 11 -72 26 -72 8 0 14 -4 14 -10 0 -5 -2 -10
-4 -10 -3 0 -38 -7 -78 -16 -272 -58 -654 -134 -673 -134 -12 0 -29 8 -37 18
-14 16 -71 271 -84 375 -3 26 -8 47 -12 47 -9 0 4 -151 17 -205 5 -22 9 -41 7
-42 -2 -2 -19 22 -39 54 -27 43 -34 60 -26 74 15 30 10 58 -15 74 -23 15 -56
12 -56 -6 0 -5 -4 -9 -9 -9 -12 0 -18 20 -26 87 l-7 52 36 15 c30 13 42 27 66
82 27 58 30 77 30 162 0 54 3 113 6 133 6 36 9 38 78 59 39 11 81 25 94 31 41
17 45 12 40 -51 -2 -33 -3 -60 -2 -60 1 0 107 23 236 51 206 45 247 51 353 51
66 0 108 3 93 7 -17 4 -25 10 -20 17 9 15 87 54 107 54 9 0 13 5 10 10 -4 6
11 17 32 26 21 8 61 25 88 38 28 13 75 34 105 47 30 13 57 26 60 30 3 3 14 9
25 13 16 6 18 5 8 -5 -35 -35 6 -81 98 -111 52 -16 90 -20 196 -19 142 1 203
10 263 41 47 24 54 34 46 65 -8 30 -91 72 -163 81 -57 7 -65 18 -35 52 17 20
95 35 545 103 76 12 77 12 77 42 l0 30 104 -7 c138 -10 221 13 278 76 27 31
36 48 32 64 -5 21 -1 22 66 29 l71 7 82 -50 c72 -44 83 -55 89 -87 4 -19 15
-49 23 -65 8 -16 15 -43 15 -60 0 -44 13 -37 40 23 44 97 153 191 343 295 31
16 36 22 20 22 -12 0 -51 -20 -87 -44 -35 -25 -82 -54 -103 -65 -21 -10 -58
-40 -82 -66 -23 -26 -45 -44 -49 -41 -3 3 12 31 33 62 47 68 153 153 249 199
79 38 284 105 322 105 13 0 24 5 24 11 0 8 -15 10 -47 6 -44 -6 -46 -5 -28 8
11 8 27 20 35 28 8 7 44 37 80 67 36 30 82 70 102 89 26 24 41 32 48 25 13
-13 -41 -90 -69 -99 -29 -9 -27 -28 2 -20 12 4 46 18 76 31 81 36 92 30 37
-21 -51 -47 -49 -55 9 -31 57 24 111 23 140 -2 14 -13 29 -20 34 -18 4 3 8 -1
8 -9 0 -8 -16 -16 -41 -21 -73 -12 -75 -23 -5 -24 81 0 92 -8 186 -126 37 -47
69 -81 71 -76 3 10 -52 97 -69 107 -5 4 -9 10 -9 14 0 12 49 20 56 9 15 -23
24 12 23 90 0 82 -2 88 -27 108 -49 38 -128 74 -193 88 -65 13 -92 25 -138 59
-13 9 -37 17 -52 17 -19 0 -29 5 -29 15 0 8 -16 29 -34 47 -34 32 -58 67 -93
138 -22 42 -30 49 -54 43 -13 -4 -20 2 -25 23 -4 16 -22 52 -40 81 -58 89 -69
127 -55 187 25 112 3 310 -40 364 -10 13 -21 40 -25 61 -4 20 -24 71 -45 113
-22 43 -39 87 -39 98 0 19 -54 100 -72 108 -5 2 -8 11 -8 19 0 26 -49 103 -66
103 -8 0 -48 14 -88 31 -53 22 -76 37 -80 53 -7 30 -56 56 -105 56 -37 0 -41
2 -41 25 0 18 -7 28 -26 35 -33 13 -32 13 -46 -10z m-3138 -759 c0 -220 13
-201 -135 -201 -79 0 -93 3 -108 20 -15 18 -16 29 -7 82 5 34 7 79 4 99 -11
67 25 179 57 179 5 0 9 -33 11 -72 3 -71 4 -73 31 -76 26 -3 37 11 17 23 -5 3
-10 35 -10 71 l0 64 70 0 70 0 0 -189z m240 162 c3 -3 4 -57 3 -120 -2 -96 -5
-117 -19 -128 -19 -13 -12 -51 7 -40 7 5 9 -6 7 -31 -3 -38 -4 -39 -38 -36
-65 5 -62 -3 -56 170 3 86 5 168 6 180 0 22 3 23 43 17 23 -4 44 -9 47 -12z
m-600 -67 c0 -19 3 -42 6 -51 5 -13 2 -15 -22 -10 -28 6 -28 6 -9 -10 11 -8
33 -14 50 -13 25 2 31 -1 33 -19 2 -13 -1 -23 -6 -23 -6 0 -17 -3 -25 -6 -8
-3 -30 10 -52 30 -20 20 -45 35 -54 34 -30 -4 -92 14 -89 26 5 14 125 76 150
76 14 0 18 -8 18 -34z m3672 -241 c12 -1 34 -16 48 -33 15 -18 31 -32 36 -32
14 0 68 -70 94 -120 34 -67 87 -98 136 -80 15 6 24 6 24 0 0 -6 -4 -10 -10
-10 -5 0 -7 -6 -5 -12 8 -22 18 -111 17 -158 0 -25 -10 -74 -22 -110 -13 -36
-24 -76 -26 -90 -1 -15 -19 -39 -45 -60 -24 -19 -71 -62 -106 -94 -34 -33 -69
-61 -78 -62 -8 -1 -13 1 -11 5 3 4 -16 27 -41 51 -43 41 -45 45 -35 77 11 35
-2 58 -19 32 -7 -11 -9 -11 -9 -1 0 7 -4 10 -10 7 -5 -3 -10 -1 -10 5 0 7 6
10 13 7 9 -3 10 24 2 136 -6 81 -14 142 -21 144 -5 2 -29 -7 -53 -19 -34 -19
-48 -34 -69 -83 -15 -33 -42 -82 -60 -110 -17 -27 -30 -56 -27 -62 2 -7 1 -13
-3 -13 -4 0 -13 -20 -20 -44 -14 -54 -37 -79 -65 -70 -15 5 -19 3 -14 -8 4
-12 -6 -15 -54 -14 -56 0 -59 1 -69 30 -13 38 -14 36 18 36 l27 1 -28 25 c-16
13 -30 31 -31 39 -1 8 -21 31 -43 50 -23 19 -51 56 -64 82 -12 26 -24 42 -27
35 -2 -6 4 -26 12 -43 21 -42 20 -44 -9 -57 -16 -7 -23 -17 -19 -27 10 -25
-14 -17 -32 11 -14 21 -17 47 -16 136 1 61 4 113 7 116 8 9 35 -32 30 -45 -7
-21 13 -15 25 7 12 22 4 108 -12 127 -6 7 -16 13 -24 13 -7 0 -17 7 -22 16
-12 21 -74 10 -65 -12 6 -16 -5 -18 -27 -4 -19 12 -4 27 30 32 32 4 29 22 -5
26 -20 3 -25 8 -20 23 3 10 8 28 11 40 5 16 11 19 27 14 48 -14 95 -17 101 -6
5 7 -2 11 -18 11 -14 0 -27 4 -30 9 -7 10 15 59 29 64 6 2 2 3 -7 2 -10 -2
-21 1 -24 6 -3 5 1 9 8 10 7 0 21 2 30 4 9 2 22 -3 29 -11 14 -17 51 -18 67
-2 9 9 12 7 12 -9 0 -11 7 -26 15 -33 9 -7 14 -22 13 -34 -2 -11 2 -21 7 -22
23 -2 63 -24 67 -36 4 -10 8 -11 20 -1 8 7 18 10 22 6 7 -7 46 31 46 45 0 5
10 20 23 33 22 25 45 65 58 104 7 19 7 19 8 1 2 -30 49 -86 74 -86 17 0 19 -2
8 -9 -34 -22 -12 -120 27 -117 10 0 30 15 45 31 25 29 26 29 20 5 -3 -14 -12
-34 -20 -45 -15 -22 -17 -55 -4 -55 5 0 13 9 16 20 3 11 15 25 26 31 20 10 20
10 0 -29 -25 -49 -45 -65 -71 -57 -22 7 -27 -4 -8 -23 35 -35 96 12 128 98 19
52 22 71 16 128 -5 37 -7 79 -7 94 1 15 -3 29 -9 33 -5 3 -10 11 -10 17 0 6 9
3 20 -7 12 -10 30 -19 42 -20z m-3289 -247 c5 -38 2 -58 -8 -75 -19 -29 -19
-37 1 -29 15 6 16 0 11 -44 -9 -74 -4 -80 54 -73 35 4 49 2 49 -6 0 -8 -13
-12 -32 -11 -74 4 -78 3 -78 -35 0 -35 0 -35 -46 -35 l-47 0 6 40 c4 35 2 40
-14 40 -10 0 -19 6 -19 14 0 8 -3 21 -6 30 -5 12 1 16 22 16 l29 1 -22 18
c-21 17 -23 28 -23 110 l0 91 59 0 58 0 6 -52z m948 -245 c6 -17 8 -58 4 -103
-4 -48 3 -187 19 -380 42 -517 50 -640 40 -650 -5 -4 -209 -74 -454 -155 -245
-81 -451 -149 -457 -152 -22 -8 -14 25 12 51 16 16 62 38 118 56 250 81 328
106 529 171 120 39 220 74 223 79 2 4 -57 -13 -133 -37 -75 -24 -198 -64 -272
-88 -74 -24 -204 -65 -288 -93 -87 -28 -164 -47 -177 -44 -24 4 -25 7 -25 86
0 44 -2 113 -4 151 -4 66 -10 663 -7 713 0 13 6 20 11 17 6 -4 10 -162 10
-440 0 -255 4 -436 9 -440 6 -3 7 169 4 444 -5 338 -3 454 6 464 6 8 13 36 15
63 4 47 5 49 37 52 46 5 59 18 59 61 0 20 4 42 8 48 5 8 51 17 113 24 58 5
127 14 154 18 84 14 2 12 -135 -4 -101 -11 -127 -11 -135 -1 -5 7 -22 17 -36
22 -21 7 -25 13 -18 29 6 17 8 17 8 3 1 -19 26 -25 35 -9 3 4 70 14 148 20
118 10 510 45 556 50 7 0 17 -11 23 -26z m2984 -2 c2 -11 -1 -21 -7 -21 -6 0
-1 -8 10 -19 12 -10 19 -21 15 -25 -3 -3 -1 -6 5 -6 6 0 9 -7 5 -17 -4 -11 -3
-14 5 -9 8 5 12 0 12 -14 0 -12 4 -18 10 -15 5 3 7 0 5 -8 -3 -7 5 -26 18 -41
l24 -27 -36 -42 c-20 -22 -83 -91 -141 -151 -86 -90 -113 -113 -147 -122 -111
-30 -236 -97 -331 -177 -24 -21 -47 -37 -51 -37 -9 0 -91 52 -117 74 -10 8
-28 23 -39 31 -19 15 -13 22 155 186 154 150 234 217 417 346 25 17 57 42 72
56 25 24 103 68 109 62 1 -1 4 -12 7 -24z m-1572 -93 c3 -29 11 -144 18 -256
11 -170 11 -205 -1 -212 -7 -4 -19 -6 -27 -3 -7 3 -13 1 -13 -4 0 -6 -18 -18
-39 -28 -74 -33 -114 -100 -92 -156 5 -13 35 -44 66 -69 31 -25 64 -52 73 -60
9 -8 26 -15 37 -15 14 0 21 -8 23 -25 3 -25 2 -26 -120 -43 -68 -10 -249 -36
-403 -58 -154 -22 -332 -46 -395 -54 -63 -8 -164 -22 -225 -30 -60 -8 -135
-18 -165 -21 l-56 -6 -18 223 c-10 123 -20 258 -22 299 -2 41 -12 169 -20 283
-9 114 -14 210 -12 212 2 3 128 12 279 20 151 8 297 17 324 20 28 3 147 8 265
11 118 3 269 9 335 13 66 4 134 9 151 9 31 2 32 1 37 -50z m-3058 -140 c3 -7
12 -53 20 -103 12 -78 14 -81 9 -25 -3 36 -8 82 -11 103 l-6 37 204 -2 204 -3
3 -55 c2 -30 7 -59 12 -65 4 -5 11 -246 14 -534 5 -484 7 -525 23 -537 32 -23
2 -45 -117 -85 -63 -21 -104 -37 -90 -35 14 2 63 16 110 31 113 36 115 36 115
1 0 -29 -4 -31 -98 -64 -92 -31 -100 -32 -122 -18 -13 9 -31 16 -40 16 -18 0
-20 16 -3 24 7 3 2 4 -12 3 -20 -2 -26 4 -31 28 l-7 30 -1 -33 -1 -34 -42 7
c-24 4 -45 9 -47 11 -2 2 -21 144 -42 316 -21 172 -55 441 -74 598 -19 157
-35 311 -35 343 0 57 0 57 30 57 17 0 33 -6 35 -12z m-101 -114 c3 -9 8 -41
11 -72 7 -70 32 -256 51 -380 8 -51 14 -112 14 -134 l0 -41 -72 8 c-40 3 -74
8 -76 10 -7 7 -24 496 -18 528 7 39 50 97 71 97 7 0 16 -7 19 -16z m730 -81
c3 -38 8 -234 12 -438 7 -378 21 -527 25 -270 l3 140 5 -182 c4 -100 9 -185
13 -189 5 -4 21 -7 38 -7 16 0 30 -4 30 -9 0 -4 -11 -8 -25 -8 -13 0 -29 -8
-35 -17 -10 -16 -11 -16 -6 -1 2 9 -2 19 -10 22 -8 3 -14 12 -14 21 0 21 -16
19 -39 -6 -11 -12 -24 -18 -30 -14 -6 3 -11 -1 -11 -10 0 -22 -16 -11 -23 16
-5 17 -2 20 14 16 16 -4 18 -3 9 8 -6 8 -10 24 -8 36 3 21 4 22 20 6 16 -16
17 -16 23 3 9 28 -2 40 -35 40 -28 0 -46 -22 -34 -42 3 -5 -2 -18 -12 -29 -9
-10 -14 -19 -10 -19 4 0 1 -7 -8 -15 -8 -8 -17 -15 -20 -15 -3 0 -6 7 -6 15 0
8 4 15 10 15 10 0 6 689 -5 908 l-4 92 63 0 64 0 6 -67z m-134 -435 c5 -278 4
-477 -1 -483 -5 -5 -9 -7 -9 -5 -5 67 -18 955 -14 962 3 5 8 7 11 5 2 -3 8
-218 13 -479z m2780 258 c113 -27 201 -84 186 -121 -16 -41 -213 -76 -305 -53
-66 16 -150 57 -162 79 -12 23 2 54 34 71 71 38 155 46 247 24z m567 -53 c-8
-10 -18 -31 -21 -48 l-6 -30 15 32 c21 46 48 58 71 32 11 -12 35 -29 55 -39
44 -23 64 -46 49 -55 -6 -3 -23 -30 -38 -58 -37 -70 -38 -74 -19 -58 10 7 17
11 17 7 0 -13 -50 -86 -59 -86 -13 0 -34 68 -28 91 3 10 1 19 -3 19 -14 0 -80
113 -80 136 0 24 35 74 52 74 6 0 4 -8 -5 -17z m-1389 -455 c-5 -29 -14 -59
-20 -65 -8 -10 -6 -13 6 -13 9 0 21 12 26 26 10 26 12 26 70 20 162 -19 200
-77 79 -120 -69 -25 -312 -29 -401 -7 -55 13 -98 41 -98 61 0 18 53 44 113 55
l62 11 15 -30 c8 -16 18 -28 23 -28 4 1 26 3 50 4 l42 1 -45 6 c-42 6 -45 8
-48 40 -6 60 3 77 45 79 20 2 39 5 42 7 2 3 14 5 26 5 21 0 22 -2 13 -52z
m-1688 -452 c0 -85 -3 -161 -6 -170 -9 -23 -34 -20 -34 5 0 14 -5 19 -17 17
-35 -7 -17 -61 24 -74 2 0 -3 -13 -10 -28 -10 -22 -17 -26 -47 -24 -27 2 -35
7 -35 23 0 11 6 28 14 37 12 15 12 18 -3 24 -9 3 -16 12 -16 19 0 20 -19 28
-34 16 -10 -9 -17 -8 -27 2 -8 7 -22 16 -31 20 -14 5 -17 24 -20 127 -2 67 0
129 4 138 4 9 8 -19 9 -63 4 -164 7 -181 31 -157 18 18 46 15 44 -5 -1 -13 8
-19 28 -21 26 -3 28 -2 17 11 -10 13 -8 16 11 19 13 2 31 -1 40 -6 9 -6 20 -8
23 -4 3 3 7 60 8 127 1 89 5 121 15 121 9 0 12 -37 12 -154z m1190 -206 c39
-17 86 -30 109 -30 46 0 57 -11 40 -41 -8 -15 -8 -19 0 -15 7 5 11 -2 11 -16
0 -20 40 -144 54 -167 3 -5 -14 -48 -39 -96 -32 -63 -56 -96 -85 -117 -36 -27
-72 -76 -69 -95 3 -25 -89 -16 -121 12 -8 8 -28 20 -44 29 -27 14 -31 13 -43
-2 -22 -29 -35 4 -29 71 6 62 0 107 -15 107 -5 0 -9 -15 -9 -32 0 -47 -15 -67
-28 -41 -8 14 -7 34 3 74 17 62 19 99 6 99 -5 0 -12 -16 -15 -35 -9 -44 -23
-53 -37 -22 -9 20 -7 37 10 86 31 89 28 98 -16 62 -28 -23 -40 -28 -50 -19
-23 19 -15 59 20 92 47 44 205 125 245 126 19 0 64 -13 102 -30z"/>
<path d="M5323 908 c-5 -7 -25 -40 -43 -73 -18 -33 -56 -91 -83 -130 -48 -67
-76 -100 -244 -296 -73 -86 -237 -248 -353 -351 l-65 -57 266 0 265 -1 23 83
c12 45 40 138 62 207 21 69 44 143 49 166 9 37 12 40 45 41 19 1 38 -3 41 -8
3 -5 -5 -9 -17 -9 -18 0 -20 -3 -11 -12 10 -10 34 -4 71 19 2 1 -13 16 -33 34
-48 42 -61 66 -45 85 6 8 9 14 5 14 -4 0 0 14 9 30 20 39 54 148 48 154 -2 2
2 17 10 33 30 58 30 109 0 71z"/>
<path d="M20 110 l0 -110 151 0 150 0 -23 33 c-64 91 -195 187 -255 187 -22 0
-23 -3 -23 -110z"/>
</g>
</svg>
