<?xml version="1.0" standalone="no"?>
<!DOCTYPE svg PUBLIC "-//W3C//DTD SVG 20010904//EN"
 "http://www.w3.org/TR/2001/REC-SVG-20010904/DTD/svg10.dtd">
<svg version="1.0" xmlns="http://www.w3.org/2000/svg"
 width="554.000000pt" height="414.000000pt" viewBox="0 0 554.000000 414.000000"
 preserveAspectRatio="xMidYMid meet">
<metadata>
Created by potrace 1.16, written by Peter Selinger 2001-2019
</metadata>
<g transform="translate(0.000000,414.000000) scale(0.100000,-0.100000)"
fill="#000000" stroke="none">
<path d="M3092 4075 c-38 -20 -92 -69 -92 -82 0 -7 -4 -13 -9 -13 -11 0 -57
-87 -76 -145 -19 -57 -29 -115 -19 -115 5 0 29 23 53 51 60 70 113 104 140 89
29 -15 53 -65 45 -95 -8 -31 15 -35 34 -5 7 12 23 20 40 20 23 0 31 8 50 50
18 38 28 50 45 50 27 0 67 -26 67 -44 0 -8 6 -19 14 -25 11 -9 18 -8 30 4 9 9
16 20 16 25 0 17 -54 135 -69 153 -39 43 -58 60 -86 75 -37 19 -152 24 -183 7z"/>
<path d="M2730 3583 c-26 -10 -154 -97 -176 -120 -12 -13 -26 -23 -32 -23 -6
0 -20 -10 -32 -22 -11 -12 -20 -17 -20 -11 0 8 -17 10 -53 6 l-54 -5 -13 46
c-13 49 -19 52 -78 40 -28 -6 -30 -9 -29 -45 1 -21 -2 -38 -7 -38 -5 0 -23
-29 -41 -64 -17 -36 -38 -73 -46 -83 -7 -9 -13 -18 -11 -18 5 -2 -8 -38 -25
-70 -9 -16 -24 -67 -35 -115 -18 -82 -18 -88 -2 -151 10 -36 23 -72 30 -80 11
-13 10 -18 -5 -27 -37 -23 -33 -141 8 -228 10 -22 24 -51 30 -65 6 -14 22 -43
36 -65 14 -22 29 -49 34 -60 11 -25 85 -95 100 -95 6 0 11 -4 11 -10 0 -5 6
-9 13 -7 9 1 14 -29 19 -113 7 -126 8 -134 27 -168 11 -20 10 -26 -3 -41 -9
-10 -16 -24 -16 -32 -1 -8 -9 -32 -20 -54 -11 -22 -19 -46 -20 -53 0 -7 -9
-41 -19 -75 -11 -34 -29 -96 -42 -137 -12 -41 -28 -89 -35 -107 -8 -17 -14
-38 -14 -46 0 -18 -90 -201 -101 -205 -4 -2 -16 -22 -27 -45 -48 -106 -62
-144 -66 -177 -2 -19 -11 -69 -20 -110 -65 -299 -57 -271 -124 -410 -75 -155
-67 -196 41 -214 7 -1 22 -7 34 -14 12 -7 30 -12 41 -12 11 0 25 -7 32 -15 7
-9 15 -14 17 -11 2 2 41 -8 86 -22 59 -18 106 -25 167 -26 76 -1 89 2 118 24
26 20 32 30 30 54 -2 25 -9 31 -33 36 -17 4 -64 23 -105 43 -64 30 -79 42
-100 81 l-24 46 17 87 c9 49 19 105 23 126 3 20 10 37 15 37 5 0 8 3 7 8 -2
11 12 62 33 117 10 28 21 63 23 79 3 16 10 34 16 40 5 5 10 20 10 32 0 12 9
41 20 65 11 24 20 53 20 65 0 11 25 47 55 79 30 32 55 59 55 61 0 2 13 16 28
31 43 42 122 150 122 165 0 8 10 34 21 59 l22 44 58 -120 c32 -66 59 -125 59
-131 0 -7 7 -14 15 -18 20 -7 20 -70 -1 -127 -17 -50 -42 -151 -53 -224 -5
-27 -12 -176 -16 -330 -7 -287 -9 -323 -23 -410 -4 -27 -7 -57 -6 -65 0 -8 2
-25 2 -36 3 -43 88 -55 360 -54 160 0 254 12 281 33 25 21 33 58 16 77 -8 9
-13 19 -10 22 3 3 -19 8 -50 11 -30 3 -62 12 -70 20 -8 9 -28 18 -44 22 -16 3
-32 13 -35 21 -3 8 -12 14 -21 14 -8 0 -15 3 -15 8 0 4 -16 16 -36 27 -66 35
-75 56 -74 169 1 95 7 158 31 301 5 33 11 77 14 97 2 20 9 54 14 76 6 21 15
65 20 98 4 32 21 106 36 163 23 86 26 115 20 165 -11 97 -14 118 -24 176 -5
30 -15 87 -21 125 -7 39 -18 93 -26 120 -8 28 -17 64 -20 80 -5 29 -12 53 -67
230 -25 78 -25 82 -11 160 14 75 21 130 27 215 l2 35 -70 8 c-155 19 -218 49
-255 123 -21 41 -25 66 -28 149 -1 55 3 134 10 175 13 73 14 75 40 72 15 -2
71 -19 125 -37 l98 -34 -1 -73 c-1 -46 -7 -85 -17 -105 l-16 -31 60 -27 c34
-15 65 -23 69 -19 4 5 10 50 13 99 3 50 11 126 17 170 26 199 20 313 -23 409
-39 89 -119 161 -196 177 -20 4 -45 10 -56 13 -11 3 -27 2 -35 -1z"/>
</g>
</svg>
